M48
INCH,TZ
T1C0.0236
T2C0.0315
T3C0.0394
T4C0.0630
%
G90
G05
T1
X36260Y-30420
X47580Y-31680
X48620Y-31680
X49600Y-48500
X50590Y-48160
X51600Y-47800
X52600Y-47400
X53600Y-47000
X54800Y-46600
T2
X41002Y-49200
X42002Y-49200
X42600Y-30200
X43002Y-49200
X43600Y-30200
X44002Y-49200
X44600Y-30200
X45002Y-49200
X45600Y-30200
X46002Y-49200
X46600Y-30200
X47002Y-49200
X47600Y-30200
X48002Y-49200
X48600Y-30200
X49600Y-30200
X49600Y-49200
X50600Y-49200
X51600Y-30200
X51600Y-49200
X52600Y-30200
X52600Y-49200
X53600Y-30200
X53600Y-49200
X54600Y-30200
X54600Y-49200
X55600Y-30200
X55600Y-49200
X56600Y-30200
X56600Y-49200
T3
X57250Y-34979
X57250Y-35979
X57180Y-32260
X57180Y-33260
T4
X35000Y-37960
X37500Y-33210
X37500Y-36210
X39000Y-34710
X36660Y-44800
X38960Y-43300
X38960Y-44800
X38960Y-46300
T0
M30
