G04 #@! TF.GenerationSoftware,KiCad,Pcbnew,(5.0.1)-3*
G04 #@! TF.CreationDate,2018-12-01T14:06:00+02:00*
G04 #@! TF.ProjectId,DB darbas 2,44422064617262617320322E6B696361,1.2*
G04 #@! TF.SameCoordinates,Original*
G04 #@! TF.FileFunction,Copper,L2,Bot,Signal*
G04 #@! TF.FilePolarity,Positive*
%FSLAX46Y46*%
G04 Gerber Fmt 4.6, Leading zero omitted, Abs format (unit mm)*
G04 Created by KiCad (PCBNEW (5.0.1)-3) date 01-Dec-18 14:06:00*
%MOMM*%
%LPD*%
G01*
G04 APERTURE LIST*
G04 #@! TA.AperFunction,ComponentPad*
%ADD10O,1.600000X1.600000*%
G04 #@! TD*
G04 #@! TA.AperFunction,ComponentPad*
%ADD11R,1.600000X1.600000*%
G04 #@! TD*
G04 #@! TA.AperFunction,ComponentPad*
%ADD12C,3.000000*%
G04 #@! TD*
G04 #@! TA.AperFunction,ComponentPad*
%ADD13O,1.700000X1.700000*%
G04 #@! TD*
G04 #@! TA.AperFunction,ComponentPad*
%ADD14R,1.700000X1.700000*%
G04 #@! TD*
G04 #@! TA.AperFunction,ComponentPad*
%ADD15C,2.800000*%
G04 #@! TD*
G04 #@! TA.AperFunction,ViaPad*
%ADD16C,1.200000*%
G04 #@! TD*
G04 #@! TA.AperFunction,Conductor*
%ADD17C,0.500000*%
G04 #@! TD*
G04 #@! TA.AperFunction,Conductor*
%ADD18C,0.254000*%
G04 #@! TD*
G04 APERTURE END LIST*
D10*
G04 #@! TO.P,U1,29*
G04 #@! TO.N,Net-(U1-Pad29)*
X106430000Y-76835000D03*
G04 #@! TO.P,U1,30*
G04 #@! TO.N,Net-(U1-Pad30)*
X103890000Y-76835000D03*
D11*
G04 #@! TO.P,U1,1*
G04 #@! TO.N,Net-(U1-Pad1)*
X107950000Y-125095000D03*
D10*
G04 #@! TO.P,U1,17*
G04 #@! TO.N,Net-(J3-Pad1)*
X138430000Y-76835000D03*
G04 #@! TO.P,U1,2*
G04 #@! TO.N,Net-(U1-Pad2)*
X110490000Y-125095000D03*
G04 #@! TO.P,U1,18*
G04 #@! TO.N,Net-(J3-Pad3)*
X135890000Y-76835000D03*
G04 #@! TO.P,U1,3*
G04 #@! TO.N,Net-(U1-Pad3)*
X113030000Y-125095000D03*
G04 #@! TO.P,U1,19*
G04 #@! TO.N,Net-(J3-Pad2)*
X133350000Y-76835000D03*
G04 #@! TO.P,U1,4*
G04 #@! TO.N,Net-(U1-Pad4)*
X115570000Y-125095000D03*
G04 #@! TO.P,U1,20*
G04 #@! TO.N,Net-(J1-Pad2)*
X130810000Y-76835000D03*
G04 #@! TO.P,U1,5*
G04 #@! TO.N,Net-(U1-Pad5)*
X118110000Y-125095000D03*
G04 #@! TO.P,U1,21*
G04 #@! TO.N,Net-(J1-Pad3)*
X128270000Y-76835000D03*
G04 #@! TO.P,U1,6*
G04 #@! TO.N,GND*
X120650000Y-125095000D03*
G04 #@! TO.P,U1,22*
G04 #@! TO.N,Net-(J1-Pad1)*
X125730000Y-76835000D03*
G04 #@! TO.P,U1,7*
G04 #@! TO.N,GND*
X123190000Y-125095000D03*
G04 #@! TO.P,U1,23*
G04 #@! TO.N,Net-(R6-Pad2)*
X121670000Y-76835000D03*
G04 #@! TO.P,U1,8*
G04 #@! TO.N,Net-(D7-Pad2)*
X125730000Y-125095000D03*
G04 #@! TO.P,U1,24*
G04 #@! TO.N,Net-(R5-Pad2)*
X119130000Y-76835000D03*
G04 #@! TO.P,U1,9*
G04 #@! TO.N,Net-(U1-Pad9)*
X130810000Y-125095000D03*
G04 #@! TO.P,U1,25*
G04 #@! TO.N,Net-(R4-Pad2)*
X116590000Y-76835000D03*
G04 #@! TO.P,U1,10*
G04 #@! TO.N,Net-(U1-Pad10)*
X133350000Y-125095000D03*
G04 #@! TO.P,U1,26*
G04 #@! TO.N,Net-(R3-Pad2)*
X114050000Y-76835000D03*
G04 #@! TO.P,U1,11*
G04 #@! TO.N,Net-(U1-Pad11)*
X135890000Y-125095000D03*
G04 #@! TO.P,U1,27*
G04 #@! TO.N,Net-(R2-Pad2)*
X111510000Y-76835000D03*
G04 #@! TO.P,U1,12*
G04 #@! TO.N,Net-(U1-Pad12)*
X138430000Y-125095000D03*
G04 #@! TO.P,U1,28*
G04 #@! TO.N,Net-(R1-Pad1)*
X108970000Y-76835000D03*
G04 #@! TO.P,U1,13*
G04 #@! TO.N,Net-(U1-Pad13)*
X140970000Y-125095000D03*
G04 #@! TO.P,U1,14*
G04 #@! TO.N,Net-(U1-Pad14)*
X143510000Y-125095000D03*
G04 #@! TO.P,U1,15*
G04 #@! TO.N,Net-(U1-Pad15)*
X143510000Y-76835000D03*
G04 #@! TO.P,U1,16*
G04 #@! TO.N,Net-(U1-Pad16)*
X140970000Y-76835000D03*
G04 #@! TD*
D12*
G04 #@! TO.P,J3,G*
G04 #@! TO.N,GND*
X88798400Y-122047000D03*
G04 #@! TO.P,J3,3*
G04 #@! TO.N,Net-(J3-Pad3)*
X98958400Y-113792000D03*
G04 #@! TO.P,J3,2*
G04 #@! TO.N,Net-(J3-Pad2)*
X95148400Y-109982000D03*
G04 #@! TO.P,J3,1*
G04 #@! TO.N,Net-(J3-Pad1)*
X95148400Y-117602000D03*
G04 #@! TD*
D13*
G04 #@! TO.P,VCC1,2*
G04 #@! TO.N,GND*
X145415000Y-91387801D03*
D14*
G04 #@! TO.P,VCC1,1*
G04 #@! TO.N,Net-(Switch1-Pad1)*
X145415000Y-88847801D03*
G04 #@! TD*
G04 #@! TO.P,Switch1,1*
G04 #@! TO.N,Net-(Switch1-Pad1)*
X145237200Y-81940400D03*
D13*
G04 #@! TO.P,Switch1,2*
G04 #@! TO.N,Net-(D7-Pad1)*
X145237200Y-84480400D03*
G04 #@! TD*
D12*
G04 #@! TO.P,J1,G*
G04 #@! TO.N,GND*
X92964000Y-87630000D03*
D15*
G04 #@! TO.P,J1,3*
G04 #@! TO.N,Net-(J1-Pad3)*
X98806000Y-87630000D03*
G04 #@! TO.P,J1,1*
G04 #@! TO.N,Net-(J1-Pad1)*
X98806000Y-83820000D03*
G04 #@! TO.P,J1,2*
G04 #@! TO.N,Net-(J1-Pad2)*
X98806000Y-91440000D03*
G04 #@! TD*
D16*
G04 #@! TO.N,Net-(J1-Pad2)*
X130810000Y-83947000D03*
G04 #@! TO.N,Net-(J1-Pad3)*
X128270000Y-82550000D03*
G04 #@! TO.N,Net-(J1-Pad1)*
X125730000Y-81026000D03*
G04 #@! TO.N,GND*
X120650000Y-120015000D03*
X123190000Y-120015000D03*
G04 #@! TO.N,Net-(J3-Pad2)*
X133350000Y-85598000D03*
G04 #@! TO.N,Net-(J3-Pad3)*
X135890000Y-87503000D03*
G04 #@! TO.N,Net-(J3-Pad1)*
X138430000Y-89281000D03*
G04 #@! TO.N,Net-(D7-Pad2)*
X127000000Y-116840000D03*
X127635000Y-91821000D03*
G04 #@! TD*
D17*
G04 #@! TO.N,Net-(J1-Pad2)*
X98806000Y-91440000D02*
X100965000Y-91440000D01*
X100965000Y-91440000D02*
X108458000Y-83947000D01*
X108458000Y-83947000D02*
X130810000Y-83947000D01*
G04 #@! TO.N,Net-(J1-Pad3)*
X100205999Y-86230001D02*
X102491999Y-86230001D01*
X98806000Y-87630000D02*
X100205999Y-86230001D01*
X102491999Y-86230001D02*
X106172000Y-82550000D01*
X106172000Y-82550000D02*
X128270000Y-82550000D01*
G04 #@! TO.N,Net-(J1-Pad1)*
X98806000Y-83820000D02*
X102616000Y-83820000D01*
X102616000Y-83820000D02*
X105410000Y-81026000D01*
X105410000Y-81026000D02*
X125730000Y-81026000D01*
G04 #@! TO.N,Net-(J3-Pad2)*
X96648399Y-108482001D02*
X99543999Y-108482001D01*
X95148400Y-109982000D02*
X96648399Y-108482001D01*
X99543999Y-108482001D02*
X105029000Y-102997000D01*
X105029000Y-102997000D02*
X105029000Y-89916000D01*
X105029000Y-89916000D02*
X109347000Y-85598000D01*
X109347000Y-85598000D02*
X133350000Y-85598000D01*
G04 #@! TO.N,Net-(J3-Pad3)*
X101079720Y-113792000D02*
X108077000Y-106794720D01*
X98958400Y-113792000D02*
X101079720Y-113792000D01*
X108077000Y-106794720D02*
X108077000Y-89408000D01*
X108077000Y-89408000D02*
X109982000Y-87503000D01*
X109982000Y-87503000D02*
X135890000Y-87503000D01*
G04 #@! TO.N,Net-(J3-Pad1)*
X95148400Y-117602000D02*
X101346000Y-117602000D01*
X101346000Y-117602000D02*
X110617000Y-108331000D01*
X110617000Y-108331000D02*
X110617000Y-89916000D01*
X110617000Y-89916000D02*
X111252000Y-89281000D01*
X111252000Y-89281000D02*
X138430000Y-89281000D01*
G04 #@! TO.N,Net-(Switch1-Pad1)*
X142187801Y-88847801D02*
X145415000Y-88847801D01*
X141986000Y-88646000D02*
X142187801Y-88847801D01*
X142011400Y-82677000D02*
X142748000Y-81940400D01*
X141986000Y-82677000D02*
X142011400Y-82677000D01*
X145237200Y-81940400D02*
X142748000Y-81940400D01*
X141986000Y-82677000D02*
X141986000Y-88646000D01*
G04 #@! TO.N,Net-(D7-Pad2)*
X127000000Y-116840000D02*
X127635000Y-116205000D01*
X127635000Y-116205000D02*
X127635000Y-91821000D01*
G04 #@! TD*
D18*
G04 #@! TO.N,GND*
G36*
X145485000Y-76102879D02*
X145485000Y-80442960D01*
X144387200Y-80442960D01*
X144139435Y-80492243D01*
X143929391Y-80632591D01*
X143789043Y-80842635D01*
X143746722Y-81055400D01*
X142835161Y-81055400D01*
X142748000Y-81038063D01*
X142660839Y-81055400D01*
X142660835Y-81055400D01*
X142402690Y-81106748D01*
X142183845Y-81252976D01*
X142183844Y-81252977D01*
X142109951Y-81302351D01*
X142060577Y-81376244D01*
X141498394Y-81938427D01*
X141347951Y-82038951D01*
X141152348Y-82331690D01*
X141083662Y-82677000D01*
X141101000Y-82764165D01*
X141101001Y-88558835D01*
X141083663Y-88646000D01*
X141152348Y-88991309D01*
X141298576Y-89210154D01*
X141298578Y-89210156D01*
X141347952Y-89284049D01*
X141421845Y-89333423D01*
X141500376Y-89411954D01*
X141549752Y-89485850D01*
X141842491Y-89681453D01*
X142100636Y-89732801D01*
X142100640Y-89732801D01*
X142187801Y-89750138D01*
X142274962Y-89732801D01*
X143924522Y-89732801D01*
X143966843Y-89945566D01*
X144107191Y-90155610D01*
X144317235Y-90295958D01*
X144420708Y-90316540D01*
X144143355Y-90620877D01*
X143973524Y-91030911D01*
X144094845Y-91260801D01*
X145288000Y-91260801D01*
X145288000Y-91240801D01*
X145542000Y-91240801D01*
X145542000Y-91260801D01*
X146735155Y-91260801D01*
X146856476Y-91030911D01*
X146686645Y-90620877D01*
X146409292Y-90316540D01*
X146512765Y-90295958D01*
X146722809Y-90155610D01*
X146863157Y-89945566D01*
X146912440Y-89697801D01*
X146912440Y-88960318D01*
X148025000Y-90072879D01*
X148025001Y-122267120D01*
X145736960Y-124555163D01*
X145678934Y-124593935D01*
X145525325Y-124823826D01*
X145485000Y-125026554D01*
X145485000Y-125026558D01*
X145471386Y-125095000D01*
X145485000Y-125163443D01*
X145485001Y-127070000D01*
X80575656Y-127070000D01*
X80577935Y-124655773D01*
X80578000Y-124655447D01*
X80578000Y-124587012D01*
X80578064Y-124519210D01*
X80578000Y-124518887D01*
X80578000Y-124295000D01*
X106502560Y-124295000D01*
X106502560Y-125895000D01*
X106551843Y-126142765D01*
X106692191Y-126352809D01*
X106902235Y-126493157D01*
X107150000Y-126542440D01*
X108750000Y-126542440D01*
X108997765Y-126493157D01*
X109207809Y-126352809D01*
X109348157Y-126142765D01*
X109374785Y-126008894D01*
X109455423Y-126129577D01*
X109930091Y-126446740D01*
X110348667Y-126530000D01*
X110631333Y-126530000D01*
X111049909Y-126446740D01*
X111524577Y-126129577D01*
X111760000Y-125777242D01*
X111995423Y-126129577D01*
X112470091Y-126446740D01*
X112888667Y-126530000D01*
X113171333Y-126530000D01*
X113589909Y-126446740D01*
X114064577Y-126129577D01*
X114300000Y-125777242D01*
X114535423Y-126129577D01*
X115010091Y-126446740D01*
X115428667Y-126530000D01*
X115711333Y-126530000D01*
X116129909Y-126446740D01*
X116604577Y-126129577D01*
X116840000Y-125777242D01*
X117075423Y-126129577D01*
X117550091Y-126446740D01*
X117968667Y-126530000D01*
X118251333Y-126530000D01*
X118669909Y-126446740D01*
X119144577Y-126129577D01*
X119400947Y-125745892D01*
X119497611Y-125950134D01*
X119912577Y-126326041D01*
X120300961Y-126486904D01*
X120523000Y-126364915D01*
X120523000Y-125222000D01*
X120777000Y-125222000D01*
X120777000Y-126364915D01*
X120999039Y-126486904D01*
X121387423Y-126326041D01*
X121802389Y-125950134D01*
X121920000Y-125701633D01*
X122037611Y-125950134D01*
X122452577Y-126326041D01*
X122840961Y-126486904D01*
X123063000Y-126364915D01*
X123063000Y-125222000D01*
X120777000Y-125222000D01*
X120523000Y-125222000D01*
X120503000Y-125222000D01*
X120503000Y-124968000D01*
X120523000Y-124968000D01*
X120523000Y-123825085D01*
X120777000Y-123825085D01*
X120777000Y-124968000D01*
X123063000Y-124968000D01*
X123063000Y-123825085D01*
X123317000Y-123825085D01*
X123317000Y-124968000D01*
X123337000Y-124968000D01*
X123337000Y-125222000D01*
X123317000Y-125222000D01*
X123317000Y-126364915D01*
X123539039Y-126486904D01*
X123927423Y-126326041D01*
X124342389Y-125950134D01*
X124439053Y-125745892D01*
X124695423Y-126129577D01*
X125170091Y-126446740D01*
X125588667Y-126530000D01*
X125871333Y-126530000D01*
X126289909Y-126446740D01*
X126764577Y-126129577D01*
X127081740Y-125654909D01*
X127193113Y-125095000D01*
X129346887Y-125095000D01*
X129458260Y-125654909D01*
X129775423Y-126129577D01*
X130250091Y-126446740D01*
X130668667Y-126530000D01*
X130951333Y-126530000D01*
X131369909Y-126446740D01*
X131844577Y-126129577D01*
X132080000Y-125777242D01*
X132315423Y-126129577D01*
X132790091Y-126446740D01*
X133208667Y-126530000D01*
X133491333Y-126530000D01*
X133909909Y-126446740D01*
X134384577Y-126129577D01*
X134620000Y-125777242D01*
X134855423Y-126129577D01*
X135330091Y-126446740D01*
X135748667Y-126530000D01*
X136031333Y-126530000D01*
X136449909Y-126446740D01*
X136924577Y-126129577D01*
X137160000Y-125777242D01*
X137395423Y-126129577D01*
X137870091Y-126446740D01*
X138288667Y-126530000D01*
X138571333Y-126530000D01*
X138989909Y-126446740D01*
X139464577Y-126129577D01*
X139700000Y-125777242D01*
X139935423Y-126129577D01*
X140410091Y-126446740D01*
X140828667Y-126530000D01*
X141111333Y-126530000D01*
X141529909Y-126446740D01*
X142004577Y-126129577D01*
X142240000Y-125777242D01*
X142475423Y-126129577D01*
X142950091Y-126446740D01*
X143368667Y-126530000D01*
X143651333Y-126530000D01*
X144069909Y-126446740D01*
X144544577Y-126129577D01*
X144861740Y-125654909D01*
X144973113Y-125095000D01*
X144861740Y-124535091D01*
X144544577Y-124060423D01*
X144069909Y-123743260D01*
X143651333Y-123660000D01*
X143368667Y-123660000D01*
X142950091Y-123743260D01*
X142475423Y-124060423D01*
X142240000Y-124412758D01*
X142004577Y-124060423D01*
X141529909Y-123743260D01*
X141111333Y-123660000D01*
X140828667Y-123660000D01*
X140410091Y-123743260D01*
X139935423Y-124060423D01*
X139700000Y-124412758D01*
X139464577Y-124060423D01*
X138989909Y-123743260D01*
X138571333Y-123660000D01*
X138288667Y-123660000D01*
X137870091Y-123743260D01*
X137395423Y-124060423D01*
X137160000Y-124412758D01*
X136924577Y-124060423D01*
X136449909Y-123743260D01*
X136031333Y-123660000D01*
X135748667Y-123660000D01*
X135330091Y-123743260D01*
X134855423Y-124060423D01*
X134620000Y-124412758D01*
X134384577Y-124060423D01*
X133909909Y-123743260D01*
X133491333Y-123660000D01*
X133208667Y-123660000D01*
X132790091Y-123743260D01*
X132315423Y-124060423D01*
X132080000Y-124412758D01*
X131844577Y-124060423D01*
X131369909Y-123743260D01*
X130951333Y-123660000D01*
X130668667Y-123660000D01*
X130250091Y-123743260D01*
X129775423Y-124060423D01*
X129458260Y-124535091D01*
X129346887Y-125095000D01*
X127193113Y-125095000D01*
X127081740Y-124535091D01*
X126764577Y-124060423D01*
X126289909Y-123743260D01*
X125871333Y-123660000D01*
X125588667Y-123660000D01*
X125170091Y-123743260D01*
X124695423Y-124060423D01*
X124439053Y-124444108D01*
X124342389Y-124239866D01*
X123927423Y-123863959D01*
X123539039Y-123703096D01*
X123317000Y-123825085D01*
X123063000Y-123825085D01*
X122840961Y-123703096D01*
X122452577Y-123863959D01*
X122037611Y-124239866D01*
X121920000Y-124488367D01*
X121802389Y-124239866D01*
X121387423Y-123863959D01*
X120999039Y-123703096D01*
X120777000Y-123825085D01*
X120523000Y-123825085D01*
X120300961Y-123703096D01*
X119912577Y-123863959D01*
X119497611Y-124239866D01*
X119400947Y-124444108D01*
X119144577Y-124060423D01*
X118669909Y-123743260D01*
X118251333Y-123660000D01*
X117968667Y-123660000D01*
X117550091Y-123743260D01*
X117075423Y-124060423D01*
X116840000Y-124412758D01*
X116604577Y-124060423D01*
X116129909Y-123743260D01*
X115711333Y-123660000D01*
X115428667Y-123660000D01*
X115010091Y-123743260D01*
X114535423Y-124060423D01*
X114300000Y-124412758D01*
X114064577Y-124060423D01*
X113589909Y-123743260D01*
X113171333Y-123660000D01*
X112888667Y-123660000D01*
X112470091Y-123743260D01*
X111995423Y-124060423D01*
X111760000Y-124412758D01*
X111524577Y-124060423D01*
X111049909Y-123743260D01*
X110631333Y-123660000D01*
X110348667Y-123660000D01*
X109930091Y-123743260D01*
X109455423Y-124060423D01*
X109374785Y-124181106D01*
X109348157Y-124047235D01*
X109207809Y-123837191D01*
X108997765Y-123696843D01*
X108750000Y-123647560D01*
X107150000Y-123647560D01*
X106902235Y-123696843D01*
X106692191Y-123837191D01*
X106551843Y-124047235D01*
X106502560Y-124295000D01*
X80578000Y-124295000D01*
X80578000Y-123560970D01*
X87464035Y-123560970D01*
X87623818Y-123879739D01*
X88414587Y-124189723D01*
X89263787Y-124173497D01*
X89972982Y-123879739D01*
X90132765Y-123560970D01*
X88798400Y-122226605D01*
X87464035Y-123560970D01*
X80578000Y-123560970D01*
X80578000Y-121663187D01*
X86655677Y-121663187D01*
X86671903Y-122512387D01*
X86965661Y-123221582D01*
X87284430Y-123381365D01*
X88618795Y-122047000D01*
X88978005Y-122047000D01*
X90312370Y-123381365D01*
X90631139Y-123221582D01*
X90941123Y-122430813D01*
X90924897Y-121581613D01*
X90631139Y-120872418D01*
X90312370Y-120712635D01*
X88978005Y-122047000D01*
X88618795Y-122047000D01*
X87284430Y-120712635D01*
X86965661Y-120872418D01*
X86655677Y-121663187D01*
X80578000Y-121663187D01*
X80578000Y-120533030D01*
X87464035Y-120533030D01*
X88798400Y-121867395D01*
X90132765Y-120533030D01*
X89972982Y-120214261D01*
X89182213Y-119904277D01*
X88333013Y-119920503D01*
X87623818Y-120214261D01*
X87464035Y-120533030D01*
X80578000Y-120533030D01*
X80578000Y-109557322D01*
X93013400Y-109557322D01*
X93013400Y-110406678D01*
X93338434Y-111191380D01*
X93939020Y-111791966D01*
X94723722Y-112117000D01*
X95573078Y-112117000D01*
X96357780Y-111791966D01*
X96958366Y-111191380D01*
X97283400Y-110406678D01*
X97283400Y-109557322D01*
X97204567Y-109367001D01*
X99456838Y-109367001D01*
X99543999Y-109384338D01*
X99631160Y-109367001D01*
X99631164Y-109367001D01*
X99889309Y-109315653D01*
X100182048Y-109120050D01*
X100231424Y-109046154D01*
X105593156Y-103684423D01*
X105667049Y-103635049D01*
X105862652Y-103342310D01*
X105914000Y-103084165D01*
X105914000Y-103084161D01*
X105931337Y-102997000D01*
X105914000Y-102909839D01*
X105914000Y-90282578D01*
X109713579Y-86483000D01*
X132488447Y-86483000D01*
X132623447Y-86618000D01*
X110069161Y-86618000D01*
X109982000Y-86600663D01*
X109894839Y-86618000D01*
X109894835Y-86618000D01*
X109636690Y-86669348D01*
X109417845Y-86815576D01*
X109417844Y-86815577D01*
X109343951Y-86864951D01*
X109294577Y-86938844D01*
X107512845Y-88720577D01*
X107438952Y-88769951D01*
X107389578Y-88843844D01*
X107389576Y-88843846D01*
X107243348Y-89062691D01*
X107174663Y-89408000D01*
X107192001Y-89495166D01*
X107192000Y-106428141D01*
X100847200Y-112772942D01*
X100768366Y-112582620D01*
X100167780Y-111982034D01*
X99383078Y-111657000D01*
X98533722Y-111657000D01*
X97749020Y-111982034D01*
X97148434Y-112582620D01*
X96823400Y-113367322D01*
X96823400Y-114216678D01*
X97148434Y-115001380D01*
X97749020Y-115601966D01*
X98533722Y-115927000D01*
X99383078Y-115927000D01*
X100167780Y-115601966D01*
X100768366Y-115001380D01*
X100902729Y-114677000D01*
X100992559Y-114677000D01*
X101079720Y-114694337D01*
X101166881Y-114677000D01*
X101166885Y-114677000D01*
X101425030Y-114625652D01*
X101717769Y-114430049D01*
X101767145Y-114356153D01*
X108641156Y-107482142D01*
X108715049Y-107432769D01*
X108910652Y-107140030D01*
X108962000Y-106881885D01*
X108962000Y-106881881D01*
X108979337Y-106794721D01*
X108962000Y-106707561D01*
X108962000Y-89774578D01*
X110348579Y-88388000D01*
X111205059Y-88388000D01*
X111164839Y-88396000D01*
X111164835Y-88396000D01*
X110906690Y-88447348D01*
X110687845Y-88593576D01*
X110687844Y-88593577D01*
X110613951Y-88642951D01*
X110564577Y-88716844D01*
X110052844Y-89228577D01*
X109978952Y-89277951D01*
X109929578Y-89351844D01*
X109929576Y-89351846D01*
X109783348Y-89570691D01*
X109714663Y-89916000D01*
X109732001Y-90003166D01*
X109732000Y-107964421D01*
X100979422Y-116717000D01*
X97092729Y-116717000D01*
X96958366Y-116392620D01*
X96357780Y-115792034D01*
X95573078Y-115467000D01*
X94723722Y-115467000D01*
X93939020Y-115792034D01*
X93338434Y-116392620D01*
X93013400Y-117177322D01*
X93013400Y-118026678D01*
X93338434Y-118811380D01*
X93939020Y-119411966D01*
X94723722Y-119737000D01*
X95573078Y-119737000D01*
X96357780Y-119411966D01*
X96958366Y-118811380D01*
X97092729Y-118487000D01*
X101258839Y-118487000D01*
X101346000Y-118504337D01*
X101433161Y-118487000D01*
X101433165Y-118487000D01*
X101691310Y-118435652D01*
X101984049Y-118240049D01*
X102033425Y-118166153D01*
X103605235Y-116594343D01*
X125765000Y-116594343D01*
X125765000Y-117085657D01*
X125953018Y-117539571D01*
X126300429Y-117886982D01*
X126754343Y-118075000D01*
X127245657Y-118075000D01*
X127699571Y-117886982D01*
X128046982Y-117539571D01*
X128235000Y-117085657D01*
X128235000Y-116868473D01*
X128273049Y-116843049D01*
X128468652Y-116550310D01*
X128520000Y-116292165D01*
X128520000Y-116292161D01*
X128537337Y-116205000D01*
X128520000Y-116117839D01*
X128520000Y-92682553D01*
X128681982Y-92520571D01*
X128870000Y-92066657D01*
X128870000Y-91744691D01*
X143973524Y-91744691D01*
X144143355Y-92154725D01*
X144533642Y-92582984D01*
X145058108Y-92829287D01*
X145288000Y-92708620D01*
X145288000Y-91514801D01*
X145542000Y-91514801D01*
X145542000Y-92708620D01*
X145771892Y-92829287D01*
X146296358Y-92582984D01*
X146686645Y-92154725D01*
X146856476Y-91744691D01*
X146735155Y-91514801D01*
X145542000Y-91514801D01*
X145288000Y-91514801D01*
X144094845Y-91514801D01*
X143973524Y-91744691D01*
X128870000Y-91744691D01*
X128870000Y-91575343D01*
X128681982Y-91121429D01*
X128334571Y-90774018D01*
X127880657Y-90586000D01*
X127389343Y-90586000D01*
X126935429Y-90774018D01*
X126588018Y-91121429D01*
X126400000Y-91575343D01*
X126400000Y-92066657D01*
X126588018Y-92520571D01*
X126750001Y-92682554D01*
X126750000Y-115606799D01*
X126300429Y-115793018D01*
X125953018Y-116140429D01*
X125765000Y-116594343D01*
X103605235Y-116594343D01*
X111181156Y-109018422D01*
X111255049Y-108969049D01*
X111349757Y-108827310D01*
X111450652Y-108676310D01*
X111489302Y-108482001D01*
X111502000Y-108418165D01*
X111502000Y-108418161D01*
X111519337Y-108331000D01*
X111502000Y-108243839D01*
X111502000Y-90282578D01*
X111618579Y-90166000D01*
X137568447Y-90166000D01*
X137730429Y-90327982D01*
X138184343Y-90516000D01*
X138675657Y-90516000D01*
X139129571Y-90327982D01*
X139476982Y-89980571D01*
X139665000Y-89526657D01*
X139665000Y-89035343D01*
X139476982Y-88581429D01*
X139129571Y-88234018D01*
X138675657Y-88046000D01*
X138184343Y-88046000D01*
X137730429Y-88234018D01*
X137568447Y-88396000D01*
X136743553Y-88396000D01*
X136936982Y-88202571D01*
X137125000Y-87748657D01*
X137125000Y-87257343D01*
X136936982Y-86803429D01*
X136589571Y-86456018D01*
X136135657Y-86268000D01*
X135644343Y-86268000D01*
X135190429Y-86456018D01*
X135028447Y-86618000D01*
X134076553Y-86618000D01*
X134396982Y-86297571D01*
X134585000Y-85843657D01*
X134585000Y-85352343D01*
X134396982Y-84898429D01*
X134049571Y-84551018D01*
X133595657Y-84363000D01*
X133104343Y-84363000D01*
X132650429Y-84551018D01*
X132488447Y-84713000D01*
X131790553Y-84713000D01*
X131856982Y-84646571D01*
X132045000Y-84192657D01*
X132045000Y-83701343D01*
X131856982Y-83247429D01*
X131509571Y-82900018D01*
X131055657Y-82712000D01*
X130564343Y-82712000D01*
X130110429Y-82900018D01*
X129948447Y-83062000D01*
X129394677Y-83062000D01*
X129505000Y-82795657D01*
X129505000Y-82304343D01*
X129316982Y-81850429D01*
X128969571Y-81503018D01*
X128515657Y-81315000D01*
X128024343Y-81315000D01*
X127570429Y-81503018D01*
X127408447Y-81665000D01*
X126802071Y-81665000D01*
X126965000Y-81271657D01*
X126965000Y-80780343D01*
X126776982Y-80326429D01*
X126429571Y-79979018D01*
X125975657Y-79791000D01*
X125484343Y-79791000D01*
X125030429Y-79979018D01*
X124868447Y-80141000D01*
X105497161Y-80141000D01*
X105410000Y-80123663D01*
X105322839Y-80141000D01*
X105322835Y-80141000D01*
X105064690Y-80192348D01*
X104845845Y-80338576D01*
X104845844Y-80338577D01*
X104771951Y-80387951D01*
X104722577Y-80461844D01*
X102249422Y-82935000D01*
X100642089Y-82935000D01*
X100531190Y-82667265D01*
X99958735Y-82094810D01*
X99210787Y-81785000D01*
X98401213Y-81785000D01*
X97653265Y-82094810D01*
X97080810Y-82667265D01*
X96771000Y-83415213D01*
X96771000Y-84224787D01*
X97080810Y-84972735D01*
X97653265Y-85545190D01*
X98087365Y-85725000D01*
X97653265Y-85904810D01*
X97080810Y-86477265D01*
X96771000Y-87225213D01*
X96771000Y-88034787D01*
X97080810Y-88782735D01*
X97653265Y-89355190D01*
X98087365Y-89535000D01*
X97653265Y-89714810D01*
X97080810Y-90287265D01*
X96771000Y-91035213D01*
X96771000Y-91844787D01*
X97080810Y-92592735D01*
X97653265Y-93165190D01*
X98401213Y-93475000D01*
X99210787Y-93475000D01*
X99958735Y-93165190D01*
X100531190Y-92592735D01*
X100642089Y-92325000D01*
X100877839Y-92325000D01*
X100965000Y-92342337D01*
X101052161Y-92325000D01*
X101052165Y-92325000D01*
X101310310Y-92273652D01*
X101603049Y-92078049D01*
X101652425Y-92004153D01*
X108824579Y-84832000D01*
X108900442Y-84832000D01*
X108782845Y-84910576D01*
X108782844Y-84910577D01*
X108708951Y-84959951D01*
X108659577Y-85033844D01*
X104464845Y-89228577D01*
X104390952Y-89277951D01*
X104341578Y-89351844D01*
X104341576Y-89351846D01*
X104195348Y-89570691D01*
X104126663Y-89916000D01*
X104144001Y-90003166D01*
X104144000Y-102630421D01*
X99177421Y-107597001D01*
X96735560Y-107597001D01*
X96648399Y-107579664D01*
X96561238Y-107597001D01*
X96561234Y-107597001D01*
X96327085Y-107643576D01*
X96303089Y-107648349D01*
X96084244Y-107794577D01*
X96084243Y-107794578D01*
X96010350Y-107843952D01*
X95960976Y-107917845D01*
X95897458Y-107981363D01*
X95573078Y-107847000D01*
X94723722Y-107847000D01*
X93939020Y-108172034D01*
X93338434Y-108772620D01*
X93013400Y-109557322D01*
X80578000Y-109557322D01*
X80578000Y-95572394D01*
X80578009Y-95572349D01*
X80578000Y-95508327D01*
X80578000Y-95435553D01*
X80577990Y-95435502D01*
X80577106Y-89143970D01*
X91629635Y-89143970D01*
X91789418Y-89462739D01*
X92580187Y-89772723D01*
X93429387Y-89756497D01*
X94138582Y-89462739D01*
X94298365Y-89143970D01*
X92964000Y-87809605D01*
X91629635Y-89143970D01*
X80577106Y-89143970D01*
X80576839Y-87246187D01*
X90821277Y-87246187D01*
X90837503Y-88095387D01*
X91131261Y-88804582D01*
X91450030Y-88964365D01*
X92784395Y-87630000D01*
X93143605Y-87630000D01*
X94477970Y-88964365D01*
X94796739Y-88804582D01*
X95106723Y-88013813D01*
X95090497Y-87164613D01*
X94796739Y-86455418D01*
X94477970Y-86295635D01*
X93143605Y-87630000D01*
X92784395Y-87630000D01*
X91450030Y-86295635D01*
X91131261Y-86455418D01*
X90821277Y-87246187D01*
X80576839Y-87246187D01*
X80576681Y-86116030D01*
X91629635Y-86116030D01*
X92964000Y-87450395D01*
X94298365Y-86116030D01*
X94138582Y-85797261D01*
X93347813Y-85487277D01*
X92498613Y-85503503D01*
X91789418Y-85797261D01*
X91629635Y-86116030D01*
X80576681Y-86116030D01*
X80575375Y-76835000D01*
X102426887Y-76835000D01*
X102538260Y-77394909D01*
X102855423Y-77869577D01*
X103330091Y-78186740D01*
X103748667Y-78270000D01*
X104031333Y-78270000D01*
X104449909Y-78186740D01*
X104924577Y-77869577D01*
X105160000Y-77517242D01*
X105395423Y-77869577D01*
X105870091Y-78186740D01*
X106288667Y-78270000D01*
X106571333Y-78270000D01*
X106989909Y-78186740D01*
X107464577Y-77869577D01*
X107700000Y-77517242D01*
X107935423Y-77869577D01*
X108410091Y-78186740D01*
X108828667Y-78270000D01*
X109111333Y-78270000D01*
X109529909Y-78186740D01*
X110004577Y-77869577D01*
X110240000Y-77517242D01*
X110475423Y-77869577D01*
X110950091Y-78186740D01*
X111368667Y-78270000D01*
X111651333Y-78270000D01*
X112069909Y-78186740D01*
X112544577Y-77869577D01*
X112780000Y-77517242D01*
X113015423Y-77869577D01*
X113490091Y-78186740D01*
X113908667Y-78270000D01*
X114191333Y-78270000D01*
X114609909Y-78186740D01*
X115084577Y-77869577D01*
X115320000Y-77517242D01*
X115555423Y-77869577D01*
X116030091Y-78186740D01*
X116448667Y-78270000D01*
X116731333Y-78270000D01*
X117149909Y-78186740D01*
X117624577Y-77869577D01*
X117860000Y-77517242D01*
X118095423Y-77869577D01*
X118570091Y-78186740D01*
X118988667Y-78270000D01*
X119271333Y-78270000D01*
X119689909Y-78186740D01*
X120164577Y-77869577D01*
X120400000Y-77517242D01*
X120635423Y-77869577D01*
X121110091Y-78186740D01*
X121528667Y-78270000D01*
X121811333Y-78270000D01*
X122229909Y-78186740D01*
X122704577Y-77869577D01*
X123021740Y-77394909D01*
X123133113Y-76835000D01*
X124266887Y-76835000D01*
X124378260Y-77394909D01*
X124695423Y-77869577D01*
X125170091Y-78186740D01*
X125588667Y-78270000D01*
X125871333Y-78270000D01*
X126289909Y-78186740D01*
X126764577Y-77869577D01*
X127000000Y-77517242D01*
X127235423Y-77869577D01*
X127710091Y-78186740D01*
X128128667Y-78270000D01*
X128411333Y-78270000D01*
X128829909Y-78186740D01*
X129304577Y-77869577D01*
X129540000Y-77517242D01*
X129775423Y-77869577D01*
X130250091Y-78186740D01*
X130668667Y-78270000D01*
X130951333Y-78270000D01*
X131369909Y-78186740D01*
X131844577Y-77869577D01*
X132080000Y-77517242D01*
X132315423Y-77869577D01*
X132790091Y-78186740D01*
X133208667Y-78270000D01*
X133491333Y-78270000D01*
X133909909Y-78186740D01*
X134384577Y-77869577D01*
X134620000Y-77517242D01*
X134855423Y-77869577D01*
X135330091Y-78186740D01*
X135748667Y-78270000D01*
X136031333Y-78270000D01*
X136449909Y-78186740D01*
X136924577Y-77869577D01*
X137160000Y-77517242D01*
X137395423Y-77869577D01*
X137870091Y-78186740D01*
X138288667Y-78270000D01*
X138571333Y-78270000D01*
X138989909Y-78186740D01*
X139464577Y-77869577D01*
X139700000Y-77517242D01*
X139935423Y-77869577D01*
X140410091Y-78186740D01*
X140828667Y-78270000D01*
X141111333Y-78270000D01*
X141529909Y-78186740D01*
X142004577Y-77869577D01*
X142240000Y-77517242D01*
X142475423Y-77869577D01*
X142950091Y-78186740D01*
X143368667Y-78270000D01*
X143651333Y-78270000D01*
X144069909Y-78186740D01*
X144544577Y-77869577D01*
X144861740Y-77394909D01*
X144973113Y-76835000D01*
X144861740Y-76275091D01*
X144544577Y-75800423D01*
X144069909Y-75483260D01*
X143651333Y-75400000D01*
X143368667Y-75400000D01*
X142950091Y-75483260D01*
X142475423Y-75800423D01*
X142240000Y-76152758D01*
X142004577Y-75800423D01*
X141529909Y-75483260D01*
X141111333Y-75400000D01*
X140828667Y-75400000D01*
X140410091Y-75483260D01*
X139935423Y-75800423D01*
X139700000Y-76152758D01*
X139464577Y-75800423D01*
X138989909Y-75483260D01*
X138571333Y-75400000D01*
X138288667Y-75400000D01*
X137870091Y-75483260D01*
X137395423Y-75800423D01*
X137160000Y-76152758D01*
X136924577Y-75800423D01*
X136449909Y-75483260D01*
X136031333Y-75400000D01*
X135748667Y-75400000D01*
X135330091Y-75483260D01*
X134855423Y-75800423D01*
X134620000Y-76152758D01*
X134384577Y-75800423D01*
X133909909Y-75483260D01*
X133491333Y-75400000D01*
X133208667Y-75400000D01*
X132790091Y-75483260D01*
X132315423Y-75800423D01*
X132080000Y-76152758D01*
X131844577Y-75800423D01*
X131369909Y-75483260D01*
X130951333Y-75400000D01*
X130668667Y-75400000D01*
X130250091Y-75483260D01*
X129775423Y-75800423D01*
X129540000Y-76152758D01*
X129304577Y-75800423D01*
X128829909Y-75483260D01*
X128411333Y-75400000D01*
X128128667Y-75400000D01*
X127710091Y-75483260D01*
X127235423Y-75800423D01*
X127000000Y-76152758D01*
X126764577Y-75800423D01*
X126289909Y-75483260D01*
X125871333Y-75400000D01*
X125588667Y-75400000D01*
X125170091Y-75483260D01*
X124695423Y-75800423D01*
X124378260Y-76275091D01*
X124266887Y-76835000D01*
X123133113Y-76835000D01*
X123021740Y-76275091D01*
X122704577Y-75800423D01*
X122229909Y-75483260D01*
X121811333Y-75400000D01*
X121528667Y-75400000D01*
X121110091Y-75483260D01*
X120635423Y-75800423D01*
X120400000Y-76152758D01*
X120164577Y-75800423D01*
X119689909Y-75483260D01*
X119271333Y-75400000D01*
X118988667Y-75400000D01*
X118570091Y-75483260D01*
X118095423Y-75800423D01*
X117860000Y-76152758D01*
X117624577Y-75800423D01*
X117149909Y-75483260D01*
X116731333Y-75400000D01*
X116448667Y-75400000D01*
X116030091Y-75483260D01*
X115555423Y-75800423D01*
X115320000Y-76152758D01*
X115084577Y-75800423D01*
X114609909Y-75483260D01*
X114191333Y-75400000D01*
X113908667Y-75400000D01*
X113490091Y-75483260D01*
X113015423Y-75800423D01*
X112780000Y-76152758D01*
X112544577Y-75800423D01*
X112069909Y-75483260D01*
X111651333Y-75400000D01*
X111368667Y-75400000D01*
X110950091Y-75483260D01*
X110475423Y-75800423D01*
X110240000Y-76152758D01*
X110004577Y-75800423D01*
X109529909Y-75483260D01*
X109111333Y-75400000D01*
X108828667Y-75400000D01*
X108410091Y-75483260D01*
X107935423Y-75800423D01*
X107700000Y-76152758D01*
X107464577Y-75800423D01*
X106989909Y-75483260D01*
X106571333Y-75400000D01*
X106288667Y-75400000D01*
X105870091Y-75483260D01*
X105395423Y-75800423D01*
X105160000Y-76152758D01*
X104924577Y-75800423D01*
X104449909Y-75483260D01*
X104031333Y-75400000D01*
X103748667Y-75400000D01*
X103330091Y-75483260D01*
X102855423Y-75800423D01*
X102538260Y-76275091D01*
X102426887Y-76835000D01*
X80575375Y-76835000D01*
X80575097Y-74860000D01*
X144242123Y-74860000D01*
X145485000Y-76102879D01*
X145485000Y-76102879D01*
G37*
X145485000Y-76102879D02*
X145485000Y-80442960D01*
X144387200Y-80442960D01*
X144139435Y-80492243D01*
X143929391Y-80632591D01*
X143789043Y-80842635D01*
X143746722Y-81055400D01*
X142835161Y-81055400D01*
X142748000Y-81038063D01*
X142660839Y-81055400D01*
X142660835Y-81055400D01*
X142402690Y-81106748D01*
X142183845Y-81252976D01*
X142183844Y-81252977D01*
X142109951Y-81302351D01*
X142060577Y-81376244D01*
X141498394Y-81938427D01*
X141347951Y-82038951D01*
X141152348Y-82331690D01*
X141083662Y-82677000D01*
X141101000Y-82764165D01*
X141101001Y-88558835D01*
X141083663Y-88646000D01*
X141152348Y-88991309D01*
X141298576Y-89210154D01*
X141298578Y-89210156D01*
X141347952Y-89284049D01*
X141421845Y-89333423D01*
X141500376Y-89411954D01*
X141549752Y-89485850D01*
X141842491Y-89681453D01*
X142100636Y-89732801D01*
X142100640Y-89732801D01*
X142187801Y-89750138D01*
X142274962Y-89732801D01*
X143924522Y-89732801D01*
X143966843Y-89945566D01*
X144107191Y-90155610D01*
X144317235Y-90295958D01*
X144420708Y-90316540D01*
X144143355Y-90620877D01*
X143973524Y-91030911D01*
X144094845Y-91260801D01*
X145288000Y-91260801D01*
X145288000Y-91240801D01*
X145542000Y-91240801D01*
X145542000Y-91260801D01*
X146735155Y-91260801D01*
X146856476Y-91030911D01*
X146686645Y-90620877D01*
X146409292Y-90316540D01*
X146512765Y-90295958D01*
X146722809Y-90155610D01*
X146863157Y-89945566D01*
X146912440Y-89697801D01*
X146912440Y-88960318D01*
X148025000Y-90072879D01*
X148025001Y-122267120D01*
X145736960Y-124555163D01*
X145678934Y-124593935D01*
X145525325Y-124823826D01*
X145485000Y-125026554D01*
X145485000Y-125026558D01*
X145471386Y-125095000D01*
X145485000Y-125163443D01*
X145485001Y-127070000D01*
X80575656Y-127070000D01*
X80577935Y-124655773D01*
X80578000Y-124655447D01*
X80578000Y-124587012D01*
X80578064Y-124519210D01*
X80578000Y-124518887D01*
X80578000Y-124295000D01*
X106502560Y-124295000D01*
X106502560Y-125895000D01*
X106551843Y-126142765D01*
X106692191Y-126352809D01*
X106902235Y-126493157D01*
X107150000Y-126542440D01*
X108750000Y-126542440D01*
X108997765Y-126493157D01*
X109207809Y-126352809D01*
X109348157Y-126142765D01*
X109374785Y-126008894D01*
X109455423Y-126129577D01*
X109930091Y-126446740D01*
X110348667Y-126530000D01*
X110631333Y-126530000D01*
X111049909Y-126446740D01*
X111524577Y-126129577D01*
X111760000Y-125777242D01*
X111995423Y-126129577D01*
X112470091Y-126446740D01*
X112888667Y-126530000D01*
X113171333Y-126530000D01*
X113589909Y-126446740D01*
X114064577Y-126129577D01*
X114300000Y-125777242D01*
X114535423Y-126129577D01*
X115010091Y-126446740D01*
X115428667Y-126530000D01*
X115711333Y-126530000D01*
X116129909Y-126446740D01*
X116604577Y-126129577D01*
X116840000Y-125777242D01*
X117075423Y-126129577D01*
X117550091Y-126446740D01*
X117968667Y-126530000D01*
X118251333Y-126530000D01*
X118669909Y-126446740D01*
X119144577Y-126129577D01*
X119400947Y-125745892D01*
X119497611Y-125950134D01*
X119912577Y-126326041D01*
X120300961Y-126486904D01*
X120523000Y-126364915D01*
X120523000Y-125222000D01*
X120777000Y-125222000D01*
X120777000Y-126364915D01*
X120999039Y-126486904D01*
X121387423Y-126326041D01*
X121802389Y-125950134D01*
X121920000Y-125701633D01*
X122037611Y-125950134D01*
X122452577Y-126326041D01*
X122840961Y-126486904D01*
X123063000Y-126364915D01*
X123063000Y-125222000D01*
X120777000Y-125222000D01*
X120523000Y-125222000D01*
X120503000Y-125222000D01*
X120503000Y-124968000D01*
X120523000Y-124968000D01*
X120523000Y-123825085D01*
X120777000Y-123825085D01*
X120777000Y-124968000D01*
X123063000Y-124968000D01*
X123063000Y-123825085D01*
X123317000Y-123825085D01*
X123317000Y-124968000D01*
X123337000Y-124968000D01*
X123337000Y-125222000D01*
X123317000Y-125222000D01*
X123317000Y-126364915D01*
X123539039Y-126486904D01*
X123927423Y-126326041D01*
X124342389Y-125950134D01*
X124439053Y-125745892D01*
X124695423Y-126129577D01*
X125170091Y-126446740D01*
X125588667Y-126530000D01*
X125871333Y-126530000D01*
X126289909Y-126446740D01*
X126764577Y-126129577D01*
X127081740Y-125654909D01*
X127193113Y-125095000D01*
X129346887Y-125095000D01*
X129458260Y-125654909D01*
X129775423Y-126129577D01*
X130250091Y-126446740D01*
X130668667Y-126530000D01*
X130951333Y-126530000D01*
X131369909Y-126446740D01*
X131844577Y-126129577D01*
X132080000Y-125777242D01*
X132315423Y-126129577D01*
X132790091Y-126446740D01*
X133208667Y-126530000D01*
X133491333Y-126530000D01*
X133909909Y-126446740D01*
X134384577Y-126129577D01*
X134620000Y-125777242D01*
X134855423Y-126129577D01*
X135330091Y-126446740D01*
X135748667Y-126530000D01*
X136031333Y-126530000D01*
X136449909Y-126446740D01*
X136924577Y-126129577D01*
X137160000Y-125777242D01*
X137395423Y-126129577D01*
X137870091Y-126446740D01*
X138288667Y-126530000D01*
X138571333Y-126530000D01*
X138989909Y-126446740D01*
X139464577Y-126129577D01*
X139700000Y-125777242D01*
X139935423Y-126129577D01*
X140410091Y-126446740D01*
X140828667Y-126530000D01*
X141111333Y-126530000D01*
X141529909Y-126446740D01*
X142004577Y-126129577D01*
X142240000Y-125777242D01*
X142475423Y-126129577D01*
X142950091Y-126446740D01*
X143368667Y-126530000D01*
X143651333Y-126530000D01*
X144069909Y-126446740D01*
X144544577Y-126129577D01*
X144861740Y-125654909D01*
X144973113Y-125095000D01*
X144861740Y-124535091D01*
X144544577Y-124060423D01*
X144069909Y-123743260D01*
X143651333Y-123660000D01*
X143368667Y-123660000D01*
X142950091Y-123743260D01*
X142475423Y-124060423D01*
X142240000Y-124412758D01*
X142004577Y-124060423D01*
X141529909Y-123743260D01*
X141111333Y-123660000D01*
X140828667Y-123660000D01*
X140410091Y-123743260D01*
X139935423Y-124060423D01*
X139700000Y-124412758D01*
X139464577Y-124060423D01*
X138989909Y-123743260D01*
X138571333Y-123660000D01*
X138288667Y-123660000D01*
X137870091Y-123743260D01*
X137395423Y-124060423D01*
X137160000Y-124412758D01*
X136924577Y-124060423D01*
X136449909Y-123743260D01*
X136031333Y-123660000D01*
X135748667Y-123660000D01*
X135330091Y-123743260D01*
X134855423Y-124060423D01*
X134620000Y-124412758D01*
X134384577Y-124060423D01*
X133909909Y-123743260D01*
X133491333Y-123660000D01*
X133208667Y-123660000D01*
X132790091Y-123743260D01*
X132315423Y-124060423D01*
X132080000Y-124412758D01*
X131844577Y-124060423D01*
X131369909Y-123743260D01*
X130951333Y-123660000D01*
X130668667Y-123660000D01*
X130250091Y-123743260D01*
X129775423Y-124060423D01*
X129458260Y-124535091D01*
X129346887Y-125095000D01*
X127193113Y-125095000D01*
X127081740Y-124535091D01*
X126764577Y-124060423D01*
X126289909Y-123743260D01*
X125871333Y-123660000D01*
X125588667Y-123660000D01*
X125170091Y-123743260D01*
X124695423Y-124060423D01*
X124439053Y-124444108D01*
X124342389Y-124239866D01*
X123927423Y-123863959D01*
X123539039Y-123703096D01*
X123317000Y-123825085D01*
X123063000Y-123825085D01*
X122840961Y-123703096D01*
X122452577Y-123863959D01*
X122037611Y-124239866D01*
X121920000Y-124488367D01*
X121802389Y-124239866D01*
X121387423Y-123863959D01*
X120999039Y-123703096D01*
X120777000Y-123825085D01*
X120523000Y-123825085D01*
X120300961Y-123703096D01*
X119912577Y-123863959D01*
X119497611Y-124239866D01*
X119400947Y-124444108D01*
X119144577Y-124060423D01*
X118669909Y-123743260D01*
X118251333Y-123660000D01*
X117968667Y-123660000D01*
X117550091Y-123743260D01*
X117075423Y-124060423D01*
X116840000Y-124412758D01*
X116604577Y-124060423D01*
X116129909Y-123743260D01*
X115711333Y-123660000D01*
X115428667Y-123660000D01*
X115010091Y-123743260D01*
X114535423Y-124060423D01*
X114300000Y-124412758D01*
X114064577Y-124060423D01*
X113589909Y-123743260D01*
X113171333Y-123660000D01*
X112888667Y-123660000D01*
X112470091Y-123743260D01*
X111995423Y-124060423D01*
X111760000Y-124412758D01*
X111524577Y-124060423D01*
X111049909Y-123743260D01*
X110631333Y-123660000D01*
X110348667Y-123660000D01*
X109930091Y-123743260D01*
X109455423Y-124060423D01*
X109374785Y-124181106D01*
X109348157Y-124047235D01*
X109207809Y-123837191D01*
X108997765Y-123696843D01*
X108750000Y-123647560D01*
X107150000Y-123647560D01*
X106902235Y-123696843D01*
X106692191Y-123837191D01*
X106551843Y-124047235D01*
X106502560Y-124295000D01*
X80578000Y-124295000D01*
X80578000Y-123560970D01*
X87464035Y-123560970D01*
X87623818Y-123879739D01*
X88414587Y-124189723D01*
X89263787Y-124173497D01*
X89972982Y-123879739D01*
X90132765Y-123560970D01*
X88798400Y-122226605D01*
X87464035Y-123560970D01*
X80578000Y-123560970D01*
X80578000Y-121663187D01*
X86655677Y-121663187D01*
X86671903Y-122512387D01*
X86965661Y-123221582D01*
X87284430Y-123381365D01*
X88618795Y-122047000D01*
X88978005Y-122047000D01*
X90312370Y-123381365D01*
X90631139Y-123221582D01*
X90941123Y-122430813D01*
X90924897Y-121581613D01*
X90631139Y-120872418D01*
X90312370Y-120712635D01*
X88978005Y-122047000D01*
X88618795Y-122047000D01*
X87284430Y-120712635D01*
X86965661Y-120872418D01*
X86655677Y-121663187D01*
X80578000Y-121663187D01*
X80578000Y-120533030D01*
X87464035Y-120533030D01*
X88798400Y-121867395D01*
X90132765Y-120533030D01*
X89972982Y-120214261D01*
X89182213Y-119904277D01*
X88333013Y-119920503D01*
X87623818Y-120214261D01*
X87464035Y-120533030D01*
X80578000Y-120533030D01*
X80578000Y-109557322D01*
X93013400Y-109557322D01*
X93013400Y-110406678D01*
X93338434Y-111191380D01*
X93939020Y-111791966D01*
X94723722Y-112117000D01*
X95573078Y-112117000D01*
X96357780Y-111791966D01*
X96958366Y-111191380D01*
X97283400Y-110406678D01*
X97283400Y-109557322D01*
X97204567Y-109367001D01*
X99456838Y-109367001D01*
X99543999Y-109384338D01*
X99631160Y-109367001D01*
X99631164Y-109367001D01*
X99889309Y-109315653D01*
X100182048Y-109120050D01*
X100231424Y-109046154D01*
X105593156Y-103684423D01*
X105667049Y-103635049D01*
X105862652Y-103342310D01*
X105914000Y-103084165D01*
X105914000Y-103084161D01*
X105931337Y-102997000D01*
X105914000Y-102909839D01*
X105914000Y-90282578D01*
X109713579Y-86483000D01*
X132488447Y-86483000D01*
X132623447Y-86618000D01*
X110069161Y-86618000D01*
X109982000Y-86600663D01*
X109894839Y-86618000D01*
X109894835Y-86618000D01*
X109636690Y-86669348D01*
X109417845Y-86815576D01*
X109417844Y-86815577D01*
X109343951Y-86864951D01*
X109294577Y-86938844D01*
X107512845Y-88720577D01*
X107438952Y-88769951D01*
X107389578Y-88843844D01*
X107389576Y-88843846D01*
X107243348Y-89062691D01*
X107174663Y-89408000D01*
X107192001Y-89495166D01*
X107192000Y-106428141D01*
X100847200Y-112772942D01*
X100768366Y-112582620D01*
X100167780Y-111982034D01*
X99383078Y-111657000D01*
X98533722Y-111657000D01*
X97749020Y-111982034D01*
X97148434Y-112582620D01*
X96823400Y-113367322D01*
X96823400Y-114216678D01*
X97148434Y-115001380D01*
X97749020Y-115601966D01*
X98533722Y-115927000D01*
X99383078Y-115927000D01*
X100167780Y-115601966D01*
X100768366Y-115001380D01*
X100902729Y-114677000D01*
X100992559Y-114677000D01*
X101079720Y-114694337D01*
X101166881Y-114677000D01*
X101166885Y-114677000D01*
X101425030Y-114625652D01*
X101717769Y-114430049D01*
X101767145Y-114356153D01*
X108641156Y-107482142D01*
X108715049Y-107432769D01*
X108910652Y-107140030D01*
X108962000Y-106881885D01*
X108962000Y-106881881D01*
X108979337Y-106794721D01*
X108962000Y-106707561D01*
X108962000Y-89774578D01*
X110348579Y-88388000D01*
X111205059Y-88388000D01*
X111164839Y-88396000D01*
X111164835Y-88396000D01*
X110906690Y-88447348D01*
X110687845Y-88593576D01*
X110687844Y-88593577D01*
X110613951Y-88642951D01*
X110564577Y-88716844D01*
X110052844Y-89228577D01*
X109978952Y-89277951D01*
X109929578Y-89351844D01*
X109929576Y-89351846D01*
X109783348Y-89570691D01*
X109714663Y-89916000D01*
X109732001Y-90003166D01*
X109732000Y-107964421D01*
X100979422Y-116717000D01*
X97092729Y-116717000D01*
X96958366Y-116392620D01*
X96357780Y-115792034D01*
X95573078Y-115467000D01*
X94723722Y-115467000D01*
X93939020Y-115792034D01*
X93338434Y-116392620D01*
X93013400Y-117177322D01*
X93013400Y-118026678D01*
X93338434Y-118811380D01*
X93939020Y-119411966D01*
X94723722Y-119737000D01*
X95573078Y-119737000D01*
X96357780Y-119411966D01*
X96958366Y-118811380D01*
X97092729Y-118487000D01*
X101258839Y-118487000D01*
X101346000Y-118504337D01*
X101433161Y-118487000D01*
X101433165Y-118487000D01*
X101691310Y-118435652D01*
X101984049Y-118240049D01*
X102033425Y-118166153D01*
X103605235Y-116594343D01*
X125765000Y-116594343D01*
X125765000Y-117085657D01*
X125953018Y-117539571D01*
X126300429Y-117886982D01*
X126754343Y-118075000D01*
X127245657Y-118075000D01*
X127699571Y-117886982D01*
X128046982Y-117539571D01*
X128235000Y-117085657D01*
X128235000Y-116868473D01*
X128273049Y-116843049D01*
X128468652Y-116550310D01*
X128520000Y-116292165D01*
X128520000Y-116292161D01*
X128537337Y-116205000D01*
X128520000Y-116117839D01*
X128520000Y-92682553D01*
X128681982Y-92520571D01*
X128870000Y-92066657D01*
X128870000Y-91744691D01*
X143973524Y-91744691D01*
X144143355Y-92154725D01*
X144533642Y-92582984D01*
X145058108Y-92829287D01*
X145288000Y-92708620D01*
X145288000Y-91514801D01*
X145542000Y-91514801D01*
X145542000Y-92708620D01*
X145771892Y-92829287D01*
X146296358Y-92582984D01*
X146686645Y-92154725D01*
X146856476Y-91744691D01*
X146735155Y-91514801D01*
X145542000Y-91514801D01*
X145288000Y-91514801D01*
X144094845Y-91514801D01*
X143973524Y-91744691D01*
X128870000Y-91744691D01*
X128870000Y-91575343D01*
X128681982Y-91121429D01*
X128334571Y-90774018D01*
X127880657Y-90586000D01*
X127389343Y-90586000D01*
X126935429Y-90774018D01*
X126588018Y-91121429D01*
X126400000Y-91575343D01*
X126400000Y-92066657D01*
X126588018Y-92520571D01*
X126750001Y-92682554D01*
X126750000Y-115606799D01*
X126300429Y-115793018D01*
X125953018Y-116140429D01*
X125765000Y-116594343D01*
X103605235Y-116594343D01*
X111181156Y-109018422D01*
X111255049Y-108969049D01*
X111349757Y-108827310D01*
X111450652Y-108676310D01*
X111489302Y-108482001D01*
X111502000Y-108418165D01*
X111502000Y-108418161D01*
X111519337Y-108331000D01*
X111502000Y-108243839D01*
X111502000Y-90282578D01*
X111618579Y-90166000D01*
X137568447Y-90166000D01*
X137730429Y-90327982D01*
X138184343Y-90516000D01*
X138675657Y-90516000D01*
X139129571Y-90327982D01*
X139476982Y-89980571D01*
X139665000Y-89526657D01*
X139665000Y-89035343D01*
X139476982Y-88581429D01*
X139129571Y-88234018D01*
X138675657Y-88046000D01*
X138184343Y-88046000D01*
X137730429Y-88234018D01*
X137568447Y-88396000D01*
X136743553Y-88396000D01*
X136936982Y-88202571D01*
X137125000Y-87748657D01*
X137125000Y-87257343D01*
X136936982Y-86803429D01*
X136589571Y-86456018D01*
X136135657Y-86268000D01*
X135644343Y-86268000D01*
X135190429Y-86456018D01*
X135028447Y-86618000D01*
X134076553Y-86618000D01*
X134396982Y-86297571D01*
X134585000Y-85843657D01*
X134585000Y-85352343D01*
X134396982Y-84898429D01*
X134049571Y-84551018D01*
X133595657Y-84363000D01*
X133104343Y-84363000D01*
X132650429Y-84551018D01*
X132488447Y-84713000D01*
X131790553Y-84713000D01*
X131856982Y-84646571D01*
X132045000Y-84192657D01*
X132045000Y-83701343D01*
X131856982Y-83247429D01*
X131509571Y-82900018D01*
X131055657Y-82712000D01*
X130564343Y-82712000D01*
X130110429Y-82900018D01*
X129948447Y-83062000D01*
X129394677Y-83062000D01*
X129505000Y-82795657D01*
X129505000Y-82304343D01*
X129316982Y-81850429D01*
X128969571Y-81503018D01*
X128515657Y-81315000D01*
X128024343Y-81315000D01*
X127570429Y-81503018D01*
X127408447Y-81665000D01*
X126802071Y-81665000D01*
X126965000Y-81271657D01*
X126965000Y-80780343D01*
X126776982Y-80326429D01*
X126429571Y-79979018D01*
X125975657Y-79791000D01*
X125484343Y-79791000D01*
X125030429Y-79979018D01*
X124868447Y-80141000D01*
X105497161Y-80141000D01*
X105410000Y-80123663D01*
X105322839Y-80141000D01*
X105322835Y-80141000D01*
X105064690Y-80192348D01*
X104845845Y-80338576D01*
X104845844Y-80338577D01*
X104771951Y-80387951D01*
X104722577Y-80461844D01*
X102249422Y-82935000D01*
X100642089Y-82935000D01*
X100531190Y-82667265D01*
X99958735Y-82094810D01*
X99210787Y-81785000D01*
X98401213Y-81785000D01*
X97653265Y-82094810D01*
X97080810Y-82667265D01*
X96771000Y-83415213D01*
X96771000Y-84224787D01*
X97080810Y-84972735D01*
X97653265Y-85545190D01*
X98087365Y-85725000D01*
X97653265Y-85904810D01*
X97080810Y-86477265D01*
X96771000Y-87225213D01*
X96771000Y-88034787D01*
X97080810Y-88782735D01*
X97653265Y-89355190D01*
X98087365Y-89535000D01*
X97653265Y-89714810D01*
X97080810Y-90287265D01*
X96771000Y-91035213D01*
X96771000Y-91844787D01*
X97080810Y-92592735D01*
X97653265Y-93165190D01*
X98401213Y-93475000D01*
X99210787Y-93475000D01*
X99958735Y-93165190D01*
X100531190Y-92592735D01*
X100642089Y-92325000D01*
X100877839Y-92325000D01*
X100965000Y-92342337D01*
X101052161Y-92325000D01*
X101052165Y-92325000D01*
X101310310Y-92273652D01*
X101603049Y-92078049D01*
X101652425Y-92004153D01*
X108824579Y-84832000D01*
X108900442Y-84832000D01*
X108782845Y-84910576D01*
X108782844Y-84910577D01*
X108708951Y-84959951D01*
X108659577Y-85033844D01*
X104464845Y-89228577D01*
X104390952Y-89277951D01*
X104341578Y-89351844D01*
X104341576Y-89351846D01*
X104195348Y-89570691D01*
X104126663Y-89916000D01*
X104144001Y-90003166D01*
X104144000Y-102630421D01*
X99177421Y-107597001D01*
X96735560Y-107597001D01*
X96648399Y-107579664D01*
X96561238Y-107597001D01*
X96561234Y-107597001D01*
X96327085Y-107643576D01*
X96303089Y-107648349D01*
X96084244Y-107794577D01*
X96084243Y-107794578D01*
X96010350Y-107843952D01*
X95960976Y-107917845D01*
X95897458Y-107981363D01*
X95573078Y-107847000D01*
X94723722Y-107847000D01*
X93939020Y-108172034D01*
X93338434Y-108772620D01*
X93013400Y-109557322D01*
X80578000Y-109557322D01*
X80578000Y-95572394D01*
X80578009Y-95572349D01*
X80578000Y-95508327D01*
X80578000Y-95435553D01*
X80577990Y-95435502D01*
X80577106Y-89143970D01*
X91629635Y-89143970D01*
X91789418Y-89462739D01*
X92580187Y-89772723D01*
X93429387Y-89756497D01*
X94138582Y-89462739D01*
X94298365Y-89143970D01*
X92964000Y-87809605D01*
X91629635Y-89143970D01*
X80577106Y-89143970D01*
X80576839Y-87246187D01*
X90821277Y-87246187D01*
X90837503Y-88095387D01*
X91131261Y-88804582D01*
X91450030Y-88964365D01*
X92784395Y-87630000D01*
X93143605Y-87630000D01*
X94477970Y-88964365D01*
X94796739Y-88804582D01*
X95106723Y-88013813D01*
X95090497Y-87164613D01*
X94796739Y-86455418D01*
X94477970Y-86295635D01*
X93143605Y-87630000D01*
X92784395Y-87630000D01*
X91450030Y-86295635D01*
X91131261Y-86455418D01*
X90821277Y-87246187D01*
X80576839Y-87246187D01*
X80576681Y-86116030D01*
X91629635Y-86116030D01*
X92964000Y-87450395D01*
X94298365Y-86116030D01*
X94138582Y-85797261D01*
X93347813Y-85487277D01*
X92498613Y-85503503D01*
X91789418Y-85797261D01*
X91629635Y-86116030D01*
X80576681Y-86116030D01*
X80575375Y-76835000D01*
X102426887Y-76835000D01*
X102538260Y-77394909D01*
X102855423Y-77869577D01*
X103330091Y-78186740D01*
X103748667Y-78270000D01*
X104031333Y-78270000D01*
X104449909Y-78186740D01*
X104924577Y-77869577D01*
X105160000Y-77517242D01*
X105395423Y-77869577D01*
X105870091Y-78186740D01*
X106288667Y-78270000D01*
X106571333Y-78270000D01*
X106989909Y-78186740D01*
X107464577Y-77869577D01*
X107700000Y-77517242D01*
X107935423Y-77869577D01*
X108410091Y-78186740D01*
X108828667Y-78270000D01*
X109111333Y-78270000D01*
X109529909Y-78186740D01*
X110004577Y-77869577D01*
X110240000Y-77517242D01*
X110475423Y-77869577D01*
X110950091Y-78186740D01*
X111368667Y-78270000D01*
X111651333Y-78270000D01*
X112069909Y-78186740D01*
X112544577Y-77869577D01*
X112780000Y-77517242D01*
X113015423Y-77869577D01*
X113490091Y-78186740D01*
X113908667Y-78270000D01*
X114191333Y-78270000D01*
X114609909Y-78186740D01*
X115084577Y-77869577D01*
X115320000Y-77517242D01*
X115555423Y-77869577D01*
X116030091Y-78186740D01*
X116448667Y-78270000D01*
X116731333Y-78270000D01*
X117149909Y-78186740D01*
X117624577Y-77869577D01*
X117860000Y-77517242D01*
X118095423Y-77869577D01*
X118570091Y-78186740D01*
X118988667Y-78270000D01*
X119271333Y-78270000D01*
X119689909Y-78186740D01*
X120164577Y-77869577D01*
X120400000Y-77517242D01*
X120635423Y-77869577D01*
X121110091Y-78186740D01*
X121528667Y-78270000D01*
X121811333Y-78270000D01*
X122229909Y-78186740D01*
X122704577Y-77869577D01*
X123021740Y-77394909D01*
X123133113Y-76835000D01*
X124266887Y-76835000D01*
X124378260Y-77394909D01*
X124695423Y-77869577D01*
X125170091Y-78186740D01*
X125588667Y-78270000D01*
X125871333Y-78270000D01*
X126289909Y-78186740D01*
X126764577Y-77869577D01*
X127000000Y-77517242D01*
X127235423Y-77869577D01*
X127710091Y-78186740D01*
X128128667Y-78270000D01*
X128411333Y-78270000D01*
X128829909Y-78186740D01*
X129304577Y-77869577D01*
X129540000Y-77517242D01*
X129775423Y-77869577D01*
X130250091Y-78186740D01*
X130668667Y-78270000D01*
X130951333Y-78270000D01*
X131369909Y-78186740D01*
X131844577Y-77869577D01*
X132080000Y-77517242D01*
X132315423Y-77869577D01*
X132790091Y-78186740D01*
X133208667Y-78270000D01*
X133491333Y-78270000D01*
X133909909Y-78186740D01*
X134384577Y-77869577D01*
X134620000Y-77517242D01*
X134855423Y-77869577D01*
X135330091Y-78186740D01*
X135748667Y-78270000D01*
X136031333Y-78270000D01*
X136449909Y-78186740D01*
X136924577Y-77869577D01*
X137160000Y-77517242D01*
X137395423Y-77869577D01*
X137870091Y-78186740D01*
X138288667Y-78270000D01*
X138571333Y-78270000D01*
X138989909Y-78186740D01*
X139464577Y-77869577D01*
X139700000Y-77517242D01*
X139935423Y-77869577D01*
X140410091Y-78186740D01*
X140828667Y-78270000D01*
X141111333Y-78270000D01*
X141529909Y-78186740D01*
X142004577Y-77869577D01*
X142240000Y-77517242D01*
X142475423Y-77869577D01*
X142950091Y-78186740D01*
X143368667Y-78270000D01*
X143651333Y-78270000D01*
X144069909Y-78186740D01*
X144544577Y-77869577D01*
X144861740Y-77394909D01*
X144973113Y-76835000D01*
X144861740Y-76275091D01*
X144544577Y-75800423D01*
X144069909Y-75483260D01*
X143651333Y-75400000D01*
X143368667Y-75400000D01*
X142950091Y-75483260D01*
X142475423Y-75800423D01*
X142240000Y-76152758D01*
X142004577Y-75800423D01*
X141529909Y-75483260D01*
X141111333Y-75400000D01*
X140828667Y-75400000D01*
X140410091Y-75483260D01*
X139935423Y-75800423D01*
X139700000Y-76152758D01*
X139464577Y-75800423D01*
X138989909Y-75483260D01*
X138571333Y-75400000D01*
X138288667Y-75400000D01*
X137870091Y-75483260D01*
X137395423Y-75800423D01*
X137160000Y-76152758D01*
X136924577Y-75800423D01*
X136449909Y-75483260D01*
X136031333Y-75400000D01*
X135748667Y-75400000D01*
X135330091Y-75483260D01*
X134855423Y-75800423D01*
X134620000Y-76152758D01*
X134384577Y-75800423D01*
X133909909Y-75483260D01*
X133491333Y-75400000D01*
X133208667Y-75400000D01*
X132790091Y-75483260D01*
X132315423Y-75800423D01*
X132080000Y-76152758D01*
X131844577Y-75800423D01*
X131369909Y-75483260D01*
X130951333Y-75400000D01*
X130668667Y-75400000D01*
X130250091Y-75483260D01*
X129775423Y-75800423D01*
X129540000Y-76152758D01*
X129304577Y-75800423D01*
X128829909Y-75483260D01*
X128411333Y-75400000D01*
X128128667Y-75400000D01*
X127710091Y-75483260D01*
X127235423Y-75800423D01*
X127000000Y-76152758D01*
X126764577Y-75800423D01*
X126289909Y-75483260D01*
X125871333Y-75400000D01*
X125588667Y-75400000D01*
X125170091Y-75483260D01*
X124695423Y-75800423D01*
X124378260Y-76275091D01*
X124266887Y-76835000D01*
X123133113Y-76835000D01*
X123021740Y-76275091D01*
X122704577Y-75800423D01*
X122229909Y-75483260D01*
X121811333Y-75400000D01*
X121528667Y-75400000D01*
X121110091Y-75483260D01*
X120635423Y-75800423D01*
X120400000Y-76152758D01*
X120164577Y-75800423D01*
X119689909Y-75483260D01*
X119271333Y-75400000D01*
X118988667Y-75400000D01*
X118570091Y-75483260D01*
X118095423Y-75800423D01*
X117860000Y-76152758D01*
X117624577Y-75800423D01*
X117149909Y-75483260D01*
X116731333Y-75400000D01*
X116448667Y-75400000D01*
X116030091Y-75483260D01*
X115555423Y-75800423D01*
X115320000Y-76152758D01*
X115084577Y-75800423D01*
X114609909Y-75483260D01*
X114191333Y-75400000D01*
X113908667Y-75400000D01*
X113490091Y-75483260D01*
X113015423Y-75800423D01*
X112780000Y-76152758D01*
X112544577Y-75800423D01*
X112069909Y-75483260D01*
X111651333Y-75400000D01*
X111368667Y-75400000D01*
X110950091Y-75483260D01*
X110475423Y-75800423D01*
X110240000Y-76152758D01*
X110004577Y-75800423D01*
X109529909Y-75483260D01*
X109111333Y-75400000D01*
X108828667Y-75400000D01*
X108410091Y-75483260D01*
X107935423Y-75800423D01*
X107700000Y-76152758D01*
X107464577Y-75800423D01*
X106989909Y-75483260D01*
X106571333Y-75400000D01*
X106288667Y-75400000D01*
X105870091Y-75483260D01*
X105395423Y-75800423D01*
X105160000Y-76152758D01*
X104924577Y-75800423D01*
X104449909Y-75483260D01*
X104031333Y-75400000D01*
X103748667Y-75400000D01*
X103330091Y-75483260D01*
X102855423Y-75800423D01*
X102538260Y-76275091D01*
X102426887Y-76835000D01*
X80575375Y-76835000D01*
X80575097Y-74860000D01*
X144242123Y-74860000D01*
X145485000Y-76102879D01*
G04 #@! TD*
M02*
