M48
INCH,TZ
T1C0.0236
T2C0.0315
T3C0.0394
T4C0.0630
%
G90
G05
T1
X47500Y-47250
X48500Y-47250
X49500Y-31900
X50000Y-46000
X50250Y-36150
X50500Y-32500
X51500Y-33050
X52500Y-33700
X53500Y-34450
X54500Y-35150
T2
X40902Y-30250
X41902Y-30250
X42500Y-49250
X42902Y-30250
X43500Y-49250
X43902Y-30250
X44500Y-49250
X44902Y-30250
X45500Y-49250
X45902Y-30250
X46500Y-49250
X46902Y-30250
X47500Y-49250
X47902Y-30250
X48500Y-49250
X49500Y-30250
X49500Y-49250
X50500Y-30250
X51500Y-30250
X51500Y-49250
X52500Y-30250
X52500Y-49250
X53500Y-30250
X53500Y-49250
X54500Y-30250
X54500Y-49250
X55500Y-30250
X55500Y-49250
X56500Y-30250
X56500Y-49250
T3
X57250Y-34979
X57250Y-35979
X57180Y-32260
X57180Y-33260
T4
X34960Y-48050
X37460Y-43300
X37460Y-46300
X38960Y-44800
X36600Y-34500
X38900Y-33000
X38900Y-34500
X38900Y-36000
T0
M30
