G04 #@! TF.GenerationSoftware,KiCad,Pcbnew,(5.0.1)-3*
G04 #@! TF.CreationDate,2018-11-30T15:10:40+02:00*
G04 #@! TF.ProjectId,DB darbas 2,44422064617262617320322E6B696361,rev?*
G04 #@! TF.SameCoordinates,Original*
G04 #@! TF.FileFunction,Copper,L2,Bot,Signal*
G04 #@! TF.FilePolarity,Positive*
%FSLAX46Y46*%
G04 Gerber Fmt 4.6, Leading zero omitted, Abs format (unit mm)*
G04 Created by KiCad (PCBNEW (5.0.1)-3) date 30-Nov-18 15:10:40*
%MOMM*%
%LPD*%
G01*
G04 APERTURE LIST*
G04 #@! TA.AperFunction,ComponentPad*
%ADD10O,1.600000X1.600000*%
G04 #@! TD*
G04 #@! TA.AperFunction,ComponentPad*
%ADD11R,1.600000X1.600000*%
G04 #@! TD*
G04 #@! TA.AperFunction,ComponentPad*
%ADD12C,3.000000*%
G04 #@! TD*
G04 #@! TA.AperFunction,ComponentPad*
%ADD13O,1.700000X1.700000*%
G04 #@! TD*
G04 #@! TA.AperFunction,ComponentPad*
%ADD14R,1.700000X1.700000*%
G04 #@! TD*
G04 #@! TA.AperFunction,ComponentPad*
%ADD15C,2.800000*%
G04 #@! TD*
G04 #@! TA.AperFunction,ViaPad*
%ADD16C,1.200000*%
G04 #@! TD*
G04 #@! TA.AperFunction,Conductor*
%ADD17C,0.500000*%
G04 #@! TD*
G04 #@! TA.AperFunction,Conductor*
%ADD18C,0.254000*%
G04 #@! TD*
G04 APERTURE END LIST*
D10*
G04 #@! TO.P,U1,29*
G04 #@! TO.N,Net-(U1-Pad29)*
X106684000Y-124968000D03*
G04 #@! TO.P,U1,30*
G04 #@! TO.N,Net-(U1-Pad30)*
X104144000Y-124968000D03*
D11*
G04 #@! TO.P,U1,1*
G04 #@! TO.N,Net-(U1-Pad1)*
X108204000Y-76708000D03*
D10*
G04 #@! TO.P,U1,17*
G04 #@! TO.N,Net-(J3-Pad2)*
X138684000Y-124968000D03*
G04 #@! TO.P,U1,2*
G04 #@! TO.N,Net-(U1-Pad2)*
X110744000Y-76708000D03*
G04 #@! TO.P,U1,18*
G04 #@! TO.N,Net-(J3-Pad3)*
X136144000Y-124968000D03*
G04 #@! TO.P,U1,3*
G04 #@! TO.N,Net-(U1-Pad3)*
X113284000Y-76708000D03*
G04 #@! TO.P,U1,19*
G04 #@! TO.N,Net-(J3-Pad1)*
X133604000Y-124968000D03*
G04 #@! TO.P,U1,4*
G04 #@! TO.N,Net-(U1-Pad4)*
X115824000Y-76708000D03*
G04 #@! TO.P,U1,20*
G04 #@! TO.N,Net-(J1-Pad1)*
X131064000Y-124968000D03*
G04 #@! TO.P,U1,5*
G04 #@! TO.N,Net-(U1-Pad5)*
X118364000Y-76708000D03*
G04 #@! TO.P,U1,21*
G04 #@! TO.N,Net-(J1-Pad3)*
X128524000Y-124968000D03*
G04 #@! TO.P,U1,6*
G04 #@! TO.N,GND*
X120904000Y-76708000D03*
G04 #@! TO.P,U1,22*
G04 #@! TO.N,Net-(J1-Pad2)*
X125984000Y-124968000D03*
G04 #@! TO.P,U1,7*
G04 #@! TO.N,GND*
X123444000Y-76708000D03*
G04 #@! TO.P,U1,23*
G04 #@! TO.N,Net-(R6-Pad2)*
X121924000Y-124968000D03*
G04 #@! TO.P,U1,8*
G04 #@! TO.N,Net-(D7-Pad2)*
X125984000Y-76708000D03*
G04 #@! TO.P,U1,24*
G04 #@! TO.N,Net-(R5-Pad2)*
X119384000Y-124968000D03*
G04 #@! TO.P,U1,9*
G04 #@! TO.N,Net-(U1-Pad9)*
X131064000Y-76708000D03*
G04 #@! TO.P,U1,25*
G04 #@! TO.N,Net-(R4-Pad2)*
X116844000Y-124968000D03*
G04 #@! TO.P,U1,10*
G04 #@! TO.N,Net-(U1-Pad10)*
X133604000Y-76708000D03*
G04 #@! TO.P,U1,26*
G04 #@! TO.N,Net-(R3-Pad2)*
X114304000Y-124968000D03*
G04 #@! TO.P,U1,11*
G04 #@! TO.N,Net-(U1-Pad11)*
X136144000Y-76708000D03*
G04 #@! TO.P,U1,27*
G04 #@! TO.N,Net-(R2-Pad2)*
X111764000Y-124968000D03*
G04 #@! TO.P,U1,12*
G04 #@! TO.N,Net-(U1-Pad12)*
X138684000Y-76708000D03*
G04 #@! TO.P,U1,28*
G04 #@! TO.N,Net-(R1-Pad1)*
X109224000Y-124968000D03*
G04 #@! TO.P,U1,13*
G04 #@! TO.N,Net-(U1-Pad13)*
X141224000Y-76708000D03*
G04 #@! TO.P,U1,14*
G04 #@! TO.N,Net-(U1-Pad14)*
X143764000Y-76708000D03*
G04 #@! TO.P,U1,15*
G04 #@! TO.N,Net-(U1-Pad15)*
X143764000Y-124968000D03*
G04 #@! TO.P,U1,16*
G04 #@! TO.N,Net-(U1-Pad16)*
X141224000Y-124968000D03*
G04 #@! TD*
D12*
G04 #@! TO.P,J3,G*
G04 #@! TO.N,GND*
X88900000Y-96418400D03*
G04 #@! TO.P,J3,3*
G04 #@! TO.N,Net-(J3-Pad3)*
X99060000Y-88163400D03*
G04 #@! TO.P,J3,2*
G04 #@! TO.N,Net-(J3-Pad2)*
X95250000Y-84353400D03*
G04 #@! TO.P,J3,1*
G04 #@! TO.N,Net-(J3-Pad1)*
X95250000Y-91973400D03*
G04 #@! TD*
D13*
G04 #@! TO.P,VCC1,2*
G04 #@! TO.N,GND*
X145415000Y-91387801D03*
D14*
G04 #@! TO.P,VCC1,1*
G04 #@! TO.N,Net-(Switch1-Pad1)*
X145415000Y-88847801D03*
G04 #@! TD*
G04 #@! TO.P,Switch1,1*
G04 #@! TO.N,Net-(Switch1-Pad1)*
X145237200Y-81940400D03*
D13*
G04 #@! TO.P,Switch1,2*
G04 #@! TO.N,Net-(D7-Pad1)*
X145237200Y-84480400D03*
G04 #@! TD*
D12*
G04 #@! TO.P,J1,G*
G04 #@! TO.N,GND*
X93116400Y-113792000D03*
D15*
G04 #@! TO.P,J1,3*
G04 #@! TO.N,Net-(J1-Pad3)*
X98958400Y-113792000D03*
G04 #@! TO.P,J1,1*
G04 #@! TO.N,Net-(J1-Pad1)*
X98958400Y-109982000D03*
G04 #@! TO.P,J1,2*
G04 #@! TO.N,Net-(J1-Pad2)*
X98958400Y-117602000D03*
G04 #@! TD*
D16*
G04 #@! TO.N,Net-(J1-Pad2)*
X125984000Y-123190000D03*
G04 #@! TO.N,Net-(J1-Pad3)*
X128498600Y-122326400D03*
G04 #@! TO.N,Net-(J1-Pad1)*
X131064000Y-121412000D03*
G04 #@! TO.N,GND*
X92100400Y-77266800D03*
X123494800Y-80467200D03*
X120853200Y-80467200D03*
G04 #@! TO.N,Net-(J3-Pad2)*
X139192000Y-118364000D03*
G04 #@! TO.N,Net-(J3-Pad3)*
X136144000Y-119380000D03*
G04 #@! TO.N,Net-(J3-Pad1)*
X133604000Y-120396000D03*
G04 #@! TD*
D17*
G04 #@! TO.N,Net-(J1-Pad2)*
X125958600Y-123164600D02*
X125984000Y-123190000D01*
X119989600Y-123164600D02*
X125958600Y-123164600D01*
X98958400Y-117602000D02*
X114427000Y-117602000D01*
X114427000Y-117602000D02*
X119989600Y-123164600D01*
G04 #@! TO.N,Net-(J1-Pad3)*
X121386600Y-122326400D02*
X128498600Y-122326400D01*
X112750600Y-113690400D02*
X121386600Y-122326400D01*
X110210600Y-113690400D02*
X110845600Y-113690400D01*
X110845600Y-113690400D02*
X111226600Y-113690400D01*
X101039898Y-113690400D02*
X112522000Y-113690400D01*
X100938298Y-113792000D02*
X101039898Y-113690400D01*
X98958400Y-113792000D02*
X100938298Y-113792000D01*
X111226600Y-113690400D02*
X112522000Y-113690400D01*
X112522000Y-113690400D02*
X112750600Y-113690400D01*
G04 #@! TO.N,Net-(J1-Pad1)*
X121920000Y-121412000D02*
X131064000Y-121412000D01*
X110490000Y-109982000D02*
X110896400Y-110388400D01*
X98958400Y-109982000D02*
X110490000Y-109982000D01*
X110744000Y-110236000D02*
X110896400Y-110388400D01*
X110896400Y-110388400D02*
X121920000Y-121412000D01*
G04 #@! TO.N,GND*
X92100400Y-77266800D02*
X92938600Y-77266800D01*
X92100400Y-77266800D02*
X94335600Y-77266800D01*
X120853200Y-76758800D02*
X120904000Y-76708000D01*
X120853200Y-80467200D02*
X120853200Y-76758800D01*
X123494800Y-76758800D02*
X123444000Y-76708000D01*
X123494800Y-80467200D02*
X123494800Y-76758800D01*
G04 #@! TO.N,Net-(J3-Pad2)*
X115316000Y-110236000D02*
X123190000Y-118110000D01*
X97396720Y-84328000D02*
X111252000Y-84328000D01*
X97371320Y-84353400D02*
X97396720Y-84328000D01*
X138938000Y-118110000D02*
X139192000Y-118364000D01*
X115316000Y-88392000D02*
X115316000Y-110236000D01*
X111252000Y-84328000D02*
X115316000Y-88392000D01*
X95250000Y-84353400D02*
X97371320Y-84353400D01*
X123190000Y-118110000D02*
X138938000Y-118110000D01*
G04 #@! TO.N,Net-(J3-Pad3)*
X135737600Y-118973600D02*
X136144000Y-119380000D01*
X122529600Y-118973600D02*
X135737600Y-118973600D01*
X113792000Y-110236000D02*
X122529600Y-118973600D01*
X113792000Y-91236800D02*
X113792000Y-110236000D01*
X99060000Y-88163400D02*
X110718600Y-88163400D01*
X110718600Y-88163400D02*
X113792000Y-91236800D01*
G04 #@! TO.N,Net-(J3-Pad1)*
X122428000Y-120396000D02*
X133604000Y-120396000D01*
X97371320Y-91973400D02*
X97396720Y-91948000D01*
X95250000Y-91973400D02*
X97371320Y-91973400D01*
X109575600Y-91948000D02*
X112268000Y-94640400D01*
X97396720Y-91948000D02*
X109575600Y-91948000D01*
X112268000Y-94640400D02*
X112268000Y-110236000D01*
X112268000Y-110236000D02*
X122428000Y-120396000D01*
G04 #@! TO.N,Net-(Switch1-Pad1)*
X142187801Y-88847801D02*
X145415000Y-88847801D01*
X141986000Y-88646000D02*
X142187801Y-88847801D01*
X142011400Y-82677000D02*
X142748000Y-81940400D01*
X141986000Y-82677000D02*
X142011400Y-82677000D01*
X145237200Y-81940400D02*
X142748000Y-81940400D01*
X141986000Y-82677000D02*
X141986000Y-88646000D01*
G04 #@! TD*
D18*
G04 #@! TO.N,GND*
G36*
X145739000Y-76639557D02*
X145725386Y-76708000D01*
X145739000Y-76776442D01*
X145739000Y-76776446D01*
X145779325Y-76979174D01*
X145932934Y-77209065D01*
X145990960Y-77247837D01*
X148279001Y-79535880D01*
X148279000Y-111730121D01*
X145990961Y-114018162D01*
X145932935Y-114056934D01*
X145894163Y-114114960D01*
X145894162Y-114114961D01*
X145779326Y-114286825D01*
X145725386Y-114558000D01*
X145739001Y-114626447D01*
X145739000Y-125700121D01*
X144496123Y-126943000D01*
X80829097Y-126943000D01*
X80830733Y-115305970D01*
X91782035Y-115305970D01*
X91941818Y-115624739D01*
X92732587Y-115934723D01*
X93581787Y-115918497D01*
X94290982Y-115624739D01*
X94450765Y-115305970D01*
X93116400Y-113971605D01*
X91782035Y-115305970D01*
X80830733Y-115305970D01*
X80831000Y-113408187D01*
X90973677Y-113408187D01*
X90989903Y-114257387D01*
X91283661Y-114966582D01*
X91602430Y-115126365D01*
X92936795Y-113792000D01*
X93296005Y-113792000D01*
X94630370Y-115126365D01*
X94949139Y-114966582D01*
X95259123Y-114175813D01*
X95242897Y-113326613D01*
X94949139Y-112617418D01*
X94630370Y-112457635D01*
X93296005Y-113792000D01*
X92936795Y-113792000D01*
X91602430Y-112457635D01*
X91283661Y-112617418D01*
X90973677Y-113408187D01*
X80831000Y-113408187D01*
X80831158Y-112278030D01*
X91782035Y-112278030D01*
X93116400Y-113612395D01*
X94450765Y-112278030D01*
X94290982Y-111959261D01*
X93500213Y-111649277D01*
X92651013Y-111665503D01*
X91941818Y-111959261D01*
X91782035Y-112278030D01*
X80831158Y-112278030D01*
X80831990Y-106367498D01*
X80832000Y-106367447D01*
X80832000Y-106294673D01*
X80832009Y-106230651D01*
X80832000Y-106230606D01*
X80832000Y-97932370D01*
X87565635Y-97932370D01*
X87725418Y-98251139D01*
X88516187Y-98561123D01*
X89365387Y-98544897D01*
X90074582Y-98251139D01*
X90234365Y-97932370D01*
X88900000Y-96598005D01*
X87565635Y-97932370D01*
X80832000Y-97932370D01*
X80832000Y-96034587D01*
X86757277Y-96034587D01*
X86773503Y-96883787D01*
X87067261Y-97592982D01*
X87386030Y-97752765D01*
X88720395Y-96418400D01*
X89079605Y-96418400D01*
X90413970Y-97752765D01*
X90732739Y-97592982D01*
X91042723Y-96802213D01*
X91026497Y-95953013D01*
X90732739Y-95243818D01*
X90413970Y-95084035D01*
X89079605Y-96418400D01*
X88720395Y-96418400D01*
X87386030Y-95084035D01*
X87067261Y-95243818D01*
X86757277Y-96034587D01*
X80832000Y-96034587D01*
X80832000Y-94904430D01*
X87565635Y-94904430D01*
X88900000Y-96238795D01*
X90234365Y-94904430D01*
X90074582Y-94585661D01*
X89283813Y-94275677D01*
X88434613Y-94291903D01*
X87725418Y-94585661D01*
X87565635Y-94904430D01*
X80832000Y-94904430D01*
X80832000Y-83928722D01*
X93115000Y-83928722D01*
X93115000Y-84778078D01*
X93440034Y-85562780D01*
X94040620Y-86163366D01*
X94825322Y-86488400D01*
X95674678Y-86488400D01*
X96459380Y-86163366D01*
X97059966Y-85562780D01*
X97194329Y-85238400D01*
X97284159Y-85238400D01*
X97371320Y-85255737D01*
X97458481Y-85238400D01*
X97458485Y-85238400D01*
X97586180Y-85213000D01*
X110885422Y-85213000D01*
X114431000Y-88758579D01*
X114431000Y-90600174D01*
X114430049Y-90598751D01*
X114356156Y-90549377D01*
X111406025Y-87599247D01*
X111356649Y-87525351D01*
X111063910Y-87329748D01*
X110805765Y-87278400D01*
X110805761Y-87278400D01*
X110718600Y-87261063D01*
X110631439Y-87278400D01*
X101004329Y-87278400D01*
X100869966Y-86954020D01*
X100269380Y-86353434D01*
X99484678Y-86028400D01*
X98635322Y-86028400D01*
X97850620Y-86353434D01*
X97250034Y-86954020D01*
X96925000Y-87738722D01*
X96925000Y-88588078D01*
X97250034Y-89372780D01*
X97850620Y-89973366D01*
X98635322Y-90298400D01*
X99484678Y-90298400D01*
X100269380Y-89973366D01*
X100869966Y-89372780D01*
X101004329Y-89048400D01*
X110352022Y-89048400D01*
X112907000Y-91603379D01*
X112907000Y-94003774D01*
X112906049Y-94002351D01*
X112832156Y-93952977D01*
X110263025Y-91383847D01*
X110213649Y-91309951D01*
X109920910Y-91114348D01*
X109662765Y-91063000D01*
X109662761Y-91063000D01*
X109575600Y-91045663D01*
X109488439Y-91063000D01*
X97483880Y-91063000D01*
X97396719Y-91045663D01*
X97309559Y-91063000D01*
X97309555Y-91063000D01*
X97193379Y-91086109D01*
X97059966Y-90764020D01*
X96459380Y-90163434D01*
X95674678Y-89838400D01*
X94825322Y-89838400D01*
X94040620Y-90163434D01*
X93440034Y-90764020D01*
X93115000Y-91548722D01*
X93115000Y-92398078D01*
X93440034Y-93182780D01*
X94040620Y-93783366D01*
X94825322Y-94108400D01*
X95674678Y-94108400D01*
X96459380Y-93783366D01*
X97059966Y-93182780D01*
X97194329Y-92858400D01*
X97284159Y-92858400D01*
X97371320Y-92875737D01*
X97458481Y-92858400D01*
X97458485Y-92858400D01*
X97586180Y-92833000D01*
X109209022Y-92833000D01*
X111383000Y-95006979D01*
X111383001Y-109623423D01*
X111177425Y-109417847D01*
X111128049Y-109343951D01*
X110835310Y-109148348D01*
X110577165Y-109097000D01*
X110577161Y-109097000D01*
X110490000Y-109079663D01*
X110402839Y-109097000D01*
X100794489Y-109097000D01*
X100683590Y-108829265D01*
X100111135Y-108256810D01*
X99363187Y-107947000D01*
X98553613Y-107947000D01*
X97805665Y-108256810D01*
X97233210Y-108829265D01*
X96923400Y-109577213D01*
X96923400Y-110386787D01*
X97233210Y-111134735D01*
X97805665Y-111707190D01*
X98239765Y-111887000D01*
X97805665Y-112066810D01*
X97233210Y-112639265D01*
X96923400Y-113387213D01*
X96923400Y-114196787D01*
X97233210Y-114944735D01*
X97805665Y-115517190D01*
X98239765Y-115697000D01*
X97805665Y-115876810D01*
X97233210Y-116449265D01*
X96923400Y-117197213D01*
X96923400Y-118006787D01*
X97233210Y-118754735D01*
X97805665Y-119327190D01*
X98553613Y-119637000D01*
X99363187Y-119637000D01*
X100111135Y-119327190D01*
X100683590Y-118754735D01*
X100794489Y-118487000D01*
X114060422Y-118487000D01*
X119129026Y-123555605D01*
X118824091Y-123616260D01*
X118349423Y-123933423D01*
X118114000Y-124285758D01*
X117878577Y-123933423D01*
X117403909Y-123616260D01*
X116985333Y-123533000D01*
X116702667Y-123533000D01*
X116284091Y-123616260D01*
X115809423Y-123933423D01*
X115574000Y-124285758D01*
X115338577Y-123933423D01*
X114863909Y-123616260D01*
X114445333Y-123533000D01*
X114162667Y-123533000D01*
X113744091Y-123616260D01*
X113269423Y-123933423D01*
X113034000Y-124285758D01*
X112798577Y-123933423D01*
X112323909Y-123616260D01*
X111905333Y-123533000D01*
X111622667Y-123533000D01*
X111204091Y-123616260D01*
X110729423Y-123933423D01*
X110494000Y-124285758D01*
X110258577Y-123933423D01*
X109783909Y-123616260D01*
X109365333Y-123533000D01*
X109082667Y-123533000D01*
X108664091Y-123616260D01*
X108189423Y-123933423D01*
X107954000Y-124285758D01*
X107718577Y-123933423D01*
X107243909Y-123616260D01*
X106825333Y-123533000D01*
X106542667Y-123533000D01*
X106124091Y-123616260D01*
X105649423Y-123933423D01*
X105414000Y-124285758D01*
X105178577Y-123933423D01*
X104703909Y-123616260D01*
X104285333Y-123533000D01*
X104002667Y-123533000D01*
X103584091Y-123616260D01*
X103109423Y-123933423D01*
X102792260Y-124408091D01*
X102680887Y-124968000D01*
X102792260Y-125527909D01*
X103109423Y-126002577D01*
X103584091Y-126319740D01*
X104002667Y-126403000D01*
X104285333Y-126403000D01*
X104703909Y-126319740D01*
X105178577Y-126002577D01*
X105414000Y-125650242D01*
X105649423Y-126002577D01*
X106124091Y-126319740D01*
X106542667Y-126403000D01*
X106825333Y-126403000D01*
X107243909Y-126319740D01*
X107718577Y-126002577D01*
X107954000Y-125650242D01*
X108189423Y-126002577D01*
X108664091Y-126319740D01*
X109082667Y-126403000D01*
X109365333Y-126403000D01*
X109783909Y-126319740D01*
X110258577Y-126002577D01*
X110494000Y-125650242D01*
X110729423Y-126002577D01*
X111204091Y-126319740D01*
X111622667Y-126403000D01*
X111905333Y-126403000D01*
X112323909Y-126319740D01*
X112798577Y-126002577D01*
X113034000Y-125650242D01*
X113269423Y-126002577D01*
X113744091Y-126319740D01*
X114162667Y-126403000D01*
X114445333Y-126403000D01*
X114863909Y-126319740D01*
X115338577Y-126002577D01*
X115574000Y-125650242D01*
X115809423Y-126002577D01*
X116284091Y-126319740D01*
X116702667Y-126403000D01*
X116985333Y-126403000D01*
X117403909Y-126319740D01*
X117878577Y-126002577D01*
X118114000Y-125650242D01*
X118349423Y-126002577D01*
X118824091Y-126319740D01*
X119242667Y-126403000D01*
X119525333Y-126403000D01*
X119943909Y-126319740D01*
X120418577Y-126002577D01*
X120654000Y-125650242D01*
X120889423Y-126002577D01*
X121364091Y-126319740D01*
X121782667Y-126403000D01*
X122065333Y-126403000D01*
X122483909Y-126319740D01*
X122958577Y-126002577D01*
X123275740Y-125527909D01*
X123387113Y-124968000D01*
X123275740Y-124408091D01*
X123036204Y-124049600D01*
X124871796Y-124049600D01*
X124632260Y-124408091D01*
X124520887Y-124968000D01*
X124632260Y-125527909D01*
X124949423Y-126002577D01*
X125424091Y-126319740D01*
X125842667Y-126403000D01*
X126125333Y-126403000D01*
X126543909Y-126319740D01*
X127018577Y-126002577D01*
X127254000Y-125650242D01*
X127489423Y-126002577D01*
X127964091Y-126319740D01*
X128382667Y-126403000D01*
X128665333Y-126403000D01*
X129083909Y-126319740D01*
X129558577Y-126002577D01*
X129794000Y-125650242D01*
X130029423Y-126002577D01*
X130504091Y-126319740D01*
X130922667Y-126403000D01*
X131205333Y-126403000D01*
X131623909Y-126319740D01*
X132098577Y-126002577D01*
X132334000Y-125650242D01*
X132569423Y-126002577D01*
X133044091Y-126319740D01*
X133462667Y-126403000D01*
X133745333Y-126403000D01*
X134163909Y-126319740D01*
X134638577Y-126002577D01*
X134874000Y-125650242D01*
X135109423Y-126002577D01*
X135584091Y-126319740D01*
X136002667Y-126403000D01*
X136285333Y-126403000D01*
X136703909Y-126319740D01*
X137178577Y-126002577D01*
X137414000Y-125650242D01*
X137649423Y-126002577D01*
X138124091Y-126319740D01*
X138542667Y-126403000D01*
X138825333Y-126403000D01*
X139243909Y-126319740D01*
X139718577Y-126002577D01*
X139954000Y-125650242D01*
X140189423Y-126002577D01*
X140664091Y-126319740D01*
X141082667Y-126403000D01*
X141365333Y-126403000D01*
X141783909Y-126319740D01*
X142258577Y-126002577D01*
X142494000Y-125650242D01*
X142729423Y-126002577D01*
X143204091Y-126319740D01*
X143622667Y-126403000D01*
X143905333Y-126403000D01*
X144323909Y-126319740D01*
X144798577Y-126002577D01*
X145115740Y-125527909D01*
X145227113Y-124968000D01*
X145115740Y-124408091D01*
X144798577Y-123933423D01*
X144323909Y-123616260D01*
X143905333Y-123533000D01*
X143622667Y-123533000D01*
X143204091Y-123616260D01*
X142729423Y-123933423D01*
X142494000Y-124285758D01*
X142258577Y-123933423D01*
X141783909Y-123616260D01*
X141365333Y-123533000D01*
X141082667Y-123533000D01*
X140664091Y-123616260D01*
X140189423Y-123933423D01*
X139954000Y-124285758D01*
X139718577Y-123933423D01*
X139243909Y-123616260D01*
X138825333Y-123533000D01*
X138542667Y-123533000D01*
X138124091Y-123616260D01*
X137649423Y-123933423D01*
X137414000Y-124285758D01*
X137178577Y-123933423D01*
X136703909Y-123616260D01*
X136285333Y-123533000D01*
X136002667Y-123533000D01*
X135584091Y-123616260D01*
X135109423Y-123933423D01*
X134874000Y-124285758D01*
X134638577Y-123933423D01*
X134163909Y-123616260D01*
X133745333Y-123533000D01*
X133462667Y-123533000D01*
X133044091Y-123616260D01*
X132569423Y-123933423D01*
X132334000Y-124285758D01*
X132098577Y-123933423D01*
X131623909Y-123616260D01*
X131205333Y-123533000D01*
X130922667Y-123533000D01*
X130504091Y-123616260D01*
X130029423Y-123933423D01*
X129794000Y-124285758D01*
X129558577Y-123933423D01*
X129083909Y-123616260D01*
X128764972Y-123552819D01*
X129198171Y-123373382D01*
X129545582Y-123025971D01*
X129733600Y-122572057D01*
X129733600Y-122297000D01*
X130202447Y-122297000D01*
X130364429Y-122458982D01*
X130818343Y-122647000D01*
X131309657Y-122647000D01*
X131763571Y-122458982D01*
X132110982Y-122111571D01*
X132299000Y-121657657D01*
X132299000Y-121281000D01*
X132742447Y-121281000D01*
X132904429Y-121442982D01*
X133358343Y-121631000D01*
X133849657Y-121631000D01*
X134303571Y-121442982D01*
X134650982Y-121095571D01*
X134839000Y-120641657D01*
X134839000Y-120150343D01*
X134718156Y-119858600D01*
X135005488Y-119858600D01*
X135097018Y-120079571D01*
X135444429Y-120426982D01*
X135898343Y-120615000D01*
X136389657Y-120615000D01*
X136843571Y-120426982D01*
X137190982Y-120079571D01*
X137379000Y-119625657D01*
X137379000Y-119134343D01*
X137321282Y-118995000D01*
X138116615Y-118995000D01*
X138145018Y-119063571D01*
X138492429Y-119410982D01*
X138946343Y-119599000D01*
X139437657Y-119599000D01*
X139891571Y-119410982D01*
X140238982Y-119063571D01*
X140427000Y-118609657D01*
X140427000Y-118118343D01*
X140238982Y-117664429D01*
X139891571Y-117317018D01*
X139437657Y-117129000D01*
X138946343Y-117129000D01*
X138714579Y-117225000D01*
X123556579Y-117225000D01*
X116201000Y-109869422D01*
X116201000Y-91744691D01*
X143973524Y-91744691D01*
X144143355Y-92154725D01*
X144533642Y-92582984D01*
X145058108Y-92829287D01*
X145288000Y-92708620D01*
X145288000Y-91514801D01*
X145542000Y-91514801D01*
X145542000Y-92708620D01*
X145771892Y-92829287D01*
X146296358Y-92582984D01*
X146686645Y-92154725D01*
X146856476Y-91744691D01*
X146735155Y-91514801D01*
X145542000Y-91514801D01*
X145288000Y-91514801D01*
X144094845Y-91514801D01*
X143973524Y-91744691D01*
X116201000Y-91744691D01*
X116201000Y-88479161D01*
X116218337Y-88392000D01*
X116201000Y-88304839D01*
X116201000Y-88304835D01*
X116149652Y-88046690D01*
X115954049Y-87753951D01*
X115880156Y-87704577D01*
X111939425Y-83763847D01*
X111890049Y-83689951D01*
X111597310Y-83494348D01*
X111339165Y-83443000D01*
X111339161Y-83443000D01*
X111252000Y-83425663D01*
X111164839Y-83443000D01*
X97483880Y-83443000D01*
X97396719Y-83425663D01*
X97309559Y-83443000D01*
X97309555Y-83443000D01*
X97193379Y-83466109D01*
X97059966Y-83144020D01*
X96592946Y-82677000D01*
X141083662Y-82677000D01*
X141101000Y-82764165D01*
X141101001Y-88558835D01*
X141083663Y-88646000D01*
X141152348Y-88991309D01*
X141298576Y-89210154D01*
X141298578Y-89210156D01*
X141347952Y-89284049D01*
X141421845Y-89333423D01*
X141500376Y-89411954D01*
X141549752Y-89485850D01*
X141842491Y-89681453D01*
X142100636Y-89732801D01*
X142100640Y-89732801D01*
X142187801Y-89750138D01*
X142274962Y-89732801D01*
X143924522Y-89732801D01*
X143966843Y-89945566D01*
X144107191Y-90155610D01*
X144317235Y-90295958D01*
X144420708Y-90316540D01*
X144143355Y-90620877D01*
X143973524Y-91030911D01*
X144094845Y-91260801D01*
X145288000Y-91260801D01*
X145288000Y-91240801D01*
X145542000Y-91240801D01*
X145542000Y-91260801D01*
X146735155Y-91260801D01*
X146856476Y-91030911D01*
X146686645Y-90620877D01*
X146409292Y-90316540D01*
X146512765Y-90295958D01*
X146722809Y-90155610D01*
X146863157Y-89945566D01*
X146912440Y-89697801D01*
X146912440Y-87997801D01*
X146863157Y-87750036D01*
X146722809Y-87539992D01*
X146512765Y-87399644D01*
X146265000Y-87350361D01*
X144565000Y-87350361D01*
X144317235Y-87399644D01*
X144107191Y-87539992D01*
X143966843Y-87750036D01*
X143924522Y-87962801D01*
X142871000Y-87962801D01*
X142871000Y-83068978D01*
X143114579Y-82825400D01*
X143746722Y-82825400D01*
X143789043Y-83038165D01*
X143929391Y-83248209D01*
X144139435Y-83388557D01*
X144184819Y-83397584D01*
X144166575Y-83409775D01*
X143838361Y-83900982D01*
X143723108Y-84480400D01*
X143838361Y-85059818D01*
X144166575Y-85551025D01*
X144657782Y-85879239D01*
X145090944Y-85965400D01*
X145383456Y-85965400D01*
X145816618Y-85879239D01*
X146307825Y-85551025D01*
X146636039Y-85059818D01*
X146751292Y-84480400D01*
X146636039Y-83900982D01*
X146307825Y-83409775D01*
X146289581Y-83397584D01*
X146334965Y-83388557D01*
X146545009Y-83248209D01*
X146685357Y-83038165D01*
X146734640Y-82790400D01*
X146734640Y-81090400D01*
X146685357Y-80842635D01*
X146545009Y-80632591D01*
X146334965Y-80492243D01*
X146087200Y-80442960D01*
X144387200Y-80442960D01*
X144139435Y-80492243D01*
X143929391Y-80632591D01*
X143789043Y-80842635D01*
X143746722Y-81055400D01*
X142835161Y-81055400D01*
X142748000Y-81038063D01*
X142660839Y-81055400D01*
X142660835Y-81055400D01*
X142402690Y-81106748D01*
X142183845Y-81252976D01*
X142183844Y-81252977D01*
X142109951Y-81302351D01*
X142060577Y-81376244D01*
X141498394Y-81938427D01*
X141347951Y-82038951D01*
X141152348Y-82331690D01*
X141083662Y-82677000D01*
X96592946Y-82677000D01*
X96459380Y-82543434D01*
X95674678Y-82218400D01*
X94825322Y-82218400D01*
X94040620Y-82543434D01*
X93440034Y-83144020D01*
X93115000Y-83928722D01*
X80832000Y-83928722D01*
X80832000Y-77284113D01*
X80832064Y-77283790D01*
X80832000Y-77215988D01*
X80832000Y-77147553D01*
X80831935Y-77147227D01*
X80830766Y-75908000D01*
X106756560Y-75908000D01*
X106756560Y-77508000D01*
X106805843Y-77755765D01*
X106946191Y-77965809D01*
X107156235Y-78106157D01*
X107404000Y-78155440D01*
X109004000Y-78155440D01*
X109251765Y-78106157D01*
X109461809Y-77965809D01*
X109602157Y-77755765D01*
X109628785Y-77621894D01*
X109709423Y-77742577D01*
X110184091Y-78059740D01*
X110602667Y-78143000D01*
X110885333Y-78143000D01*
X111303909Y-78059740D01*
X111778577Y-77742577D01*
X112014000Y-77390242D01*
X112249423Y-77742577D01*
X112724091Y-78059740D01*
X113142667Y-78143000D01*
X113425333Y-78143000D01*
X113843909Y-78059740D01*
X114318577Y-77742577D01*
X114554000Y-77390242D01*
X114789423Y-77742577D01*
X115264091Y-78059740D01*
X115682667Y-78143000D01*
X115965333Y-78143000D01*
X116383909Y-78059740D01*
X116858577Y-77742577D01*
X117094000Y-77390242D01*
X117329423Y-77742577D01*
X117804091Y-78059740D01*
X118222667Y-78143000D01*
X118505333Y-78143000D01*
X118923909Y-78059740D01*
X119398577Y-77742577D01*
X119654947Y-77358892D01*
X119751611Y-77563134D01*
X120166577Y-77939041D01*
X120554961Y-78099904D01*
X120777000Y-77977915D01*
X120777000Y-76835000D01*
X121031000Y-76835000D01*
X121031000Y-77977915D01*
X121253039Y-78099904D01*
X121641423Y-77939041D01*
X122056389Y-77563134D01*
X122174000Y-77314633D01*
X122291611Y-77563134D01*
X122706577Y-77939041D01*
X123094961Y-78099904D01*
X123317000Y-77977915D01*
X123317000Y-76835000D01*
X121031000Y-76835000D01*
X120777000Y-76835000D01*
X120757000Y-76835000D01*
X120757000Y-76581000D01*
X120777000Y-76581000D01*
X120777000Y-75438085D01*
X121031000Y-75438085D01*
X121031000Y-76581000D01*
X123317000Y-76581000D01*
X123317000Y-75438085D01*
X123571000Y-75438085D01*
X123571000Y-76581000D01*
X123591000Y-76581000D01*
X123591000Y-76835000D01*
X123571000Y-76835000D01*
X123571000Y-77977915D01*
X123793039Y-78099904D01*
X124181423Y-77939041D01*
X124596389Y-77563134D01*
X124693053Y-77358892D01*
X124949423Y-77742577D01*
X125424091Y-78059740D01*
X125842667Y-78143000D01*
X126125333Y-78143000D01*
X126543909Y-78059740D01*
X127018577Y-77742577D01*
X127335740Y-77267909D01*
X127447113Y-76708000D01*
X129600887Y-76708000D01*
X129712260Y-77267909D01*
X130029423Y-77742577D01*
X130504091Y-78059740D01*
X130922667Y-78143000D01*
X131205333Y-78143000D01*
X131623909Y-78059740D01*
X132098577Y-77742577D01*
X132334000Y-77390242D01*
X132569423Y-77742577D01*
X133044091Y-78059740D01*
X133462667Y-78143000D01*
X133745333Y-78143000D01*
X134163909Y-78059740D01*
X134638577Y-77742577D01*
X134874000Y-77390242D01*
X135109423Y-77742577D01*
X135584091Y-78059740D01*
X136002667Y-78143000D01*
X136285333Y-78143000D01*
X136703909Y-78059740D01*
X137178577Y-77742577D01*
X137414000Y-77390242D01*
X137649423Y-77742577D01*
X138124091Y-78059740D01*
X138542667Y-78143000D01*
X138825333Y-78143000D01*
X139243909Y-78059740D01*
X139718577Y-77742577D01*
X139954000Y-77390242D01*
X140189423Y-77742577D01*
X140664091Y-78059740D01*
X141082667Y-78143000D01*
X141365333Y-78143000D01*
X141783909Y-78059740D01*
X142258577Y-77742577D01*
X142494000Y-77390242D01*
X142729423Y-77742577D01*
X143204091Y-78059740D01*
X143622667Y-78143000D01*
X143905333Y-78143000D01*
X144323909Y-78059740D01*
X144798577Y-77742577D01*
X145115740Y-77267909D01*
X145227113Y-76708000D01*
X145115740Y-76148091D01*
X144798577Y-75673423D01*
X144323909Y-75356260D01*
X143905333Y-75273000D01*
X143622667Y-75273000D01*
X143204091Y-75356260D01*
X142729423Y-75673423D01*
X142494000Y-76025758D01*
X142258577Y-75673423D01*
X141783909Y-75356260D01*
X141365333Y-75273000D01*
X141082667Y-75273000D01*
X140664091Y-75356260D01*
X140189423Y-75673423D01*
X139954000Y-76025758D01*
X139718577Y-75673423D01*
X139243909Y-75356260D01*
X138825333Y-75273000D01*
X138542667Y-75273000D01*
X138124091Y-75356260D01*
X137649423Y-75673423D01*
X137414000Y-76025758D01*
X137178577Y-75673423D01*
X136703909Y-75356260D01*
X136285333Y-75273000D01*
X136002667Y-75273000D01*
X135584091Y-75356260D01*
X135109423Y-75673423D01*
X134874000Y-76025758D01*
X134638577Y-75673423D01*
X134163909Y-75356260D01*
X133745333Y-75273000D01*
X133462667Y-75273000D01*
X133044091Y-75356260D01*
X132569423Y-75673423D01*
X132334000Y-76025758D01*
X132098577Y-75673423D01*
X131623909Y-75356260D01*
X131205333Y-75273000D01*
X130922667Y-75273000D01*
X130504091Y-75356260D01*
X130029423Y-75673423D01*
X129712260Y-76148091D01*
X129600887Y-76708000D01*
X127447113Y-76708000D01*
X127335740Y-76148091D01*
X127018577Y-75673423D01*
X126543909Y-75356260D01*
X126125333Y-75273000D01*
X125842667Y-75273000D01*
X125424091Y-75356260D01*
X124949423Y-75673423D01*
X124693053Y-76057108D01*
X124596389Y-75852866D01*
X124181423Y-75476959D01*
X123793039Y-75316096D01*
X123571000Y-75438085D01*
X123317000Y-75438085D01*
X123094961Y-75316096D01*
X122706577Y-75476959D01*
X122291611Y-75852866D01*
X122174000Y-76101367D01*
X122056389Y-75852866D01*
X121641423Y-75476959D01*
X121253039Y-75316096D01*
X121031000Y-75438085D01*
X120777000Y-75438085D01*
X120554961Y-75316096D01*
X120166577Y-75476959D01*
X119751611Y-75852866D01*
X119654947Y-76057108D01*
X119398577Y-75673423D01*
X118923909Y-75356260D01*
X118505333Y-75273000D01*
X118222667Y-75273000D01*
X117804091Y-75356260D01*
X117329423Y-75673423D01*
X117094000Y-76025758D01*
X116858577Y-75673423D01*
X116383909Y-75356260D01*
X115965333Y-75273000D01*
X115682667Y-75273000D01*
X115264091Y-75356260D01*
X114789423Y-75673423D01*
X114554000Y-76025758D01*
X114318577Y-75673423D01*
X113843909Y-75356260D01*
X113425333Y-75273000D01*
X113142667Y-75273000D01*
X112724091Y-75356260D01*
X112249423Y-75673423D01*
X112014000Y-76025758D01*
X111778577Y-75673423D01*
X111303909Y-75356260D01*
X110885333Y-75273000D01*
X110602667Y-75273000D01*
X110184091Y-75356260D01*
X109709423Y-75673423D01*
X109628785Y-75794106D01*
X109602157Y-75660235D01*
X109461809Y-75450191D01*
X109251765Y-75309843D01*
X109004000Y-75260560D01*
X107404000Y-75260560D01*
X107156235Y-75309843D01*
X106946191Y-75450191D01*
X106805843Y-75660235D01*
X106756560Y-75908000D01*
X80830766Y-75908000D01*
X80829656Y-74733000D01*
X145739001Y-74733000D01*
X145739000Y-76639557D01*
X145739000Y-76639557D01*
G37*
X145739000Y-76639557D02*
X145725386Y-76708000D01*
X145739000Y-76776442D01*
X145739000Y-76776446D01*
X145779325Y-76979174D01*
X145932934Y-77209065D01*
X145990960Y-77247837D01*
X148279001Y-79535880D01*
X148279000Y-111730121D01*
X145990961Y-114018162D01*
X145932935Y-114056934D01*
X145894163Y-114114960D01*
X145894162Y-114114961D01*
X145779326Y-114286825D01*
X145725386Y-114558000D01*
X145739001Y-114626447D01*
X145739000Y-125700121D01*
X144496123Y-126943000D01*
X80829097Y-126943000D01*
X80830733Y-115305970D01*
X91782035Y-115305970D01*
X91941818Y-115624739D01*
X92732587Y-115934723D01*
X93581787Y-115918497D01*
X94290982Y-115624739D01*
X94450765Y-115305970D01*
X93116400Y-113971605D01*
X91782035Y-115305970D01*
X80830733Y-115305970D01*
X80831000Y-113408187D01*
X90973677Y-113408187D01*
X90989903Y-114257387D01*
X91283661Y-114966582D01*
X91602430Y-115126365D01*
X92936795Y-113792000D01*
X93296005Y-113792000D01*
X94630370Y-115126365D01*
X94949139Y-114966582D01*
X95259123Y-114175813D01*
X95242897Y-113326613D01*
X94949139Y-112617418D01*
X94630370Y-112457635D01*
X93296005Y-113792000D01*
X92936795Y-113792000D01*
X91602430Y-112457635D01*
X91283661Y-112617418D01*
X90973677Y-113408187D01*
X80831000Y-113408187D01*
X80831158Y-112278030D01*
X91782035Y-112278030D01*
X93116400Y-113612395D01*
X94450765Y-112278030D01*
X94290982Y-111959261D01*
X93500213Y-111649277D01*
X92651013Y-111665503D01*
X91941818Y-111959261D01*
X91782035Y-112278030D01*
X80831158Y-112278030D01*
X80831990Y-106367498D01*
X80832000Y-106367447D01*
X80832000Y-106294673D01*
X80832009Y-106230651D01*
X80832000Y-106230606D01*
X80832000Y-97932370D01*
X87565635Y-97932370D01*
X87725418Y-98251139D01*
X88516187Y-98561123D01*
X89365387Y-98544897D01*
X90074582Y-98251139D01*
X90234365Y-97932370D01*
X88900000Y-96598005D01*
X87565635Y-97932370D01*
X80832000Y-97932370D01*
X80832000Y-96034587D01*
X86757277Y-96034587D01*
X86773503Y-96883787D01*
X87067261Y-97592982D01*
X87386030Y-97752765D01*
X88720395Y-96418400D01*
X89079605Y-96418400D01*
X90413970Y-97752765D01*
X90732739Y-97592982D01*
X91042723Y-96802213D01*
X91026497Y-95953013D01*
X90732739Y-95243818D01*
X90413970Y-95084035D01*
X89079605Y-96418400D01*
X88720395Y-96418400D01*
X87386030Y-95084035D01*
X87067261Y-95243818D01*
X86757277Y-96034587D01*
X80832000Y-96034587D01*
X80832000Y-94904430D01*
X87565635Y-94904430D01*
X88900000Y-96238795D01*
X90234365Y-94904430D01*
X90074582Y-94585661D01*
X89283813Y-94275677D01*
X88434613Y-94291903D01*
X87725418Y-94585661D01*
X87565635Y-94904430D01*
X80832000Y-94904430D01*
X80832000Y-83928722D01*
X93115000Y-83928722D01*
X93115000Y-84778078D01*
X93440034Y-85562780D01*
X94040620Y-86163366D01*
X94825322Y-86488400D01*
X95674678Y-86488400D01*
X96459380Y-86163366D01*
X97059966Y-85562780D01*
X97194329Y-85238400D01*
X97284159Y-85238400D01*
X97371320Y-85255737D01*
X97458481Y-85238400D01*
X97458485Y-85238400D01*
X97586180Y-85213000D01*
X110885422Y-85213000D01*
X114431000Y-88758579D01*
X114431000Y-90600174D01*
X114430049Y-90598751D01*
X114356156Y-90549377D01*
X111406025Y-87599247D01*
X111356649Y-87525351D01*
X111063910Y-87329748D01*
X110805765Y-87278400D01*
X110805761Y-87278400D01*
X110718600Y-87261063D01*
X110631439Y-87278400D01*
X101004329Y-87278400D01*
X100869966Y-86954020D01*
X100269380Y-86353434D01*
X99484678Y-86028400D01*
X98635322Y-86028400D01*
X97850620Y-86353434D01*
X97250034Y-86954020D01*
X96925000Y-87738722D01*
X96925000Y-88588078D01*
X97250034Y-89372780D01*
X97850620Y-89973366D01*
X98635322Y-90298400D01*
X99484678Y-90298400D01*
X100269380Y-89973366D01*
X100869966Y-89372780D01*
X101004329Y-89048400D01*
X110352022Y-89048400D01*
X112907000Y-91603379D01*
X112907000Y-94003774D01*
X112906049Y-94002351D01*
X112832156Y-93952977D01*
X110263025Y-91383847D01*
X110213649Y-91309951D01*
X109920910Y-91114348D01*
X109662765Y-91063000D01*
X109662761Y-91063000D01*
X109575600Y-91045663D01*
X109488439Y-91063000D01*
X97483880Y-91063000D01*
X97396719Y-91045663D01*
X97309559Y-91063000D01*
X97309555Y-91063000D01*
X97193379Y-91086109D01*
X97059966Y-90764020D01*
X96459380Y-90163434D01*
X95674678Y-89838400D01*
X94825322Y-89838400D01*
X94040620Y-90163434D01*
X93440034Y-90764020D01*
X93115000Y-91548722D01*
X93115000Y-92398078D01*
X93440034Y-93182780D01*
X94040620Y-93783366D01*
X94825322Y-94108400D01*
X95674678Y-94108400D01*
X96459380Y-93783366D01*
X97059966Y-93182780D01*
X97194329Y-92858400D01*
X97284159Y-92858400D01*
X97371320Y-92875737D01*
X97458481Y-92858400D01*
X97458485Y-92858400D01*
X97586180Y-92833000D01*
X109209022Y-92833000D01*
X111383000Y-95006979D01*
X111383001Y-109623423D01*
X111177425Y-109417847D01*
X111128049Y-109343951D01*
X110835310Y-109148348D01*
X110577165Y-109097000D01*
X110577161Y-109097000D01*
X110490000Y-109079663D01*
X110402839Y-109097000D01*
X100794489Y-109097000D01*
X100683590Y-108829265D01*
X100111135Y-108256810D01*
X99363187Y-107947000D01*
X98553613Y-107947000D01*
X97805665Y-108256810D01*
X97233210Y-108829265D01*
X96923400Y-109577213D01*
X96923400Y-110386787D01*
X97233210Y-111134735D01*
X97805665Y-111707190D01*
X98239765Y-111887000D01*
X97805665Y-112066810D01*
X97233210Y-112639265D01*
X96923400Y-113387213D01*
X96923400Y-114196787D01*
X97233210Y-114944735D01*
X97805665Y-115517190D01*
X98239765Y-115697000D01*
X97805665Y-115876810D01*
X97233210Y-116449265D01*
X96923400Y-117197213D01*
X96923400Y-118006787D01*
X97233210Y-118754735D01*
X97805665Y-119327190D01*
X98553613Y-119637000D01*
X99363187Y-119637000D01*
X100111135Y-119327190D01*
X100683590Y-118754735D01*
X100794489Y-118487000D01*
X114060422Y-118487000D01*
X119129026Y-123555605D01*
X118824091Y-123616260D01*
X118349423Y-123933423D01*
X118114000Y-124285758D01*
X117878577Y-123933423D01*
X117403909Y-123616260D01*
X116985333Y-123533000D01*
X116702667Y-123533000D01*
X116284091Y-123616260D01*
X115809423Y-123933423D01*
X115574000Y-124285758D01*
X115338577Y-123933423D01*
X114863909Y-123616260D01*
X114445333Y-123533000D01*
X114162667Y-123533000D01*
X113744091Y-123616260D01*
X113269423Y-123933423D01*
X113034000Y-124285758D01*
X112798577Y-123933423D01*
X112323909Y-123616260D01*
X111905333Y-123533000D01*
X111622667Y-123533000D01*
X111204091Y-123616260D01*
X110729423Y-123933423D01*
X110494000Y-124285758D01*
X110258577Y-123933423D01*
X109783909Y-123616260D01*
X109365333Y-123533000D01*
X109082667Y-123533000D01*
X108664091Y-123616260D01*
X108189423Y-123933423D01*
X107954000Y-124285758D01*
X107718577Y-123933423D01*
X107243909Y-123616260D01*
X106825333Y-123533000D01*
X106542667Y-123533000D01*
X106124091Y-123616260D01*
X105649423Y-123933423D01*
X105414000Y-124285758D01*
X105178577Y-123933423D01*
X104703909Y-123616260D01*
X104285333Y-123533000D01*
X104002667Y-123533000D01*
X103584091Y-123616260D01*
X103109423Y-123933423D01*
X102792260Y-124408091D01*
X102680887Y-124968000D01*
X102792260Y-125527909D01*
X103109423Y-126002577D01*
X103584091Y-126319740D01*
X104002667Y-126403000D01*
X104285333Y-126403000D01*
X104703909Y-126319740D01*
X105178577Y-126002577D01*
X105414000Y-125650242D01*
X105649423Y-126002577D01*
X106124091Y-126319740D01*
X106542667Y-126403000D01*
X106825333Y-126403000D01*
X107243909Y-126319740D01*
X107718577Y-126002577D01*
X107954000Y-125650242D01*
X108189423Y-126002577D01*
X108664091Y-126319740D01*
X109082667Y-126403000D01*
X109365333Y-126403000D01*
X109783909Y-126319740D01*
X110258577Y-126002577D01*
X110494000Y-125650242D01*
X110729423Y-126002577D01*
X111204091Y-126319740D01*
X111622667Y-126403000D01*
X111905333Y-126403000D01*
X112323909Y-126319740D01*
X112798577Y-126002577D01*
X113034000Y-125650242D01*
X113269423Y-126002577D01*
X113744091Y-126319740D01*
X114162667Y-126403000D01*
X114445333Y-126403000D01*
X114863909Y-126319740D01*
X115338577Y-126002577D01*
X115574000Y-125650242D01*
X115809423Y-126002577D01*
X116284091Y-126319740D01*
X116702667Y-126403000D01*
X116985333Y-126403000D01*
X117403909Y-126319740D01*
X117878577Y-126002577D01*
X118114000Y-125650242D01*
X118349423Y-126002577D01*
X118824091Y-126319740D01*
X119242667Y-126403000D01*
X119525333Y-126403000D01*
X119943909Y-126319740D01*
X120418577Y-126002577D01*
X120654000Y-125650242D01*
X120889423Y-126002577D01*
X121364091Y-126319740D01*
X121782667Y-126403000D01*
X122065333Y-126403000D01*
X122483909Y-126319740D01*
X122958577Y-126002577D01*
X123275740Y-125527909D01*
X123387113Y-124968000D01*
X123275740Y-124408091D01*
X123036204Y-124049600D01*
X124871796Y-124049600D01*
X124632260Y-124408091D01*
X124520887Y-124968000D01*
X124632260Y-125527909D01*
X124949423Y-126002577D01*
X125424091Y-126319740D01*
X125842667Y-126403000D01*
X126125333Y-126403000D01*
X126543909Y-126319740D01*
X127018577Y-126002577D01*
X127254000Y-125650242D01*
X127489423Y-126002577D01*
X127964091Y-126319740D01*
X128382667Y-126403000D01*
X128665333Y-126403000D01*
X129083909Y-126319740D01*
X129558577Y-126002577D01*
X129794000Y-125650242D01*
X130029423Y-126002577D01*
X130504091Y-126319740D01*
X130922667Y-126403000D01*
X131205333Y-126403000D01*
X131623909Y-126319740D01*
X132098577Y-126002577D01*
X132334000Y-125650242D01*
X132569423Y-126002577D01*
X133044091Y-126319740D01*
X133462667Y-126403000D01*
X133745333Y-126403000D01*
X134163909Y-126319740D01*
X134638577Y-126002577D01*
X134874000Y-125650242D01*
X135109423Y-126002577D01*
X135584091Y-126319740D01*
X136002667Y-126403000D01*
X136285333Y-126403000D01*
X136703909Y-126319740D01*
X137178577Y-126002577D01*
X137414000Y-125650242D01*
X137649423Y-126002577D01*
X138124091Y-126319740D01*
X138542667Y-126403000D01*
X138825333Y-126403000D01*
X139243909Y-126319740D01*
X139718577Y-126002577D01*
X139954000Y-125650242D01*
X140189423Y-126002577D01*
X140664091Y-126319740D01*
X141082667Y-126403000D01*
X141365333Y-126403000D01*
X141783909Y-126319740D01*
X142258577Y-126002577D01*
X142494000Y-125650242D01*
X142729423Y-126002577D01*
X143204091Y-126319740D01*
X143622667Y-126403000D01*
X143905333Y-126403000D01*
X144323909Y-126319740D01*
X144798577Y-126002577D01*
X145115740Y-125527909D01*
X145227113Y-124968000D01*
X145115740Y-124408091D01*
X144798577Y-123933423D01*
X144323909Y-123616260D01*
X143905333Y-123533000D01*
X143622667Y-123533000D01*
X143204091Y-123616260D01*
X142729423Y-123933423D01*
X142494000Y-124285758D01*
X142258577Y-123933423D01*
X141783909Y-123616260D01*
X141365333Y-123533000D01*
X141082667Y-123533000D01*
X140664091Y-123616260D01*
X140189423Y-123933423D01*
X139954000Y-124285758D01*
X139718577Y-123933423D01*
X139243909Y-123616260D01*
X138825333Y-123533000D01*
X138542667Y-123533000D01*
X138124091Y-123616260D01*
X137649423Y-123933423D01*
X137414000Y-124285758D01*
X137178577Y-123933423D01*
X136703909Y-123616260D01*
X136285333Y-123533000D01*
X136002667Y-123533000D01*
X135584091Y-123616260D01*
X135109423Y-123933423D01*
X134874000Y-124285758D01*
X134638577Y-123933423D01*
X134163909Y-123616260D01*
X133745333Y-123533000D01*
X133462667Y-123533000D01*
X133044091Y-123616260D01*
X132569423Y-123933423D01*
X132334000Y-124285758D01*
X132098577Y-123933423D01*
X131623909Y-123616260D01*
X131205333Y-123533000D01*
X130922667Y-123533000D01*
X130504091Y-123616260D01*
X130029423Y-123933423D01*
X129794000Y-124285758D01*
X129558577Y-123933423D01*
X129083909Y-123616260D01*
X128764972Y-123552819D01*
X129198171Y-123373382D01*
X129545582Y-123025971D01*
X129733600Y-122572057D01*
X129733600Y-122297000D01*
X130202447Y-122297000D01*
X130364429Y-122458982D01*
X130818343Y-122647000D01*
X131309657Y-122647000D01*
X131763571Y-122458982D01*
X132110982Y-122111571D01*
X132299000Y-121657657D01*
X132299000Y-121281000D01*
X132742447Y-121281000D01*
X132904429Y-121442982D01*
X133358343Y-121631000D01*
X133849657Y-121631000D01*
X134303571Y-121442982D01*
X134650982Y-121095571D01*
X134839000Y-120641657D01*
X134839000Y-120150343D01*
X134718156Y-119858600D01*
X135005488Y-119858600D01*
X135097018Y-120079571D01*
X135444429Y-120426982D01*
X135898343Y-120615000D01*
X136389657Y-120615000D01*
X136843571Y-120426982D01*
X137190982Y-120079571D01*
X137379000Y-119625657D01*
X137379000Y-119134343D01*
X137321282Y-118995000D01*
X138116615Y-118995000D01*
X138145018Y-119063571D01*
X138492429Y-119410982D01*
X138946343Y-119599000D01*
X139437657Y-119599000D01*
X139891571Y-119410982D01*
X140238982Y-119063571D01*
X140427000Y-118609657D01*
X140427000Y-118118343D01*
X140238982Y-117664429D01*
X139891571Y-117317018D01*
X139437657Y-117129000D01*
X138946343Y-117129000D01*
X138714579Y-117225000D01*
X123556579Y-117225000D01*
X116201000Y-109869422D01*
X116201000Y-91744691D01*
X143973524Y-91744691D01*
X144143355Y-92154725D01*
X144533642Y-92582984D01*
X145058108Y-92829287D01*
X145288000Y-92708620D01*
X145288000Y-91514801D01*
X145542000Y-91514801D01*
X145542000Y-92708620D01*
X145771892Y-92829287D01*
X146296358Y-92582984D01*
X146686645Y-92154725D01*
X146856476Y-91744691D01*
X146735155Y-91514801D01*
X145542000Y-91514801D01*
X145288000Y-91514801D01*
X144094845Y-91514801D01*
X143973524Y-91744691D01*
X116201000Y-91744691D01*
X116201000Y-88479161D01*
X116218337Y-88392000D01*
X116201000Y-88304839D01*
X116201000Y-88304835D01*
X116149652Y-88046690D01*
X115954049Y-87753951D01*
X115880156Y-87704577D01*
X111939425Y-83763847D01*
X111890049Y-83689951D01*
X111597310Y-83494348D01*
X111339165Y-83443000D01*
X111339161Y-83443000D01*
X111252000Y-83425663D01*
X111164839Y-83443000D01*
X97483880Y-83443000D01*
X97396719Y-83425663D01*
X97309559Y-83443000D01*
X97309555Y-83443000D01*
X97193379Y-83466109D01*
X97059966Y-83144020D01*
X96592946Y-82677000D01*
X141083662Y-82677000D01*
X141101000Y-82764165D01*
X141101001Y-88558835D01*
X141083663Y-88646000D01*
X141152348Y-88991309D01*
X141298576Y-89210154D01*
X141298578Y-89210156D01*
X141347952Y-89284049D01*
X141421845Y-89333423D01*
X141500376Y-89411954D01*
X141549752Y-89485850D01*
X141842491Y-89681453D01*
X142100636Y-89732801D01*
X142100640Y-89732801D01*
X142187801Y-89750138D01*
X142274962Y-89732801D01*
X143924522Y-89732801D01*
X143966843Y-89945566D01*
X144107191Y-90155610D01*
X144317235Y-90295958D01*
X144420708Y-90316540D01*
X144143355Y-90620877D01*
X143973524Y-91030911D01*
X144094845Y-91260801D01*
X145288000Y-91260801D01*
X145288000Y-91240801D01*
X145542000Y-91240801D01*
X145542000Y-91260801D01*
X146735155Y-91260801D01*
X146856476Y-91030911D01*
X146686645Y-90620877D01*
X146409292Y-90316540D01*
X146512765Y-90295958D01*
X146722809Y-90155610D01*
X146863157Y-89945566D01*
X146912440Y-89697801D01*
X146912440Y-87997801D01*
X146863157Y-87750036D01*
X146722809Y-87539992D01*
X146512765Y-87399644D01*
X146265000Y-87350361D01*
X144565000Y-87350361D01*
X144317235Y-87399644D01*
X144107191Y-87539992D01*
X143966843Y-87750036D01*
X143924522Y-87962801D01*
X142871000Y-87962801D01*
X142871000Y-83068978D01*
X143114579Y-82825400D01*
X143746722Y-82825400D01*
X143789043Y-83038165D01*
X143929391Y-83248209D01*
X144139435Y-83388557D01*
X144184819Y-83397584D01*
X144166575Y-83409775D01*
X143838361Y-83900982D01*
X143723108Y-84480400D01*
X143838361Y-85059818D01*
X144166575Y-85551025D01*
X144657782Y-85879239D01*
X145090944Y-85965400D01*
X145383456Y-85965400D01*
X145816618Y-85879239D01*
X146307825Y-85551025D01*
X146636039Y-85059818D01*
X146751292Y-84480400D01*
X146636039Y-83900982D01*
X146307825Y-83409775D01*
X146289581Y-83397584D01*
X146334965Y-83388557D01*
X146545009Y-83248209D01*
X146685357Y-83038165D01*
X146734640Y-82790400D01*
X146734640Y-81090400D01*
X146685357Y-80842635D01*
X146545009Y-80632591D01*
X146334965Y-80492243D01*
X146087200Y-80442960D01*
X144387200Y-80442960D01*
X144139435Y-80492243D01*
X143929391Y-80632591D01*
X143789043Y-80842635D01*
X143746722Y-81055400D01*
X142835161Y-81055400D01*
X142748000Y-81038063D01*
X142660839Y-81055400D01*
X142660835Y-81055400D01*
X142402690Y-81106748D01*
X142183845Y-81252976D01*
X142183844Y-81252977D01*
X142109951Y-81302351D01*
X142060577Y-81376244D01*
X141498394Y-81938427D01*
X141347951Y-82038951D01*
X141152348Y-82331690D01*
X141083662Y-82677000D01*
X96592946Y-82677000D01*
X96459380Y-82543434D01*
X95674678Y-82218400D01*
X94825322Y-82218400D01*
X94040620Y-82543434D01*
X93440034Y-83144020D01*
X93115000Y-83928722D01*
X80832000Y-83928722D01*
X80832000Y-77284113D01*
X80832064Y-77283790D01*
X80832000Y-77215988D01*
X80832000Y-77147553D01*
X80831935Y-77147227D01*
X80830766Y-75908000D01*
X106756560Y-75908000D01*
X106756560Y-77508000D01*
X106805843Y-77755765D01*
X106946191Y-77965809D01*
X107156235Y-78106157D01*
X107404000Y-78155440D01*
X109004000Y-78155440D01*
X109251765Y-78106157D01*
X109461809Y-77965809D01*
X109602157Y-77755765D01*
X109628785Y-77621894D01*
X109709423Y-77742577D01*
X110184091Y-78059740D01*
X110602667Y-78143000D01*
X110885333Y-78143000D01*
X111303909Y-78059740D01*
X111778577Y-77742577D01*
X112014000Y-77390242D01*
X112249423Y-77742577D01*
X112724091Y-78059740D01*
X113142667Y-78143000D01*
X113425333Y-78143000D01*
X113843909Y-78059740D01*
X114318577Y-77742577D01*
X114554000Y-77390242D01*
X114789423Y-77742577D01*
X115264091Y-78059740D01*
X115682667Y-78143000D01*
X115965333Y-78143000D01*
X116383909Y-78059740D01*
X116858577Y-77742577D01*
X117094000Y-77390242D01*
X117329423Y-77742577D01*
X117804091Y-78059740D01*
X118222667Y-78143000D01*
X118505333Y-78143000D01*
X118923909Y-78059740D01*
X119398577Y-77742577D01*
X119654947Y-77358892D01*
X119751611Y-77563134D01*
X120166577Y-77939041D01*
X120554961Y-78099904D01*
X120777000Y-77977915D01*
X120777000Y-76835000D01*
X121031000Y-76835000D01*
X121031000Y-77977915D01*
X121253039Y-78099904D01*
X121641423Y-77939041D01*
X122056389Y-77563134D01*
X122174000Y-77314633D01*
X122291611Y-77563134D01*
X122706577Y-77939041D01*
X123094961Y-78099904D01*
X123317000Y-77977915D01*
X123317000Y-76835000D01*
X121031000Y-76835000D01*
X120777000Y-76835000D01*
X120757000Y-76835000D01*
X120757000Y-76581000D01*
X120777000Y-76581000D01*
X120777000Y-75438085D01*
X121031000Y-75438085D01*
X121031000Y-76581000D01*
X123317000Y-76581000D01*
X123317000Y-75438085D01*
X123571000Y-75438085D01*
X123571000Y-76581000D01*
X123591000Y-76581000D01*
X123591000Y-76835000D01*
X123571000Y-76835000D01*
X123571000Y-77977915D01*
X123793039Y-78099904D01*
X124181423Y-77939041D01*
X124596389Y-77563134D01*
X124693053Y-77358892D01*
X124949423Y-77742577D01*
X125424091Y-78059740D01*
X125842667Y-78143000D01*
X126125333Y-78143000D01*
X126543909Y-78059740D01*
X127018577Y-77742577D01*
X127335740Y-77267909D01*
X127447113Y-76708000D01*
X129600887Y-76708000D01*
X129712260Y-77267909D01*
X130029423Y-77742577D01*
X130504091Y-78059740D01*
X130922667Y-78143000D01*
X131205333Y-78143000D01*
X131623909Y-78059740D01*
X132098577Y-77742577D01*
X132334000Y-77390242D01*
X132569423Y-77742577D01*
X133044091Y-78059740D01*
X133462667Y-78143000D01*
X133745333Y-78143000D01*
X134163909Y-78059740D01*
X134638577Y-77742577D01*
X134874000Y-77390242D01*
X135109423Y-77742577D01*
X135584091Y-78059740D01*
X136002667Y-78143000D01*
X136285333Y-78143000D01*
X136703909Y-78059740D01*
X137178577Y-77742577D01*
X137414000Y-77390242D01*
X137649423Y-77742577D01*
X138124091Y-78059740D01*
X138542667Y-78143000D01*
X138825333Y-78143000D01*
X139243909Y-78059740D01*
X139718577Y-77742577D01*
X139954000Y-77390242D01*
X140189423Y-77742577D01*
X140664091Y-78059740D01*
X141082667Y-78143000D01*
X141365333Y-78143000D01*
X141783909Y-78059740D01*
X142258577Y-77742577D01*
X142494000Y-77390242D01*
X142729423Y-77742577D01*
X143204091Y-78059740D01*
X143622667Y-78143000D01*
X143905333Y-78143000D01*
X144323909Y-78059740D01*
X144798577Y-77742577D01*
X145115740Y-77267909D01*
X145227113Y-76708000D01*
X145115740Y-76148091D01*
X144798577Y-75673423D01*
X144323909Y-75356260D01*
X143905333Y-75273000D01*
X143622667Y-75273000D01*
X143204091Y-75356260D01*
X142729423Y-75673423D01*
X142494000Y-76025758D01*
X142258577Y-75673423D01*
X141783909Y-75356260D01*
X141365333Y-75273000D01*
X141082667Y-75273000D01*
X140664091Y-75356260D01*
X140189423Y-75673423D01*
X139954000Y-76025758D01*
X139718577Y-75673423D01*
X139243909Y-75356260D01*
X138825333Y-75273000D01*
X138542667Y-75273000D01*
X138124091Y-75356260D01*
X137649423Y-75673423D01*
X137414000Y-76025758D01*
X137178577Y-75673423D01*
X136703909Y-75356260D01*
X136285333Y-75273000D01*
X136002667Y-75273000D01*
X135584091Y-75356260D01*
X135109423Y-75673423D01*
X134874000Y-76025758D01*
X134638577Y-75673423D01*
X134163909Y-75356260D01*
X133745333Y-75273000D01*
X133462667Y-75273000D01*
X133044091Y-75356260D01*
X132569423Y-75673423D01*
X132334000Y-76025758D01*
X132098577Y-75673423D01*
X131623909Y-75356260D01*
X131205333Y-75273000D01*
X130922667Y-75273000D01*
X130504091Y-75356260D01*
X130029423Y-75673423D01*
X129712260Y-76148091D01*
X129600887Y-76708000D01*
X127447113Y-76708000D01*
X127335740Y-76148091D01*
X127018577Y-75673423D01*
X126543909Y-75356260D01*
X126125333Y-75273000D01*
X125842667Y-75273000D01*
X125424091Y-75356260D01*
X124949423Y-75673423D01*
X124693053Y-76057108D01*
X124596389Y-75852866D01*
X124181423Y-75476959D01*
X123793039Y-75316096D01*
X123571000Y-75438085D01*
X123317000Y-75438085D01*
X123094961Y-75316096D01*
X122706577Y-75476959D01*
X122291611Y-75852866D01*
X122174000Y-76101367D01*
X122056389Y-75852866D01*
X121641423Y-75476959D01*
X121253039Y-75316096D01*
X121031000Y-75438085D01*
X120777000Y-75438085D01*
X120554961Y-75316096D01*
X120166577Y-75476959D01*
X119751611Y-75852866D01*
X119654947Y-76057108D01*
X119398577Y-75673423D01*
X118923909Y-75356260D01*
X118505333Y-75273000D01*
X118222667Y-75273000D01*
X117804091Y-75356260D01*
X117329423Y-75673423D01*
X117094000Y-76025758D01*
X116858577Y-75673423D01*
X116383909Y-75356260D01*
X115965333Y-75273000D01*
X115682667Y-75273000D01*
X115264091Y-75356260D01*
X114789423Y-75673423D01*
X114554000Y-76025758D01*
X114318577Y-75673423D01*
X113843909Y-75356260D01*
X113425333Y-75273000D01*
X113142667Y-75273000D01*
X112724091Y-75356260D01*
X112249423Y-75673423D01*
X112014000Y-76025758D01*
X111778577Y-75673423D01*
X111303909Y-75356260D01*
X110885333Y-75273000D01*
X110602667Y-75273000D01*
X110184091Y-75356260D01*
X109709423Y-75673423D01*
X109628785Y-75794106D01*
X109602157Y-75660235D01*
X109461809Y-75450191D01*
X109251765Y-75309843D01*
X109004000Y-75260560D01*
X107404000Y-75260560D01*
X107156235Y-75309843D01*
X106946191Y-75450191D01*
X106805843Y-75660235D01*
X106756560Y-75908000D01*
X80830766Y-75908000D01*
X80829656Y-74733000D01*
X145739001Y-74733000D01*
X145739000Y-76639557D01*
G04 #@! TD*
M02*
