G04 #@! TF.GenerationSoftware,KiCad,Pcbnew,(5.0.1)-3*
G04 #@! TF.CreationDate,2018-11-30T15:10:40+02:00*
G04 #@! TF.ProjectId,DB darbas 2,44422064617262617320322E6B696361,rev?*
G04 #@! TF.SameCoordinates,Original*
G04 #@! TF.FileFunction,Copper,L1,Top,Signal*
G04 #@! TF.FilePolarity,Positive*
%FSLAX46Y46*%
G04 Gerber Fmt 4.6, Leading zero omitted, Abs format (unit mm)*
G04 Created by KiCad (PCBNEW (5.0.1)-3) date 30-Nov-18 15:10:40*
%MOMM*%
%LPD*%
G01*
G04 APERTURE LIST*
G04 #@! TA.AperFunction,Conductor*
%ADD10C,0.100000*%
G04 #@! TD*
G04 #@! TA.AperFunction,SMDPad,CuDef*
%ADD11C,0.950000*%
G04 #@! TD*
G04 #@! TA.AperFunction,ComponentPad*
%ADD12O,1.600000X1.600000*%
G04 #@! TD*
G04 #@! TA.AperFunction,ComponentPad*
%ADD13R,1.600000X1.600000*%
G04 #@! TD*
G04 #@! TA.AperFunction,ComponentPad*
%ADD14C,3.000000*%
G04 #@! TD*
G04 #@! TA.AperFunction,ComponentPad*
%ADD15O,1.700000X1.700000*%
G04 #@! TD*
G04 #@! TA.AperFunction,ComponentPad*
%ADD16R,1.700000X1.700000*%
G04 #@! TD*
G04 #@! TA.AperFunction,ComponentPad*
%ADD17C,2.800000*%
G04 #@! TD*
G04 #@! TA.AperFunction,ViaPad*
%ADD18C,1.200000*%
G04 #@! TD*
G04 #@! TA.AperFunction,Conductor*
%ADD19C,0.250000*%
G04 #@! TD*
G04 #@! TA.AperFunction,Conductor*
%ADD20C,0.500000*%
G04 #@! TD*
G04 #@! TA.AperFunction,Conductor*
%ADD21C,0.254000*%
G04 #@! TD*
G04 APERTURE END LIST*
D10*
G04 #@! TO.N,Net-(D7-Pad1)*
G04 #@! TO.C,D7*
G36*
X138740779Y-83981144D02*
X138763834Y-83984563D01*
X138786443Y-83990227D01*
X138808387Y-83998079D01*
X138829457Y-84008044D01*
X138849448Y-84020026D01*
X138868168Y-84033910D01*
X138885438Y-84049562D01*
X138901090Y-84066832D01*
X138914974Y-84085552D01*
X138926956Y-84105543D01*
X138936921Y-84126613D01*
X138944773Y-84148557D01*
X138950437Y-84171166D01*
X138953856Y-84194221D01*
X138955000Y-84217500D01*
X138955000Y-84692500D01*
X138953856Y-84715779D01*
X138950437Y-84738834D01*
X138944773Y-84761443D01*
X138936921Y-84783387D01*
X138926956Y-84804457D01*
X138914974Y-84824448D01*
X138901090Y-84843168D01*
X138885438Y-84860438D01*
X138868168Y-84876090D01*
X138849448Y-84889974D01*
X138829457Y-84901956D01*
X138808387Y-84911921D01*
X138786443Y-84919773D01*
X138763834Y-84925437D01*
X138740779Y-84928856D01*
X138717500Y-84930000D01*
X138142500Y-84930000D01*
X138119221Y-84928856D01*
X138096166Y-84925437D01*
X138073557Y-84919773D01*
X138051613Y-84911921D01*
X138030543Y-84901956D01*
X138010552Y-84889974D01*
X137991832Y-84876090D01*
X137974562Y-84860438D01*
X137958910Y-84843168D01*
X137945026Y-84824448D01*
X137933044Y-84804457D01*
X137923079Y-84783387D01*
X137915227Y-84761443D01*
X137909563Y-84738834D01*
X137906144Y-84715779D01*
X137905000Y-84692500D01*
X137905000Y-84217500D01*
X137906144Y-84194221D01*
X137909563Y-84171166D01*
X137915227Y-84148557D01*
X137923079Y-84126613D01*
X137933044Y-84105543D01*
X137945026Y-84085552D01*
X137958910Y-84066832D01*
X137974562Y-84049562D01*
X137991832Y-84033910D01*
X138010552Y-84020026D01*
X138030543Y-84008044D01*
X138051613Y-83998079D01*
X138073557Y-83990227D01*
X138096166Y-83984563D01*
X138119221Y-83981144D01*
X138142500Y-83980000D01*
X138717500Y-83980000D01*
X138740779Y-83981144D01*
X138740779Y-83981144D01*
G37*
D11*
G04 #@! TD*
G04 #@! TO.P,D7,1*
G04 #@! TO.N,Net-(D7-Pad1)*
X138430000Y-84455000D03*
D10*
G04 #@! TO.N,Net-(D7-Pad2)*
G04 #@! TO.C,D7*
G36*
X136990779Y-83981144D02*
X137013834Y-83984563D01*
X137036443Y-83990227D01*
X137058387Y-83998079D01*
X137079457Y-84008044D01*
X137099448Y-84020026D01*
X137118168Y-84033910D01*
X137135438Y-84049562D01*
X137151090Y-84066832D01*
X137164974Y-84085552D01*
X137176956Y-84105543D01*
X137186921Y-84126613D01*
X137194773Y-84148557D01*
X137200437Y-84171166D01*
X137203856Y-84194221D01*
X137205000Y-84217500D01*
X137205000Y-84692500D01*
X137203856Y-84715779D01*
X137200437Y-84738834D01*
X137194773Y-84761443D01*
X137186921Y-84783387D01*
X137176956Y-84804457D01*
X137164974Y-84824448D01*
X137151090Y-84843168D01*
X137135438Y-84860438D01*
X137118168Y-84876090D01*
X137099448Y-84889974D01*
X137079457Y-84901956D01*
X137058387Y-84911921D01*
X137036443Y-84919773D01*
X137013834Y-84925437D01*
X136990779Y-84928856D01*
X136967500Y-84930000D01*
X136392500Y-84930000D01*
X136369221Y-84928856D01*
X136346166Y-84925437D01*
X136323557Y-84919773D01*
X136301613Y-84911921D01*
X136280543Y-84901956D01*
X136260552Y-84889974D01*
X136241832Y-84876090D01*
X136224562Y-84860438D01*
X136208910Y-84843168D01*
X136195026Y-84824448D01*
X136183044Y-84804457D01*
X136173079Y-84783387D01*
X136165227Y-84761443D01*
X136159563Y-84738834D01*
X136156144Y-84715779D01*
X136155000Y-84692500D01*
X136155000Y-84217500D01*
X136156144Y-84194221D01*
X136159563Y-84171166D01*
X136165227Y-84148557D01*
X136173079Y-84126613D01*
X136183044Y-84105543D01*
X136195026Y-84085552D01*
X136208910Y-84066832D01*
X136224562Y-84049562D01*
X136241832Y-84033910D01*
X136260552Y-84020026D01*
X136280543Y-84008044D01*
X136301613Y-83998079D01*
X136323557Y-83990227D01*
X136346166Y-83984563D01*
X136369221Y-83981144D01*
X136392500Y-83980000D01*
X136967500Y-83980000D01*
X136990779Y-83981144D01*
X136990779Y-83981144D01*
G37*
D11*
G04 #@! TD*
G04 #@! TO.P,D7,2*
G04 #@! TO.N,Net-(D7-Pad2)*
X136680000Y-84455000D03*
D12*
G04 #@! TO.P,U1,29*
G04 #@! TO.N,Net-(U1-Pad29)*
X106684000Y-124968000D03*
G04 #@! TO.P,U1,30*
G04 #@! TO.N,Net-(U1-Pad30)*
X104144000Y-124968000D03*
D13*
G04 #@! TO.P,U1,1*
G04 #@! TO.N,Net-(U1-Pad1)*
X108204000Y-76708000D03*
D12*
G04 #@! TO.P,U1,17*
G04 #@! TO.N,Net-(J3-Pad2)*
X138684000Y-124968000D03*
G04 #@! TO.P,U1,2*
G04 #@! TO.N,Net-(U1-Pad2)*
X110744000Y-76708000D03*
G04 #@! TO.P,U1,18*
G04 #@! TO.N,Net-(J3-Pad3)*
X136144000Y-124968000D03*
G04 #@! TO.P,U1,3*
G04 #@! TO.N,Net-(U1-Pad3)*
X113284000Y-76708000D03*
G04 #@! TO.P,U1,19*
G04 #@! TO.N,Net-(J3-Pad1)*
X133604000Y-124968000D03*
G04 #@! TO.P,U1,4*
G04 #@! TO.N,Net-(U1-Pad4)*
X115824000Y-76708000D03*
G04 #@! TO.P,U1,20*
G04 #@! TO.N,Net-(J1-Pad1)*
X131064000Y-124968000D03*
G04 #@! TO.P,U1,5*
G04 #@! TO.N,Net-(U1-Pad5)*
X118364000Y-76708000D03*
G04 #@! TO.P,U1,21*
G04 #@! TO.N,Net-(J1-Pad3)*
X128524000Y-124968000D03*
G04 #@! TO.P,U1,6*
G04 #@! TO.N,GND*
X120904000Y-76708000D03*
G04 #@! TO.P,U1,22*
G04 #@! TO.N,Net-(J1-Pad2)*
X125984000Y-124968000D03*
G04 #@! TO.P,U1,7*
G04 #@! TO.N,GND*
X123444000Y-76708000D03*
G04 #@! TO.P,U1,23*
G04 #@! TO.N,Net-(R6-Pad2)*
X121924000Y-124968000D03*
G04 #@! TO.P,U1,8*
G04 #@! TO.N,Net-(D7-Pad2)*
X125984000Y-76708000D03*
G04 #@! TO.P,U1,24*
G04 #@! TO.N,Net-(R5-Pad2)*
X119384000Y-124968000D03*
G04 #@! TO.P,U1,9*
G04 #@! TO.N,Net-(U1-Pad9)*
X131064000Y-76708000D03*
G04 #@! TO.P,U1,25*
G04 #@! TO.N,Net-(R4-Pad2)*
X116844000Y-124968000D03*
G04 #@! TO.P,U1,10*
G04 #@! TO.N,Net-(U1-Pad10)*
X133604000Y-76708000D03*
G04 #@! TO.P,U1,26*
G04 #@! TO.N,Net-(R3-Pad2)*
X114304000Y-124968000D03*
G04 #@! TO.P,U1,11*
G04 #@! TO.N,Net-(U1-Pad11)*
X136144000Y-76708000D03*
G04 #@! TO.P,U1,27*
G04 #@! TO.N,Net-(R2-Pad2)*
X111764000Y-124968000D03*
G04 #@! TO.P,U1,12*
G04 #@! TO.N,Net-(U1-Pad12)*
X138684000Y-76708000D03*
G04 #@! TO.P,U1,28*
G04 #@! TO.N,Net-(R1-Pad1)*
X109224000Y-124968000D03*
G04 #@! TO.P,U1,13*
G04 #@! TO.N,Net-(U1-Pad13)*
X141224000Y-76708000D03*
G04 #@! TO.P,U1,14*
G04 #@! TO.N,Net-(U1-Pad14)*
X143764000Y-76708000D03*
G04 #@! TO.P,U1,15*
G04 #@! TO.N,Net-(U1-Pad15)*
X143764000Y-124968000D03*
G04 #@! TO.P,U1,16*
G04 #@! TO.N,Net-(U1-Pad16)*
X141224000Y-124968000D03*
G04 #@! TD*
D14*
G04 #@! TO.P,J3,G*
G04 #@! TO.N,GND*
X88900000Y-96418400D03*
G04 #@! TO.P,J3,3*
G04 #@! TO.N,Net-(J3-Pad3)*
X99060000Y-88163400D03*
G04 #@! TO.P,J3,2*
G04 #@! TO.N,Net-(J3-Pad2)*
X95250000Y-84353400D03*
G04 #@! TO.P,J3,1*
G04 #@! TO.N,Net-(J3-Pad1)*
X95250000Y-91973400D03*
G04 #@! TD*
D15*
G04 #@! TO.P,VCC1,2*
G04 #@! TO.N,GND*
X145415000Y-91387801D03*
D16*
G04 #@! TO.P,VCC1,1*
G04 #@! TO.N,Net-(Switch1-Pad1)*
X145415000Y-88847801D03*
G04 #@! TD*
G04 #@! TO.P,Switch1,1*
G04 #@! TO.N,Net-(Switch1-Pad1)*
X145237200Y-81940400D03*
D15*
G04 #@! TO.P,Switch1,2*
G04 #@! TO.N,Net-(D7-Pad1)*
X145237200Y-84480400D03*
G04 #@! TD*
D10*
G04 #@! TO.N,Net-(D1-Pad2)*
G04 #@! TO.C,D1*
G36*
X130640779Y-99856144D02*
X130663834Y-99859563D01*
X130686443Y-99865227D01*
X130708387Y-99873079D01*
X130729457Y-99883044D01*
X130749448Y-99895026D01*
X130768168Y-99908910D01*
X130785438Y-99924562D01*
X130801090Y-99941832D01*
X130814974Y-99960552D01*
X130826956Y-99980543D01*
X130836921Y-100001613D01*
X130844773Y-100023557D01*
X130850437Y-100046166D01*
X130853856Y-100069221D01*
X130855000Y-100092500D01*
X130855000Y-100567500D01*
X130853856Y-100590779D01*
X130850437Y-100613834D01*
X130844773Y-100636443D01*
X130836921Y-100658387D01*
X130826956Y-100679457D01*
X130814974Y-100699448D01*
X130801090Y-100718168D01*
X130785438Y-100735438D01*
X130768168Y-100751090D01*
X130749448Y-100764974D01*
X130729457Y-100776956D01*
X130708387Y-100786921D01*
X130686443Y-100794773D01*
X130663834Y-100800437D01*
X130640779Y-100803856D01*
X130617500Y-100805000D01*
X130042500Y-100805000D01*
X130019221Y-100803856D01*
X129996166Y-100800437D01*
X129973557Y-100794773D01*
X129951613Y-100786921D01*
X129930543Y-100776956D01*
X129910552Y-100764974D01*
X129891832Y-100751090D01*
X129874562Y-100735438D01*
X129858910Y-100718168D01*
X129845026Y-100699448D01*
X129833044Y-100679457D01*
X129823079Y-100658387D01*
X129815227Y-100636443D01*
X129809563Y-100613834D01*
X129806144Y-100590779D01*
X129805000Y-100567500D01*
X129805000Y-100092500D01*
X129806144Y-100069221D01*
X129809563Y-100046166D01*
X129815227Y-100023557D01*
X129823079Y-100001613D01*
X129833044Y-99980543D01*
X129845026Y-99960552D01*
X129858910Y-99941832D01*
X129874562Y-99924562D01*
X129891832Y-99908910D01*
X129910552Y-99895026D01*
X129930543Y-99883044D01*
X129951613Y-99873079D01*
X129973557Y-99865227D01*
X129996166Y-99859563D01*
X130019221Y-99856144D01*
X130042500Y-99855000D01*
X130617500Y-99855000D01*
X130640779Y-99856144D01*
X130640779Y-99856144D01*
G37*
D11*
G04 #@! TD*
G04 #@! TO.P,D1,2*
G04 #@! TO.N,Net-(D1-Pad2)*
X130330000Y-100330000D03*
D10*
G04 #@! TO.N,GND*
G04 #@! TO.C,D1*
G36*
X132390779Y-99856144D02*
X132413834Y-99859563D01*
X132436443Y-99865227D01*
X132458387Y-99873079D01*
X132479457Y-99883044D01*
X132499448Y-99895026D01*
X132518168Y-99908910D01*
X132535438Y-99924562D01*
X132551090Y-99941832D01*
X132564974Y-99960552D01*
X132576956Y-99980543D01*
X132586921Y-100001613D01*
X132594773Y-100023557D01*
X132600437Y-100046166D01*
X132603856Y-100069221D01*
X132605000Y-100092500D01*
X132605000Y-100567500D01*
X132603856Y-100590779D01*
X132600437Y-100613834D01*
X132594773Y-100636443D01*
X132586921Y-100658387D01*
X132576956Y-100679457D01*
X132564974Y-100699448D01*
X132551090Y-100718168D01*
X132535438Y-100735438D01*
X132518168Y-100751090D01*
X132499448Y-100764974D01*
X132479457Y-100776956D01*
X132458387Y-100786921D01*
X132436443Y-100794773D01*
X132413834Y-100800437D01*
X132390779Y-100803856D01*
X132367500Y-100805000D01*
X131792500Y-100805000D01*
X131769221Y-100803856D01*
X131746166Y-100800437D01*
X131723557Y-100794773D01*
X131701613Y-100786921D01*
X131680543Y-100776956D01*
X131660552Y-100764974D01*
X131641832Y-100751090D01*
X131624562Y-100735438D01*
X131608910Y-100718168D01*
X131595026Y-100699448D01*
X131583044Y-100679457D01*
X131573079Y-100658387D01*
X131565227Y-100636443D01*
X131559563Y-100613834D01*
X131556144Y-100590779D01*
X131555000Y-100567500D01*
X131555000Y-100092500D01*
X131556144Y-100069221D01*
X131559563Y-100046166D01*
X131565227Y-100023557D01*
X131573079Y-100001613D01*
X131583044Y-99980543D01*
X131595026Y-99960552D01*
X131608910Y-99941832D01*
X131624562Y-99924562D01*
X131641832Y-99908910D01*
X131660552Y-99895026D01*
X131680543Y-99883044D01*
X131701613Y-99873079D01*
X131723557Y-99865227D01*
X131746166Y-99859563D01*
X131769221Y-99856144D01*
X131792500Y-99855000D01*
X132367500Y-99855000D01*
X132390779Y-99856144D01*
X132390779Y-99856144D01*
G37*
D11*
G04 #@! TD*
G04 #@! TO.P,D1,1*
G04 #@! TO.N,GND*
X132080000Y-100330000D03*
D10*
G04 #@! TO.N,GND*
G04 #@! TO.C,D3*
G36*
X132616779Y-110270144D02*
X132639834Y-110273563D01*
X132662443Y-110279227D01*
X132684387Y-110287079D01*
X132705457Y-110297044D01*
X132725448Y-110309026D01*
X132744168Y-110322910D01*
X132761438Y-110338562D01*
X132777090Y-110355832D01*
X132790974Y-110374552D01*
X132802956Y-110394543D01*
X132812921Y-110415613D01*
X132820773Y-110437557D01*
X132826437Y-110460166D01*
X132829856Y-110483221D01*
X132831000Y-110506500D01*
X132831000Y-110981500D01*
X132829856Y-111004779D01*
X132826437Y-111027834D01*
X132820773Y-111050443D01*
X132812921Y-111072387D01*
X132802956Y-111093457D01*
X132790974Y-111113448D01*
X132777090Y-111132168D01*
X132761438Y-111149438D01*
X132744168Y-111165090D01*
X132725448Y-111178974D01*
X132705457Y-111190956D01*
X132684387Y-111200921D01*
X132662443Y-111208773D01*
X132639834Y-111214437D01*
X132616779Y-111217856D01*
X132593500Y-111219000D01*
X132018500Y-111219000D01*
X131995221Y-111217856D01*
X131972166Y-111214437D01*
X131949557Y-111208773D01*
X131927613Y-111200921D01*
X131906543Y-111190956D01*
X131886552Y-111178974D01*
X131867832Y-111165090D01*
X131850562Y-111149438D01*
X131834910Y-111132168D01*
X131821026Y-111113448D01*
X131809044Y-111093457D01*
X131799079Y-111072387D01*
X131791227Y-111050443D01*
X131785563Y-111027834D01*
X131782144Y-111004779D01*
X131781000Y-110981500D01*
X131781000Y-110506500D01*
X131782144Y-110483221D01*
X131785563Y-110460166D01*
X131791227Y-110437557D01*
X131799079Y-110415613D01*
X131809044Y-110394543D01*
X131821026Y-110374552D01*
X131834910Y-110355832D01*
X131850562Y-110338562D01*
X131867832Y-110322910D01*
X131886552Y-110309026D01*
X131906543Y-110297044D01*
X131927613Y-110287079D01*
X131949557Y-110279227D01*
X131972166Y-110273563D01*
X131995221Y-110270144D01*
X132018500Y-110269000D01*
X132593500Y-110269000D01*
X132616779Y-110270144D01*
X132616779Y-110270144D01*
G37*
D11*
G04 #@! TD*
G04 #@! TO.P,D3,1*
G04 #@! TO.N,GND*
X132306000Y-110744000D03*
D10*
G04 #@! TO.N,Net-(D3-Pad2)*
G04 #@! TO.C,D3*
G36*
X130866779Y-110270144D02*
X130889834Y-110273563D01*
X130912443Y-110279227D01*
X130934387Y-110287079D01*
X130955457Y-110297044D01*
X130975448Y-110309026D01*
X130994168Y-110322910D01*
X131011438Y-110338562D01*
X131027090Y-110355832D01*
X131040974Y-110374552D01*
X131052956Y-110394543D01*
X131062921Y-110415613D01*
X131070773Y-110437557D01*
X131076437Y-110460166D01*
X131079856Y-110483221D01*
X131081000Y-110506500D01*
X131081000Y-110981500D01*
X131079856Y-111004779D01*
X131076437Y-111027834D01*
X131070773Y-111050443D01*
X131062921Y-111072387D01*
X131052956Y-111093457D01*
X131040974Y-111113448D01*
X131027090Y-111132168D01*
X131011438Y-111149438D01*
X130994168Y-111165090D01*
X130975448Y-111178974D01*
X130955457Y-111190956D01*
X130934387Y-111200921D01*
X130912443Y-111208773D01*
X130889834Y-111214437D01*
X130866779Y-111217856D01*
X130843500Y-111219000D01*
X130268500Y-111219000D01*
X130245221Y-111217856D01*
X130222166Y-111214437D01*
X130199557Y-111208773D01*
X130177613Y-111200921D01*
X130156543Y-111190956D01*
X130136552Y-111178974D01*
X130117832Y-111165090D01*
X130100562Y-111149438D01*
X130084910Y-111132168D01*
X130071026Y-111113448D01*
X130059044Y-111093457D01*
X130049079Y-111072387D01*
X130041227Y-111050443D01*
X130035563Y-111027834D01*
X130032144Y-111004779D01*
X130031000Y-110981500D01*
X130031000Y-110506500D01*
X130032144Y-110483221D01*
X130035563Y-110460166D01*
X130041227Y-110437557D01*
X130049079Y-110415613D01*
X130059044Y-110394543D01*
X130071026Y-110374552D01*
X130084910Y-110355832D01*
X130100562Y-110338562D01*
X130117832Y-110322910D01*
X130136552Y-110309026D01*
X130156543Y-110297044D01*
X130177613Y-110287079D01*
X130199557Y-110279227D01*
X130222166Y-110273563D01*
X130245221Y-110270144D01*
X130268500Y-110269000D01*
X130843500Y-110269000D01*
X130866779Y-110270144D01*
X130866779Y-110270144D01*
G37*
D11*
G04 #@! TD*
G04 #@! TO.P,D3,2*
G04 #@! TO.N,Net-(D3-Pad2)*
X130556000Y-110744000D03*
D10*
G04 #@! TO.N,Net-(D4-Pad2)*
G04 #@! TO.C,D4*
G36*
X138472779Y-110270144D02*
X138495834Y-110273563D01*
X138518443Y-110279227D01*
X138540387Y-110287079D01*
X138561457Y-110297044D01*
X138581448Y-110309026D01*
X138600168Y-110322910D01*
X138617438Y-110338562D01*
X138633090Y-110355832D01*
X138646974Y-110374552D01*
X138658956Y-110394543D01*
X138668921Y-110415613D01*
X138676773Y-110437557D01*
X138682437Y-110460166D01*
X138685856Y-110483221D01*
X138687000Y-110506500D01*
X138687000Y-110981500D01*
X138685856Y-111004779D01*
X138682437Y-111027834D01*
X138676773Y-111050443D01*
X138668921Y-111072387D01*
X138658956Y-111093457D01*
X138646974Y-111113448D01*
X138633090Y-111132168D01*
X138617438Y-111149438D01*
X138600168Y-111165090D01*
X138581448Y-111178974D01*
X138561457Y-111190956D01*
X138540387Y-111200921D01*
X138518443Y-111208773D01*
X138495834Y-111214437D01*
X138472779Y-111217856D01*
X138449500Y-111219000D01*
X137874500Y-111219000D01*
X137851221Y-111217856D01*
X137828166Y-111214437D01*
X137805557Y-111208773D01*
X137783613Y-111200921D01*
X137762543Y-111190956D01*
X137742552Y-111178974D01*
X137723832Y-111165090D01*
X137706562Y-111149438D01*
X137690910Y-111132168D01*
X137677026Y-111113448D01*
X137665044Y-111093457D01*
X137655079Y-111072387D01*
X137647227Y-111050443D01*
X137641563Y-111027834D01*
X137638144Y-111004779D01*
X137637000Y-110981500D01*
X137637000Y-110506500D01*
X137638144Y-110483221D01*
X137641563Y-110460166D01*
X137647227Y-110437557D01*
X137655079Y-110415613D01*
X137665044Y-110394543D01*
X137677026Y-110374552D01*
X137690910Y-110355832D01*
X137706562Y-110338562D01*
X137723832Y-110322910D01*
X137742552Y-110309026D01*
X137762543Y-110297044D01*
X137783613Y-110287079D01*
X137805557Y-110279227D01*
X137828166Y-110273563D01*
X137851221Y-110270144D01*
X137874500Y-110269000D01*
X138449500Y-110269000D01*
X138472779Y-110270144D01*
X138472779Y-110270144D01*
G37*
D11*
G04 #@! TD*
G04 #@! TO.P,D4,2*
G04 #@! TO.N,Net-(D4-Pad2)*
X138162000Y-110744000D03*
D10*
G04 #@! TO.N,GND*
G04 #@! TO.C,D4*
G36*
X136722779Y-110270144D02*
X136745834Y-110273563D01*
X136768443Y-110279227D01*
X136790387Y-110287079D01*
X136811457Y-110297044D01*
X136831448Y-110309026D01*
X136850168Y-110322910D01*
X136867438Y-110338562D01*
X136883090Y-110355832D01*
X136896974Y-110374552D01*
X136908956Y-110394543D01*
X136918921Y-110415613D01*
X136926773Y-110437557D01*
X136932437Y-110460166D01*
X136935856Y-110483221D01*
X136937000Y-110506500D01*
X136937000Y-110981500D01*
X136935856Y-111004779D01*
X136932437Y-111027834D01*
X136926773Y-111050443D01*
X136918921Y-111072387D01*
X136908956Y-111093457D01*
X136896974Y-111113448D01*
X136883090Y-111132168D01*
X136867438Y-111149438D01*
X136850168Y-111165090D01*
X136831448Y-111178974D01*
X136811457Y-111190956D01*
X136790387Y-111200921D01*
X136768443Y-111208773D01*
X136745834Y-111214437D01*
X136722779Y-111217856D01*
X136699500Y-111219000D01*
X136124500Y-111219000D01*
X136101221Y-111217856D01*
X136078166Y-111214437D01*
X136055557Y-111208773D01*
X136033613Y-111200921D01*
X136012543Y-111190956D01*
X135992552Y-111178974D01*
X135973832Y-111165090D01*
X135956562Y-111149438D01*
X135940910Y-111132168D01*
X135927026Y-111113448D01*
X135915044Y-111093457D01*
X135905079Y-111072387D01*
X135897227Y-111050443D01*
X135891563Y-111027834D01*
X135888144Y-111004779D01*
X135887000Y-110981500D01*
X135887000Y-110506500D01*
X135888144Y-110483221D01*
X135891563Y-110460166D01*
X135897227Y-110437557D01*
X135905079Y-110415613D01*
X135915044Y-110394543D01*
X135927026Y-110374552D01*
X135940910Y-110355832D01*
X135956562Y-110338562D01*
X135973832Y-110322910D01*
X135992552Y-110309026D01*
X136012543Y-110297044D01*
X136033613Y-110287079D01*
X136055557Y-110279227D01*
X136078166Y-110273563D01*
X136101221Y-110270144D01*
X136124500Y-110269000D01*
X136699500Y-110269000D01*
X136722779Y-110270144D01*
X136722779Y-110270144D01*
G37*
D11*
G04 #@! TD*
G04 #@! TO.P,D4,1*
G04 #@! TO.N,GND*
X136412000Y-110744000D03*
D10*
G04 #@! TO.N,GND*
G04 #@! TO.C,D5*
G36*
X136736779Y-104936144D02*
X136759834Y-104939563D01*
X136782443Y-104945227D01*
X136804387Y-104953079D01*
X136825457Y-104963044D01*
X136845448Y-104975026D01*
X136864168Y-104988910D01*
X136881438Y-105004562D01*
X136897090Y-105021832D01*
X136910974Y-105040552D01*
X136922956Y-105060543D01*
X136932921Y-105081613D01*
X136940773Y-105103557D01*
X136946437Y-105126166D01*
X136949856Y-105149221D01*
X136951000Y-105172500D01*
X136951000Y-105647500D01*
X136949856Y-105670779D01*
X136946437Y-105693834D01*
X136940773Y-105716443D01*
X136932921Y-105738387D01*
X136922956Y-105759457D01*
X136910974Y-105779448D01*
X136897090Y-105798168D01*
X136881438Y-105815438D01*
X136864168Y-105831090D01*
X136845448Y-105844974D01*
X136825457Y-105856956D01*
X136804387Y-105866921D01*
X136782443Y-105874773D01*
X136759834Y-105880437D01*
X136736779Y-105883856D01*
X136713500Y-105885000D01*
X136138500Y-105885000D01*
X136115221Y-105883856D01*
X136092166Y-105880437D01*
X136069557Y-105874773D01*
X136047613Y-105866921D01*
X136026543Y-105856956D01*
X136006552Y-105844974D01*
X135987832Y-105831090D01*
X135970562Y-105815438D01*
X135954910Y-105798168D01*
X135941026Y-105779448D01*
X135929044Y-105759457D01*
X135919079Y-105738387D01*
X135911227Y-105716443D01*
X135905563Y-105693834D01*
X135902144Y-105670779D01*
X135901000Y-105647500D01*
X135901000Y-105172500D01*
X135902144Y-105149221D01*
X135905563Y-105126166D01*
X135911227Y-105103557D01*
X135919079Y-105081613D01*
X135929044Y-105060543D01*
X135941026Y-105040552D01*
X135954910Y-105021832D01*
X135970562Y-105004562D01*
X135987832Y-104988910D01*
X136006552Y-104975026D01*
X136026543Y-104963044D01*
X136047613Y-104953079D01*
X136069557Y-104945227D01*
X136092166Y-104939563D01*
X136115221Y-104936144D01*
X136138500Y-104935000D01*
X136713500Y-104935000D01*
X136736779Y-104936144D01*
X136736779Y-104936144D01*
G37*
D11*
G04 #@! TD*
G04 #@! TO.P,D5,1*
G04 #@! TO.N,GND*
X136426000Y-105410000D03*
D10*
G04 #@! TO.N,Net-(D5-Pad2)*
G04 #@! TO.C,D5*
G36*
X138486779Y-104936144D02*
X138509834Y-104939563D01*
X138532443Y-104945227D01*
X138554387Y-104953079D01*
X138575457Y-104963044D01*
X138595448Y-104975026D01*
X138614168Y-104988910D01*
X138631438Y-105004562D01*
X138647090Y-105021832D01*
X138660974Y-105040552D01*
X138672956Y-105060543D01*
X138682921Y-105081613D01*
X138690773Y-105103557D01*
X138696437Y-105126166D01*
X138699856Y-105149221D01*
X138701000Y-105172500D01*
X138701000Y-105647500D01*
X138699856Y-105670779D01*
X138696437Y-105693834D01*
X138690773Y-105716443D01*
X138682921Y-105738387D01*
X138672956Y-105759457D01*
X138660974Y-105779448D01*
X138647090Y-105798168D01*
X138631438Y-105815438D01*
X138614168Y-105831090D01*
X138595448Y-105844974D01*
X138575457Y-105856956D01*
X138554387Y-105866921D01*
X138532443Y-105874773D01*
X138509834Y-105880437D01*
X138486779Y-105883856D01*
X138463500Y-105885000D01*
X137888500Y-105885000D01*
X137865221Y-105883856D01*
X137842166Y-105880437D01*
X137819557Y-105874773D01*
X137797613Y-105866921D01*
X137776543Y-105856956D01*
X137756552Y-105844974D01*
X137737832Y-105831090D01*
X137720562Y-105815438D01*
X137704910Y-105798168D01*
X137691026Y-105779448D01*
X137679044Y-105759457D01*
X137669079Y-105738387D01*
X137661227Y-105716443D01*
X137655563Y-105693834D01*
X137652144Y-105670779D01*
X137651000Y-105647500D01*
X137651000Y-105172500D01*
X137652144Y-105149221D01*
X137655563Y-105126166D01*
X137661227Y-105103557D01*
X137669079Y-105081613D01*
X137679044Y-105060543D01*
X137691026Y-105040552D01*
X137704910Y-105021832D01*
X137720562Y-105004562D01*
X137737832Y-104988910D01*
X137756552Y-104975026D01*
X137776543Y-104963044D01*
X137797613Y-104953079D01*
X137819557Y-104945227D01*
X137842166Y-104939563D01*
X137865221Y-104936144D01*
X137888500Y-104935000D01*
X138463500Y-104935000D01*
X138486779Y-104936144D01*
X138486779Y-104936144D01*
G37*
D11*
G04 #@! TD*
G04 #@! TO.P,D5,2*
G04 #@! TO.N,Net-(D5-Pad2)*
X138176000Y-105410000D03*
D10*
G04 #@! TO.N,Net-(D6-Pad2)*
G04 #@! TO.C,D6*
G36*
X138740779Y-99856144D02*
X138763834Y-99859563D01*
X138786443Y-99865227D01*
X138808387Y-99873079D01*
X138829457Y-99883044D01*
X138849448Y-99895026D01*
X138868168Y-99908910D01*
X138885438Y-99924562D01*
X138901090Y-99941832D01*
X138914974Y-99960552D01*
X138926956Y-99980543D01*
X138936921Y-100001613D01*
X138944773Y-100023557D01*
X138950437Y-100046166D01*
X138953856Y-100069221D01*
X138955000Y-100092500D01*
X138955000Y-100567500D01*
X138953856Y-100590779D01*
X138950437Y-100613834D01*
X138944773Y-100636443D01*
X138936921Y-100658387D01*
X138926956Y-100679457D01*
X138914974Y-100699448D01*
X138901090Y-100718168D01*
X138885438Y-100735438D01*
X138868168Y-100751090D01*
X138849448Y-100764974D01*
X138829457Y-100776956D01*
X138808387Y-100786921D01*
X138786443Y-100794773D01*
X138763834Y-100800437D01*
X138740779Y-100803856D01*
X138717500Y-100805000D01*
X138142500Y-100805000D01*
X138119221Y-100803856D01*
X138096166Y-100800437D01*
X138073557Y-100794773D01*
X138051613Y-100786921D01*
X138030543Y-100776956D01*
X138010552Y-100764974D01*
X137991832Y-100751090D01*
X137974562Y-100735438D01*
X137958910Y-100718168D01*
X137945026Y-100699448D01*
X137933044Y-100679457D01*
X137923079Y-100658387D01*
X137915227Y-100636443D01*
X137909563Y-100613834D01*
X137906144Y-100590779D01*
X137905000Y-100567500D01*
X137905000Y-100092500D01*
X137906144Y-100069221D01*
X137909563Y-100046166D01*
X137915227Y-100023557D01*
X137923079Y-100001613D01*
X137933044Y-99980543D01*
X137945026Y-99960552D01*
X137958910Y-99941832D01*
X137974562Y-99924562D01*
X137991832Y-99908910D01*
X138010552Y-99895026D01*
X138030543Y-99883044D01*
X138051613Y-99873079D01*
X138073557Y-99865227D01*
X138096166Y-99859563D01*
X138119221Y-99856144D01*
X138142500Y-99855000D01*
X138717500Y-99855000D01*
X138740779Y-99856144D01*
X138740779Y-99856144D01*
G37*
D11*
G04 #@! TD*
G04 #@! TO.P,D6,2*
G04 #@! TO.N,Net-(D6-Pad2)*
X138430000Y-100330000D03*
D10*
G04 #@! TO.N,GND*
G04 #@! TO.C,D6*
G36*
X136990779Y-99856144D02*
X137013834Y-99859563D01*
X137036443Y-99865227D01*
X137058387Y-99873079D01*
X137079457Y-99883044D01*
X137099448Y-99895026D01*
X137118168Y-99908910D01*
X137135438Y-99924562D01*
X137151090Y-99941832D01*
X137164974Y-99960552D01*
X137176956Y-99980543D01*
X137186921Y-100001613D01*
X137194773Y-100023557D01*
X137200437Y-100046166D01*
X137203856Y-100069221D01*
X137205000Y-100092500D01*
X137205000Y-100567500D01*
X137203856Y-100590779D01*
X137200437Y-100613834D01*
X137194773Y-100636443D01*
X137186921Y-100658387D01*
X137176956Y-100679457D01*
X137164974Y-100699448D01*
X137151090Y-100718168D01*
X137135438Y-100735438D01*
X137118168Y-100751090D01*
X137099448Y-100764974D01*
X137079457Y-100776956D01*
X137058387Y-100786921D01*
X137036443Y-100794773D01*
X137013834Y-100800437D01*
X136990779Y-100803856D01*
X136967500Y-100805000D01*
X136392500Y-100805000D01*
X136369221Y-100803856D01*
X136346166Y-100800437D01*
X136323557Y-100794773D01*
X136301613Y-100786921D01*
X136280543Y-100776956D01*
X136260552Y-100764974D01*
X136241832Y-100751090D01*
X136224562Y-100735438D01*
X136208910Y-100718168D01*
X136195026Y-100699448D01*
X136183044Y-100679457D01*
X136173079Y-100658387D01*
X136165227Y-100636443D01*
X136159563Y-100613834D01*
X136156144Y-100590779D01*
X136155000Y-100567500D01*
X136155000Y-100092500D01*
X136156144Y-100069221D01*
X136159563Y-100046166D01*
X136165227Y-100023557D01*
X136173079Y-100001613D01*
X136183044Y-99980543D01*
X136195026Y-99960552D01*
X136208910Y-99941832D01*
X136224562Y-99924562D01*
X136241832Y-99908910D01*
X136260552Y-99895026D01*
X136280543Y-99883044D01*
X136301613Y-99873079D01*
X136323557Y-99865227D01*
X136346166Y-99859563D01*
X136369221Y-99856144D01*
X136392500Y-99855000D01*
X136967500Y-99855000D01*
X136990779Y-99856144D01*
X136990779Y-99856144D01*
G37*
D11*
G04 #@! TD*
G04 #@! TO.P,D6,1*
G04 #@! TO.N,GND*
X136680000Y-100330000D03*
D10*
G04 #@! TO.N,GND*
G04 #@! TO.C,D2*
G36*
X132616779Y-104936144D02*
X132639834Y-104939563D01*
X132662443Y-104945227D01*
X132684387Y-104953079D01*
X132705457Y-104963044D01*
X132725448Y-104975026D01*
X132744168Y-104988910D01*
X132761438Y-105004562D01*
X132777090Y-105021832D01*
X132790974Y-105040552D01*
X132802956Y-105060543D01*
X132812921Y-105081613D01*
X132820773Y-105103557D01*
X132826437Y-105126166D01*
X132829856Y-105149221D01*
X132831000Y-105172500D01*
X132831000Y-105647500D01*
X132829856Y-105670779D01*
X132826437Y-105693834D01*
X132820773Y-105716443D01*
X132812921Y-105738387D01*
X132802956Y-105759457D01*
X132790974Y-105779448D01*
X132777090Y-105798168D01*
X132761438Y-105815438D01*
X132744168Y-105831090D01*
X132725448Y-105844974D01*
X132705457Y-105856956D01*
X132684387Y-105866921D01*
X132662443Y-105874773D01*
X132639834Y-105880437D01*
X132616779Y-105883856D01*
X132593500Y-105885000D01*
X132018500Y-105885000D01*
X131995221Y-105883856D01*
X131972166Y-105880437D01*
X131949557Y-105874773D01*
X131927613Y-105866921D01*
X131906543Y-105856956D01*
X131886552Y-105844974D01*
X131867832Y-105831090D01*
X131850562Y-105815438D01*
X131834910Y-105798168D01*
X131821026Y-105779448D01*
X131809044Y-105759457D01*
X131799079Y-105738387D01*
X131791227Y-105716443D01*
X131785563Y-105693834D01*
X131782144Y-105670779D01*
X131781000Y-105647500D01*
X131781000Y-105172500D01*
X131782144Y-105149221D01*
X131785563Y-105126166D01*
X131791227Y-105103557D01*
X131799079Y-105081613D01*
X131809044Y-105060543D01*
X131821026Y-105040552D01*
X131834910Y-105021832D01*
X131850562Y-105004562D01*
X131867832Y-104988910D01*
X131886552Y-104975026D01*
X131906543Y-104963044D01*
X131927613Y-104953079D01*
X131949557Y-104945227D01*
X131972166Y-104939563D01*
X131995221Y-104936144D01*
X132018500Y-104935000D01*
X132593500Y-104935000D01*
X132616779Y-104936144D01*
X132616779Y-104936144D01*
G37*
D11*
G04 #@! TD*
G04 #@! TO.P,D2,1*
G04 #@! TO.N,GND*
X132306000Y-105410000D03*
D10*
G04 #@! TO.N,Net-(D2-Pad2)*
G04 #@! TO.C,D2*
G36*
X130866779Y-104936144D02*
X130889834Y-104939563D01*
X130912443Y-104945227D01*
X130934387Y-104953079D01*
X130955457Y-104963044D01*
X130975448Y-104975026D01*
X130994168Y-104988910D01*
X131011438Y-105004562D01*
X131027090Y-105021832D01*
X131040974Y-105040552D01*
X131052956Y-105060543D01*
X131062921Y-105081613D01*
X131070773Y-105103557D01*
X131076437Y-105126166D01*
X131079856Y-105149221D01*
X131081000Y-105172500D01*
X131081000Y-105647500D01*
X131079856Y-105670779D01*
X131076437Y-105693834D01*
X131070773Y-105716443D01*
X131062921Y-105738387D01*
X131052956Y-105759457D01*
X131040974Y-105779448D01*
X131027090Y-105798168D01*
X131011438Y-105815438D01*
X130994168Y-105831090D01*
X130975448Y-105844974D01*
X130955457Y-105856956D01*
X130934387Y-105866921D01*
X130912443Y-105874773D01*
X130889834Y-105880437D01*
X130866779Y-105883856D01*
X130843500Y-105885000D01*
X130268500Y-105885000D01*
X130245221Y-105883856D01*
X130222166Y-105880437D01*
X130199557Y-105874773D01*
X130177613Y-105866921D01*
X130156543Y-105856956D01*
X130136552Y-105844974D01*
X130117832Y-105831090D01*
X130100562Y-105815438D01*
X130084910Y-105798168D01*
X130071026Y-105779448D01*
X130059044Y-105759457D01*
X130049079Y-105738387D01*
X130041227Y-105716443D01*
X130035563Y-105693834D01*
X130032144Y-105670779D01*
X130031000Y-105647500D01*
X130031000Y-105172500D01*
X130032144Y-105149221D01*
X130035563Y-105126166D01*
X130041227Y-105103557D01*
X130049079Y-105081613D01*
X130059044Y-105060543D01*
X130071026Y-105040552D01*
X130084910Y-105021832D01*
X130100562Y-105004562D01*
X130117832Y-104988910D01*
X130136552Y-104975026D01*
X130156543Y-104963044D01*
X130177613Y-104953079D01*
X130199557Y-104945227D01*
X130222166Y-104939563D01*
X130245221Y-104936144D01*
X130268500Y-104935000D01*
X130843500Y-104935000D01*
X130866779Y-104936144D01*
X130866779Y-104936144D01*
G37*
D11*
G04 #@! TD*
G04 #@! TO.P,D2,2*
G04 #@! TO.N,Net-(D2-Pad2)*
X130556000Y-105410000D03*
D10*
G04 #@! TO.N,Net-(D1-Pad2)*
G04 #@! TO.C,R1*
G36*
X126040779Y-99856144D02*
X126063834Y-99859563D01*
X126086443Y-99865227D01*
X126108387Y-99873079D01*
X126129457Y-99883044D01*
X126149448Y-99895026D01*
X126168168Y-99908910D01*
X126185438Y-99924562D01*
X126201090Y-99941832D01*
X126214974Y-99960552D01*
X126226956Y-99980543D01*
X126236921Y-100001613D01*
X126244773Y-100023557D01*
X126250437Y-100046166D01*
X126253856Y-100069221D01*
X126255000Y-100092500D01*
X126255000Y-100567500D01*
X126253856Y-100590779D01*
X126250437Y-100613834D01*
X126244773Y-100636443D01*
X126236921Y-100658387D01*
X126226956Y-100679457D01*
X126214974Y-100699448D01*
X126201090Y-100718168D01*
X126185438Y-100735438D01*
X126168168Y-100751090D01*
X126149448Y-100764974D01*
X126129457Y-100776956D01*
X126108387Y-100786921D01*
X126086443Y-100794773D01*
X126063834Y-100800437D01*
X126040779Y-100803856D01*
X126017500Y-100805000D01*
X125442500Y-100805000D01*
X125419221Y-100803856D01*
X125396166Y-100800437D01*
X125373557Y-100794773D01*
X125351613Y-100786921D01*
X125330543Y-100776956D01*
X125310552Y-100764974D01*
X125291832Y-100751090D01*
X125274562Y-100735438D01*
X125258910Y-100718168D01*
X125245026Y-100699448D01*
X125233044Y-100679457D01*
X125223079Y-100658387D01*
X125215227Y-100636443D01*
X125209563Y-100613834D01*
X125206144Y-100590779D01*
X125205000Y-100567500D01*
X125205000Y-100092500D01*
X125206144Y-100069221D01*
X125209563Y-100046166D01*
X125215227Y-100023557D01*
X125223079Y-100001613D01*
X125233044Y-99980543D01*
X125245026Y-99960552D01*
X125258910Y-99941832D01*
X125274562Y-99924562D01*
X125291832Y-99908910D01*
X125310552Y-99895026D01*
X125330543Y-99883044D01*
X125351613Y-99873079D01*
X125373557Y-99865227D01*
X125396166Y-99859563D01*
X125419221Y-99856144D01*
X125442500Y-99855000D01*
X126017500Y-99855000D01*
X126040779Y-99856144D01*
X126040779Y-99856144D01*
G37*
D11*
G04 #@! TD*
G04 #@! TO.P,R1,2*
G04 #@! TO.N,Net-(D1-Pad2)*
X125730000Y-100330000D03*
D10*
G04 #@! TO.N,Net-(R1-Pad1)*
G04 #@! TO.C,R1*
G36*
X124290779Y-99856144D02*
X124313834Y-99859563D01*
X124336443Y-99865227D01*
X124358387Y-99873079D01*
X124379457Y-99883044D01*
X124399448Y-99895026D01*
X124418168Y-99908910D01*
X124435438Y-99924562D01*
X124451090Y-99941832D01*
X124464974Y-99960552D01*
X124476956Y-99980543D01*
X124486921Y-100001613D01*
X124494773Y-100023557D01*
X124500437Y-100046166D01*
X124503856Y-100069221D01*
X124505000Y-100092500D01*
X124505000Y-100567500D01*
X124503856Y-100590779D01*
X124500437Y-100613834D01*
X124494773Y-100636443D01*
X124486921Y-100658387D01*
X124476956Y-100679457D01*
X124464974Y-100699448D01*
X124451090Y-100718168D01*
X124435438Y-100735438D01*
X124418168Y-100751090D01*
X124399448Y-100764974D01*
X124379457Y-100776956D01*
X124358387Y-100786921D01*
X124336443Y-100794773D01*
X124313834Y-100800437D01*
X124290779Y-100803856D01*
X124267500Y-100805000D01*
X123692500Y-100805000D01*
X123669221Y-100803856D01*
X123646166Y-100800437D01*
X123623557Y-100794773D01*
X123601613Y-100786921D01*
X123580543Y-100776956D01*
X123560552Y-100764974D01*
X123541832Y-100751090D01*
X123524562Y-100735438D01*
X123508910Y-100718168D01*
X123495026Y-100699448D01*
X123483044Y-100679457D01*
X123473079Y-100658387D01*
X123465227Y-100636443D01*
X123459563Y-100613834D01*
X123456144Y-100590779D01*
X123455000Y-100567500D01*
X123455000Y-100092500D01*
X123456144Y-100069221D01*
X123459563Y-100046166D01*
X123465227Y-100023557D01*
X123473079Y-100001613D01*
X123483044Y-99980543D01*
X123495026Y-99960552D01*
X123508910Y-99941832D01*
X123524562Y-99924562D01*
X123541832Y-99908910D01*
X123560552Y-99895026D01*
X123580543Y-99883044D01*
X123601613Y-99873079D01*
X123623557Y-99865227D01*
X123646166Y-99859563D01*
X123669221Y-99856144D01*
X123692500Y-99855000D01*
X124267500Y-99855000D01*
X124290779Y-99856144D01*
X124290779Y-99856144D01*
G37*
D11*
G04 #@! TD*
G04 #@! TO.P,R1,1*
G04 #@! TO.N,Net-(R1-Pad1)*
X123980000Y-100330000D03*
D10*
G04 #@! TO.N,Net-(D2-Pad2)*
G04 #@! TO.C,R2*
G36*
X126040779Y-104936144D02*
X126063834Y-104939563D01*
X126086443Y-104945227D01*
X126108387Y-104953079D01*
X126129457Y-104963044D01*
X126149448Y-104975026D01*
X126168168Y-104988910D01*
X126185438Y-105004562D01*
X126201090Y-105021832D01*
X126214974Y-105040552D01*
X126226956Y-105060543D01*
X126236921Y-105081613D01*
X126244773Y-105103557D01*
X126250437Y-105126166D01*
X126253856Y-105149221D01*
X126255000Y-105172500D01*
X126255000Y-105647500D01*
X126253856Y-105670779D01*
X126250437Y-105693834D01*
X126244773Y-105716443D01*
X126236921Y-105738387D01*
X126226956Y-105759457D01*
X126214974Y-105779448D01*
X126201090Y-105798168D01*
X126185438Y-105815438D01*
X126168168Y-105831090D01*
X126149448Y-105844974D01*
X126129457Y-105856956D01*
X126108387Y-105866921D01*
X126086443Y-105874773D01*
X126063834Y-105880437D01*
X126040779Y-105883856D01*
X126017500Y-105885000D01*
X125442500Y-105885000D01*
X125419221Y-105883856D01*
X125396166Y-105880437D01*
X125373557Y-105874773D01*
X125351613Y-105866921D01*
X125330543Y-105856956D01*
X125310552Y-105844974D01*
X125291832Y-105831090D01*
X125274562Y-105815438D01*
X125258910Y-105798168D01*
X125245026Y-105779448D01*
X125233044Y-105759457D01*
X125223079Y-105738387D01*
X125215227Y-105716443D01*
X125209563Y-105693834D01*
X125206144Y-105670779D01*
X125205000Y-105647500D01*
X125205000Y-105172500D01*
X125206144Y-105149221D01*
X125209563Y-105126166D01*
X125215227Y-105103557D01*
X125223079Y-105081613D01*
X125233044Y-105060543D01*
X125245026Y-105040552D01*
X125258910Y-105021832D01*
X125274562Y-105004562D01*
X125291832Y-104988910D01*
X125310552Y-104975026D01*
X125330543Y-104963044D01*
X125351613Y-104953079D01*
X125373557Y-104945227D01*
X125396166Y-104939563D01*
X125419221Y-104936144D01*
X125442500Y-104935000D01*
X126017500Y-104935000D01*
X126040779Y-104936144D01*
X126040779Y-104936144D01*
G37*
D11*
G04 #@! TD*
G04 #@! TO.P,R2,1*
G04 #@! TO.N,Net-(D2-Pad2)*
X125730000Y-105410000D03*
D10*
G04 #@! TO.N,Net-(R2-Pad2)*
G04 #@! TO.C,R2*
G36*
X124290779Y-104936144D02*
X124313834Y-104939563D01*
X124336443Y-104945227D01*
X124358387Y-104953079D01*
X124379457Y-104963044D01*
X124399448Y-104975026D01*
X124418168Y-104988910D01*
X124435438Y-105004562D01*
X124451090Y-105021832D01*
X124464974Y-105040552D01*
X124476956Y-105060543D01*
X124486921Y-105081613D01*
X124494773Y-105103557D01*
X124500437Y-105126166D01*
X124503856Y-105149221D01*
X124505000Y-105172500D01*
X124505000Y-105647500D01*
X124503856Y-105670779D01*
X124500437Y-105693834D01*
X124494773Y-105716443D01*
X124486921Y-105738387D01*
X124476956Y-105759457D01*
X124464974Y-105779448D01*
X124451090Y-105798168D01*
X124435438Y-105815438D01*
X124418168Y-105831090D01*
X124399448Y-105844974D01*
X124379457Y-105856956D01*
X124358387Y-105866921D01*
X124336443Y-105874773D01*
X124313834Y-105880437D01*
X124290779Y-105883856D01*
X124267500Y-105885000D01*
X123692500Y-105885000D01*
X123669221Y-105883856D01*
X123646166Y-105880437D01*
X123623557Y-105874773D01*
X123601613Y-105866921D01*
X123580543Y-105856956D01*
X123560552Y-105844974D01*
X123541832Y-105831090D01*
X123524562Y-105815438D01*
X123508910Y-105798168D01*
X123495026Y-105779448D01*
X123483044Y-105759457D01*
X123473079Y-105738387D01*
X123465227Y-105716443D01*
X123459563Y-105693834D01*
X123456144Y-105670779D01*
X123455000Y-105647500D01*
X123455000Y-105172500D01*
X123456144Y-105149221D01*
X123459563Y-105126166D01*
X123465227Y-105103557D01*
X123473079Y-105081613D01*
X123483044Y-105060543D01*
X123495026Y-105040552D01*
X123508910Y-105021832D01*
X123524562Y-105004562D01*
X123541832Y-104988910D01*
X123560552Y-104975026D01*
X123580543Y-104963044D01*
X123601613Y-104953079D01*
X123623557Y-104945227D01*
X123646166Y-104939563D01*
X123669221Y-104936144D01*
X123692500Y-104935000D01*
X124267500Y-104935000D01*
X124290779Y-104936144D01*
X124290779Y-104936144D01*
G37*
D11*
G04 #@! TD*
G04 #@! TO.P,R2,2*
G04 #@! TO.N,Net-(R2-Pad2)*
X123980000Y-105410000D03*
D10*
G04 #@! TO.N,Net-(R3-Pad2)*
G04 #@! TO.C,R3*
G36*
X124262779Y-110270144D02*
X124285834Y-110273563D01*
X124308443Y-110279227D01*
X124330387Y-110287079D01*
X124351457Y-110297044D01*
X124371448Y-110309026D01*
X124390168Y-110322910D01*
X124407438Y-110338562D01*
X124423090Y-110355832D01*
X124436974Y-110374552D01*
X124448956Y-110394543D01*
X124458921Y-110415613D01*
X124466773Y-110437557D01*
X124472437Y-110460166D01*
X124475856Y-110483221D01*
X124477000Y-110506500D01*
X124477000Y-110981500D01*
X124475856Y-111004779D01*
X124472437Y-111027834D01*
X124466773Y-111050443D01*
X124458921Y-111072387D01*
X124448956Y-111093457D01*
X124436974Y-111113448D01*
X124423090Y-111132168D01*
X124407438Y-111149438D01*
X124390168Y-111165090D01*
X124371448Y-111178974D01*
X124351457Y-111190956D01*
X124330387Y-111200921D01*
X124308443Y-111208773D01*
X124285834Y-111214437D01*
X124262779Y-111217856D01*
X124239500Y-111219000D01*
X123664500Y-111219000D01*
X123641221Y-111217856D01*
X123618166Y-111214437D01*
X123595557Y-111208773D01*
X123573613Y-111200921D01*
X123552543Y-111190956D01*
X123532552Y-111178974D01*
X123513832Y-111165090D01*
X123496562Y-111149438D01*
X123480910Y-111132168D01*
X123467026Y-111113448D01*
X123455044Y-111093457D01*
X123445079Y-111072387D01*
X123437227Y-111050443D01*
X123431563Y-111027834D01*
X123428144Y-111004779D01*
X123427000Y-110981500D01*
X123427000Y-110506500D01*
X123428144Y-110483221D01*
X123431563Y-110460166D01*
X123437227Y-110437557D01*
X123445079Y-110415613D01*
X123455044Y-110394543D01*
X123467026Y-110374552D01*
X123480910Y-110355832D01*
X123496562Y-110338562D01*
X123513832Y-110322910D01*
X123532552Y-110309026D01*
X123552543Y-110297044D01*
X123573613Y-110287079D01*
X123595557Y-110279227D01*
X123618166Y-110273563D01*
X123641221Y-110270144D01*
X123664500Y-110269000D01*
X124239500Y-110269000D01*
X124262779Y-110270144D01*
X124262779Y-110270144D01*
G37*
D11*
G04 #@! TD*
G04 #@! TO.P,R3,2*
G04 #@! TO.N,Net-(R3-Pad2)*
X123952000Y-110744000D03*
D10*
G04 #@! TO.N,Net-(D3-Pad2)*
G04 #@! TO.C,R3*
G36*
X126012779Y-110270144D02*
X126035834Y-110273563D01*
X126058443Y-110279227D01*
X126080387Y-110287079D01*
X126101457Y-110297044D01*
X126121448Y-110309026D01*
X126140168Y-110322910D01*
X126157438Y-110338562D01*
X126173090Y-110355832D01*
X126186974Y-110374552D01*
X126198956Y-110394543D01*
X126208921Y-110415613D01*
X126216773Y-110437557D01*
X126222437Y-110460166D01*
X126225856Y-110483221D01*
X126227000Y-110506500D01*
X126227000Y-110981500D01*
X126225856Y-111004779D01*
X126222437Y-111027834D01*
X126216773Y-111050443D01*
X126208921Y-111072387D01*
X126198956Y-111093457D01*
X126186974Y-111113448D01*
X126173090Y-111132168D01*
X126157438Y-111149438D01*
X126140168Y-111165090D01*
X126121448Y-111178974D01*
X126101457Y-111190956D01*
X126080387Y-111200921D01*
X126058443Y-111208773D01*
X126035834Y-111214437D01*
X126012779Y-111217856D01*
X125989500Y-111219000D01*
X125414500Y-111219000D01*
X125391221Y-111217856D01*
X125368166Y-111214437D01*
X125345557Y-111208773D01*
X125323613Y-111200921D01*
X125302543Y-111190956D01*
X125282552Y-111178974D01*
X125263832Y-111165090D01*
X125246562Y-111149438D01*
X125230910Y-111132168D01*
X125217026Y-111113448D01*
X125205044Y-111093457D01*
X125195079Y-111072387D01*
X125187227Y-111050443D01*
X125181563Y-111027834D01*
X125178144Y-111004779D01*
X125177000Y-110981500D01*
X125177000Y-110506500D01*
X125178144Y-110483221D01*
X125181563Y-110460166D01*
X125187227Y-110437557D01*
X125195079Y-110415613D01*
X125205044Y-110394543D01*
X125217026Y-110374552D01*
X125230910Y-110355832D01*
X125246562Y-110338562D01*
X125263832Y-110322910D01*
X125282552Y-110309026D01*
X125302543Y-110297044D01*
X125323613Y-110287079D01*
X125345557Y-110279227D01*
X125368166Y-110273563D01*
X125391221Y-110270144D01*
X125414500Y-110269000D01*
X125989500Y-110269000D01*
X126012779Y-110270144D01*
X126012779Y-110270144D01*
G37*
D11*
G04 #@! TD*
G04 #@! TO.P,R3,1*
G04 #@! TO.N,Net-(D3-Pad2)*
X125702000Y-110744000D03*
D10*
G04 #@! TO.N,Net-(D4-Pad2)*
G04 #@! TO.C,R4*
G36*
X143820779Y-110270144D02*
X143843834Y-110273563D01*
X143866443Y-110279227D01*
X143888387Y-110287079D01*
X143909457Y-110297044D01*
X143929448Y-110309026D01*
X143948168Y-110322910D01*
X143965438Y-110338562D01*
X143981090Y-110355832D01*
X143994974Y-110374552D01*
X144006956Y-110394543D01*
X144016921Y-110415613D01*
X144024773Y-110437557D01*
X144030437Y-110460166D01*
X144033856Y-110483221D01*
X144035000Y-110506500D01*
X144035000Y-110981500D01*
X144033856Y-111004779D01*
X144030437Y-111027834D01*
X144024773Y-111050443D01*
X144016921Y-111072387D01*
X144006956Y-111093457D01*
X143994974Y-111113448D01*
X143981090Y-111132168D01*
X143965438Y-111149438D01*
X143948168Y-111165090D01*
X143929448Y-111178974D01*
X143909457Y-111190956D01*
X143888387Y-111200921D01*
X143866443Y-111208773D01*
X143843834Y-111214437D01*
X143820779Y-111217856D01*
X143797500Y-111219000D01*
X143222500Y-111219000D01*
X143199221Y-111217856D01*
X143176166Y-111214437D01*
X143153557Y-111208773D01*
X143131613Y-111200921D01*
X143110543Y-111190956D01*
X143090552Y-111178974D01*
X143071832Y-111165090D01*
X143054562Y-111149438D01*
X143038910Y-111132168D01*
X143025026Y-111113448D01*
X143013044Y-111093457D01*
X143003079Y-111072387D01*
X142995227Y-111050443D01*
X142989563Y-111027834D01*
X142986144Y-111004779D01*
X142985000Y-110981500D01*
X142985000Y-110506500D01*
X142986144Y-110483221D01*
X142989563Y-110460166D01*
X142995227Y-110437557D01*
X143003079Y-110415613D01*
X143013044Y-110394543D01*
X143025026Y-110374552D01*
X143038910Y-110355832D01*
X143054562Y-110338562D01*
X143071832Y-110322910D01*
X143090552Y-110309026D01*
X143110543Y-110297044D01*
X143131613Y-110287079D01*
X143153557Y-110279227D01*
X143176166Y-110273563D01*
X143199221Y-110270144D01*
X143222500Y-110269000D01*
X143797500Y-110269000D01*
X143820779Y-110270144D01*
X143820779Y-110270144D01*
G37*
D11*
G04 #@! TD*
G04 #@! TO.P,R4,1*
G04 #@! TO.N,Net-(D4-Pad2)*
X143510000Y-110744000D03*
D10*
G04 #@! TO.N,Net-(R4-Pad2)*
G04 #@! TO.C,R4*
G36*
X145570779Y-110270144D02*
X145593834Y-110273563D01*
X145616443Y-110279227D01*
X145638387Y-110287079D01*
X145659457Y-110297044D01*
X145679448Y-110309026D01*
X145698168Y-110322910D01*
X145715438Y-110338562D01*
X145731090Y-110355832D01*
X145744974Y-110374552D01*
X145756956Y-110394543D01*
X145766921Y-110415613D01*
X145774773Y-110437557D01*
X145780437Y-110460166D01*
X145783856Y-110483221D01*
X145785000Y-110506500D01*
X145785000Y-110981500D01*
X145783856Y-111004779D01*
X145780437Y-111027834D01*
X145774773Y-111050443D01*
X145766921Y-111072387D01*
X145756956Y-111093457D01*
X145744974Y-111113448D01*
X145731090Y-111132168D01*
X145715438Y-111149438D01*
X145698168Y-111165090D01*
X145679448Y-111178974D01*
X145659457Y-111190956D01*
X145638387Y-111200921D01*
X145616443Y-111208773D01*
X145593834Y-111214437D01*
X145570779Y-111217856D01*
X145547500Y-111219000D01*
X144972500Y-111219000D01*
X144949221Y-111217856D01*
X144926166Y-111214437D01*
X144903557Y-111208773D01*
X144881613Y-111200921D01*
X144860543Y-111190956D01*
X144840552Y-111178974D01*
X144821832Y-111165090D01*
X144804562Y-111149438D01*
X144788910Y-111132168D01*
X144775026Y-111113448D01*
X144763044Y-111093457D01*
X144753079Y-111072387D01*
X144745227Y-111050443D01*
X144739563Y-111027834D01*
X144736144Y-111004779D01*
X144735000Y-110981500D01*
X144735000Y-110506500D01*
X144736144Y-110483221D01*
X144739563Y-110460166D01*
X144745227Y-110437557D01*
X144753079Y-110415613D01*
X144763044Y-110394543D01*
X144775026Y-110374552D01*
X144788910Y-110355832D01*
X144804562Y-110338562D01*
X144821832Y-110322910D01*
X144840552Y-110309026D01*
X144860543Y-110297044D01*
X144881613Y-110287079D01*
X144903557Y-110279227D01*
X144926166Y-110273563D01*
X144949221Y-110270144D01*
X144972500Y-110269000D01*
X145547500Y-110269000D01*
X145570779Y-110270144D01*
X145570779Y-110270144D01*
G37*
D11*
G04 #@! TD*
G04 #@! TO.P,R4,2*
G04 #@! TO.N,Net-(R4-Pad2)*
X145260000Y-110744000D03*
D10*
G04 #@! TO.N,Net-(R5-Pad2)*
G04 #@! TO.C,R5*
G36*
X145570779Y-104936144D02*
X145593834Y-104939563D01*
X145616443Y-104945227D01*
X145638387Y-104953079D01*
X145659457Y-104963044D01*
X145679448Y-104975026D01*
X145698168Y-104988910D01*
X145715438Y-105004562D01*
X145731090Y-105021832D01*
X145744974Y-105040552D01*
X145756956Y-105060543D01*
X145766921Y-105081613D01*
X145774773Y-105103557D01*
X145780437Y-105126166D01*
X145783856Y-105149221D01*
X145785000Y-105172500D01*
X145785000Y-105647500D01*
X145783856Y-105670779D01*
X145780437Y-105693834D01*
X145774773Y-105716443D01*
X145766921Y-105738387D01*
X145756956Y-105759457D01*
X145744974Y-105779448D01*
X145731090Y-105798168D01*
X145715438Y-105815438D01*
X145698168Y-105831090D01*
X145679448Y-105844974D01*
X145659457Y-105856956D01*
X145638387Y-105866921D01*
X145616443Y-105874773D01*
X145593834Y-105880437D01*
X145570779Y-105883856D01*
X145547500Y-105885000D01*
X144972500Y-105885000D01*
X144949221Y-105883856D01*
X144926166Y-105880437D01*
X144903557Y-105874773D01*
X144881613Y-105866921D01*
X144860543Y-105856956D01*
X144840552Y-105844974D01*
X144821832Y-105831090D01*
X144804562Y-105815438D01*
X144788910Y-105798168D01*
X144775026Y-105779448D01*
X144763044Y-105759457D01*
X144753079Y-105738387D01*
X144745227Y-105716443D01*
X144739563Y-105693834D01*
X144736144Y-105670779D01*
X144735000Y-105647500D01*
X144735000Y-105172500D01*
X144736144Y-105149221D01*
X144739563Y-105126166D01*
X144745227Y-105103557D01*
X144753079Y-105081613D01*
X144763044Y-105060543D01*
X144775026Y-105040552D01*
X144788910Y-105021832D01*
X144804562Y-105004562D01*
X144821832Y-104988910D01*
X144840552Y-104975026D01*
X144860543Y-104963044D01*
X144881613Y-104953079D01*
X144903557Y-104945227D01*
X144926166Y-104939563D01*
X144949221Y-104936144D01*
X144972500Y-104935000D01*
X145547500Y-104935000D01*
X145570779Y-104936144D01*
X145570779Y-104936144D01*
G37*
D11*
G04 #@! TD*
G04 #@! TO.P,R5,2*
G04 #@! TO.N,Net-(R5-Pad2)*
X145260000Y-105410000D03*
D10*
G04 #@! TO.N,Net-(D5-Pad2)*
G04 #@! TO.C,R5*
G36*
X143820779Y-104936144D02*
X143843834Y-104939563D01*
X143866443Y-104945227D01*
X143888387Y-104953079D01*
X143909457Y-104963044D01*
X143929448Y-104975026D01*
X143948168Y-104988910D01*
X143965438Y-105004562D01*
X143981090Y-105021832D01*
X143994974Y-105040552D01*
X144006956Y-105060543D01*
X144016921Y-105081613D01*
X144024773Y-105103557D01*
X144030437Y-105126166D01*
X144033856Y-105149221D01*
X144035000Y-105172500D01*
X144035000Y-105647500D01*
X144033856Y-105670779D01*
X144030437Y-105693834D01*
X144024773Y-105716443D01*
X144016921Y-105738387D01*
X144006956Y-105759457D01*
X143994974Y-105779448D01*
X143981090Y-105798168D01*
X143965438Y-105815438D01*
X143948168Y-105831090D01*
X143929448Y-105844974D01*
X143909457Y-105856956D01*
X143888387Y-105866921D01*
X143866443Y-105874773D01*
X143843834Y-105880437D01*
X143820779Y-105883856D01*
X143797500Y-105885000D01*
X143222500Y-105885000D01*
X143199221Y-105883856D01*
X143176166Y-105880437D01*
X143153557Y-105874773D01*
X143131613Y-105866921D01*
X143110543Y-105856956D01*
X143090552Y-105844974D01*
X143071832Y-105831090D01*
X143054562Y-105815438D01*
X143038910Y-105798168D01*
X143025026Y-105779448D01*
X143013044Y-105759457D01*
X143003079Y-105738387D01*
X142995227Y-105716443D01*
X142989563Y-105693834D01*
X142986144Y-105670779D01*
X142985000Y-105647500D01*
X142985000Y-105172500D01*
X142986144Y-105149221D01*
X142989563Y-105126166D01*
X142995227Y-105103557D01*
X143003079Y-105081613D01*
X143013044Y-105060543D01*
X143025026Y-105040552D01*
X143038910Y-105021832D01*
X143054562Y-105004562D01*
X143071832Y-104988910D01*
X143090552Y-104975026D01*
X143110543Y-104963044D01*
X143131613Y-104953079D01*
X143153557Y-104945227D01*
X143176166Y-104939563D01*
X143199221Y-104936144D01*
X143222500Y-104935000D01*
X143797500Y-104935000D01*
X143820779Y-104936144D01*
X143820779Y-104936144D01*
G37*
D11*
G04 #@! TD*
G04 #@! TO.P,R5,1*
G04 #@! TO.N,Net-(D5-Pad2)*
X143510000Y-105410000D03*
D10*
G04 #@! TO.N,Net-(D6-Pad2)*
G04 #@! TO.C,R6*
G36*
X143820779Y-99856144D02*
X143843834Y-99859563D01*
X143866443Y-99865227D01*
X143888387Y-99873079D01*
X143909457Y-99883044D01*
X143929448Y-99895026D01*
X143948168Y-99908910D01*
X143965438Y-99924562D01*
X143981090Y-99941832D01*
X143994974Y-99960552D01*
X144006956Y-99980543D01*
X144016921Y-100001613D01*
X144024773Y-100023557D01*
X144030437Y-100046166D01*
X144033856Y-100069221D01*
X144035000Y-100092500D01*
X144035000Y-100567500D01*
X144033856Y-100590779D01*
X144030437Y-100613834D01*
X144024773Y-100636443D01*
X144016921Y-100658387D01*
X144006956Y-100679457D01*
X143994974Y-100699448D01*
X143981090Y-100718168D01*
X143965438Y-100735438D01*
X143948168Y-100751090D01*
X143929448Y-100764974D01*
X143909457Y-100776956D01*
X143888387Y-100786921D01*
X143866443Y-100794773D01*
X143843834Y-100800437D01*
X143820779Y-100803856D01*
X143797500Y-100805000D01*
X143222500Y-100805000D01*
X143199221Y-100803856D01*
X143176166Y-100800437D01*
X143153557Y-100794773D01*
X143131613Y-100786921D01*
X143110543Y-100776956D01*
X143090552Y-100764974D01*
X143071832Y-100751090D01*
X143054562Y-100735438D01*
X143038910Y-100718168D01*
X143025026Y-100699448D01*
X143013044Y-100679457D01*
X143003079Y-100658387D01*
X142995227Y-100636443D01*
X142989563Y-100613834D01*
X142986144Y-100590779D01*
X142985000Y-100567500D01*
X142985000Y-100092500D01*
X142986144Y-100069221D01*
X142989563Y-100046166D01*
X142995227Y-100023557D01*
X143003079Y-100001613D01*
X143013044Y-99980543D01*
X143025026Y-99960552D01*
X143038910Y-99941832D01*
X143054562Y-99924562D01*
X143071832Y-99908910D01*
X143090552Y-99895026D01*
X143110543Y-99883044D01*
X143131613Y-99873079D01*
X143153557Y-99865227D01*
X143176166Y-99859563D01*
X143199221Y-99856144D01*
X143222500Y-99855000D01*
X143797500Y-99855000D01*
X143820779Y-99856144D01*
X143820779Y-99856144D01*
G37*
D11*
G04 #@! TD*
G04 #@! TO.P,R6,1*
G04 #@! TO.N,Net-(D6-Pad2)*
X143510000Y-100330000D03*
D10*
G04 #@! TO.N,Net-(R6-Pad2)*
G04 #@! TO.C,R6*
G36*
X145570779Y-99856144D02*
X145593834Y-99859563D01*
X145616443Y-99865227D01*
X145638387Y-99873079D01*
X145659457Y-99883044D01*
X145679448Y-99895026D01*
X145698168Y-99908910D01*
X145715438Y-99924562D01*
X145731090Y-99941832D01*
X145744974Y-99960552D01*
X145756956Y-99980543D01*
X145766921Y-100001613D01*
X145774773Y-100023557D01*
X145780437Y-100046166D01*
X145783856Y-100069221D01*
X145785000Y-100092500D01*
X145785000Y-100567500D01*
X145783856Y-100590779D01*
X145780437Y-100613834D01*
X145774773Y-100636443D01*
X145766921Y-100658387D01*
X145756956Y-100679457D01*
X145744974Y-100699448D01*
X145731090Y-100718168D01*
X145715438Y-100735438D01*
X145698168Y-100751090D01*
X145679448Y-100764974D01*
X145659457Y-100776956D01*
X145638387Y-100786921D01*
X145616443Y-100794773D01*
X145593834Y-100800437D01*
X145570779Y-100803856D01*
X145547500Y-100805000D01*
X144972500Y-100805000D01*
X144949221Y-100803856D01*
X144926166Y-100800437D01*
X144903557Y-100794773D01*
X144881613Y-100786921D01*
X144860543Y-100776956D01*
X144840552Y-100764974D01*
X144821832Y-100751090D01*
X144804562Y-100735438D01*
X144788910Y-100718168D01*
X144775026Y-100699448D01*
X144763044Y-100679457D01*
X144753079Y-100658387D01*
X144745227Y-100636443D01*
X144739563Y-100613834D01*
X144736144Y-100590779D01*
X144735000Y-100567500D01*
X144735000Y-100092500D01*
X144736144Y-100069221D01*
X144739563Y-100046166D01*
X144745227Y-100023557D01*
X144753079Y-100001613D01*
X144763044Y-99980543D01*
X144775026Y-99960552D01*
X144788910Y-99941832D01*
X144804562Y-99924562D01*
X144821832Y-99908910D01*
X144840552Y-99895026D01*
X144860543Y-99883044D01*
X144881613Y-99873079D01*
X144903557Y-99865227D01*
X144926166Y-99859563D01*
X144949221Y-99856144D01*
X144972500Y-99855000D01*
X145547500Y-99855000D01*
X145570779Y-99856144D01*
X145570779Y-99856144D01*
G37*
D11*
G04 #@! TD*
G04 #@! TO.P,R6,2*
G04 #@! TO.N,Net-(R6-Pad2)*
X145260000Y-100330000D03*
D14*
G04 #@! TO.P,J1,G*
G04 #@! TO.N,GND*
X93116400Y-113792000D03*
D17*
G04 #@! TO.P,J1,3*
G04 #@! TO.N,Net-(J1-Pad3)*
X98958400Y-113792000D03*
G04 #@! TO.P,J1,1*
G04 #@! TO.N,Net-(J1-Pad1)*
X98958400Y-109982000D03*
G04 #@! TO.P,J1,2*
G04 #@! TO.N,Net-(J1-Pad2)*
X98958400Y-117602000D03*
G04 #@! TD*
D18*
G04 #@! TO.N,Net-(J1-Pad2)*
X125984000Y-123190000D03*
G04 #@! TO.N,Net-(J1-Pad3)*
X128498600Y-122326400D03*
G04 #@! TO.N,Net-(J1-Pad1)*
X131064000Y-121412000D03*
G04 #@! TO.N,GND*
X92100400Y-77266800D03*
X123494800Y-80467200D03*
X120853200Y-80467200D03*
G04 #@! TO.N,Net-(J3-Pad2)*
X139192000Y-118364000D03*
G04 #@! TO.N,Net-(J3-Pad3)*
X136144000Y-119380000D03*
G04 #@! TO.N,Net-(J3-Pad1)*
X133604000Y-120396000D03*
G04 #@! TD*
D19*
G04 #@! TO.N,Net-(D6-Pad2)*
X138430000Y-100330000D02*
X143510000Y-100330000D01*
G04 #@! TO.N,Net-(D5-Pad2)*
X143510000Y-105410000D02*
X138176000Y-105410000D01*
G04 #@! TO.N,Net-(D4-Pad2)*
X138162000Y-110744000D02*
X143510000Y-110744000D01*
G04 #@! TO.N,Net-(D3-Pad2)*
X125702000Y-110744000D02*
X130330000Y-110744000D01*
G04 #@! TO.N,Net-(D2-Pad2)*
X125730000Y-105410000D02*
X130330000Y-105410000D01*
G04 #@! TO.N,Net-(D1-Pad2)*
X125730000Y-100330000D02*
X130330000Y-100330000D01*
D20*
G04 #@! TO.N,Net-(J1-Pad2)*
X125984000Y-123190000D02*
X125984000Y-124968000D01*
G04 #@! TO.N,Net-(J1-Pad3)*
X128498600Y-122326400D02*
X128498600Y-124866400D01*
G04 #@! TO.N,Net-(J1-Pad1)*
X131064000Y-121412000D02*
X131064000Y-124968000D01*
G04 #@! TO.N,Net-(R6-Pad2)*
X129290000Y-117602000D02*
X121924000Y-124968000D01*
X145260000Y-102080000D02*
X147574000Y-104394000D01*
X145260000Y-100330000D02*
X145260000Y-102080000D01*
X147574000Y-104394000D02*
X147574000Y-112014000D01*
X147574000Y-112014000D02*
X141986000Y-117602000D01*
X141986000Y-117602000D02*
X129290000Y-117602000D01*
G04 #@! TO.N,Net-(R5-Pad2)*
X145260000Y-105985000D02*
X146685000Y-107410000D01*
X141605000Y-116205000D02*
X128147000Y-116205000D01*
X128147000Y-116205000D02*
X119384000Y-124968000D01*
X144780000Y-113030000D02*
X141605000Y-116205000D01*
X145415000Y-113030000D02*
X144780000Y-113030000D01*
X146685000Y-111760000D02*
X145415000Y-113030000D01*
X146685000Y-107410000D02*
X146685000Y-111760000D01*
X145260000Y-105410000D02*
X145260000Y-105985000D01*
G04 #@! TO.N,Net-(R4-Pad2)*
X144331438Y-111243072D02*
X140639510Y-114935000D01*
X140639510Y-114935000D02*
X126877000Y-114935000D01*
X126877000Y-114935000D02*
X116844000Y-124968000D01*
X144760928Y-111243072D02*
X144331438Y-111243072D01*
X145260000Y-110744000D02*
X144760928Y-111243072D01*
G04 #@! TO.N,Net-(R3-Pad2)*
X123952000Y-110744000D02*
X120650000Y-114046000D01*
X120650000Y-114046000D02*
X120650000Y-118622000D01*
X120650000Y-118622000D02*
X114304000Y-124968000D01*
G04 #@! TO.N,Net-(R2-Pad2)*
X123980000Y-105410000D02*
X123980000Y-107160000D01*
X119380000Y-111760000D02*
X119380000Y-117352000D01*
X119380000Y-117352000D02*
X111764000Y-124968000D01*
X123980000Y-107160000D02*
X119380000Y-111760000D01*
G04 #@! TO.N,Net-(R1-Pad1)*
X123980000Y-100330000D02*
X123980000Y-102715000D01*
X117475000Y-109220000D02*
X117475000Y-116717000D01*
X117475000Y-116717000D02*
X109224000Y-124968000D01*
X123980000Y-102715000D02*
X117475000Y-109220000D01*
G04 #@! TO.N,GND*
X92633800Y-77266800D02*
X92100400Y-77266800D01*
X92100400Y-77266800D02*
X94335600Y-77266800D01*
X120853200Y-76758800D02*
X120904000Y-76708000D01*
X120853200Y-80467200D02*
X120853200Y-76758800D01*
D19*
G04 #@! TO.N,Net-(J3-Pad2)*
X138938000Y-124714000D02*
X138684000Y-124968000D01*
D20*
X139192000Y-118364000D02*
X139192000Y-124460000D01*
X139192000Y-124460000D02*
X138684000Y-124968000D01*
G04 #@! TO.N,Net-(J3-Pad3)*
X136144000Y-119380000D02*
X136144000Y-124968000D01*
G04 #@! TO.N,Net-(J3-Pad1)*
X133604000Y-120396000D02*
X133604000Y-124968000D01*
G04 #@! TO.N,Net-(D7-Pad2)*
X133731000Y-84455000D02*
X136680000Y-84455000D01*
X125984000Y-76708000D02*
X133731000Y-84455000D01*
G04 #@! TO.N,Net-(D7-Pad1)*
X138455400Y-84480400D02*
X138430000Y-84455000D01*
X145237200Y-84480400D02*
X138455400Y-84480400D01*
G04 #@! TD*
D21*
G04 #@! TO.N,GND*
G36*
X145739000Y-76639557D02*
X145725386Y-76708000D01*
X145739000Y-76776442D01*
X145739000Y-76776446D01*
X145779325Y-76979174D01*
X145932934Y-77209065D01*
X145990960Y-77247837D01*
X148279001Y-79535880D01*
X148279000Y-103856150D01*
X148212049Y-103755951D01*
X148138156Y-103706577D01*
X146145000Y-101713422D01*
X146145000Y-101212121D01*
X146173247Y-101193247D01*
X146365078Y-100906152D01*
X146432440Y-100567500D01*
X146432440Y-100092500D01*
X146365078Y-99753848D01*
X146173247Y-99466753D01*
X145886152Y-99274922D01*
X145547500Y-99207560D01*
X144972500Y-99207560D01*
X144633848Y-99274922D01*
X144385000Y-99441197D01*
X144136152Y-99274922D01*
X143797500Y-99207560D01*
X143222500Y-99207560D01*
X142883848Y-99274922D01*
X142596753Y-99466753D01*
X142527765Y-99570000D01*
X139412235Y-99570000D01*
X139343247Y-99466753D01*
X139056152Y-99274922D01*
X138717500Y-99207560D01*
X138142500Y-99207560D01*
X137803848Y-99274922D01*
X137635460Y-99387435D01*
X137564698Y-99316673D01*
X137331309Y-99220000D01*
X136965750Y-99220000D01*
X136807000Y-99378750D01*
X136807000Y-100203000D01*
X136827000Y-100203000D01*
X136827000Y-100457000D01*
X136807000Y-100457000D01*
X136807000Y-101281250D01*
X136965750Y-101440000D01*
X137331309Y-101440000D01*
X137564698Y-101343327D01*
X137635460Y-101272565D01*
X137803848Y-101385078D01*
X138142500Y-101452440D01*
X138717500Y-101452440D01*
X139056152Y-101385078D01*
X139343247Y-101193247D01*
X139412235Y-101090000D01*
X142527765Y-101090000D01*
X142596753Y-101193247D01*
X142883848Y-101385078D01*
X143222500Y-101452440D01*
X143797500Y-101452440D01*
X144136152Y-101385078D01*
X144375001Y-101225484D01*
X144375001Y-101992835D01*
X144357663Y-102080000D01*
X144426348Y-102425309D01*
X144572576Y-102644154D01*
X144572578Y-102644156D01*
X144621952Y-102718049D01*
X144695845Y-102767423D01*
X146689000Y-104760579D01*
X146689000Y-106162422D01*
X146389575Y-105862997D01*
X146432440Y-105647500D01*
X146432440Y-105172500D01*
X146365078Y-104833848D01*
X146173247Y-104546753D01*
X145886152Y-104354922D01*
X145547500Y-104287560D01*
X144972500Y-104287560D01*
X144633848Y-104354922D01*
X144385000Y-104521197D01*
X144136152Y-104354922D01*
X143797500Y-104287560D01*
X143222500Y-104287560D01*
X142883848Y-104354922D01*
X142596753Y-104546753D01*
X142527765Y-104650000D01*
X139158235Y-104650000D01*
X139089247Y-104546753D01*
X138802152Y-104354922D01*
X138463500Y-104287560D01*
X137888500Y-104287560D01*
X137549848Y-104354922D01*
X137381460Y-104467435D01*
X137310698Y-104396673D01*
X137077309Y-104300000D01*
X136711750Y-104300000D01*
X136553000Y-104458750D01*
X136553000Y-105283000D01*
X136573000Y-105283000D01*
X136573000Y-105537000D01*
X136553000Y-105537000D01*
X136553000Y-106361250D01*
X136711750Y-106520000D01*
X137077309Y-106520000D01*
X137310698Y-106423327D01*
X137381460Y-106352565D01*
X137549848Y-106465078D01*
X137888500Y-106532440D01*
X138463500Y-106532440D01*
X138802152Y-106465078D01*
X139089247Y-106273247D01*
X139158235Y-106170000D01*
X142527765Y-106170000D01*
X142596753Y-106273247D01*
X142883848Y-106465078D01*
X143222500Y-106532440D01*
X143797500Y-106532440D01*
X144136152Y-106465078D01*
X144385000Y-106298803D01*
X144425458Y-106325836D01*
X144426348Y-106330310D01*
X144488501Y-106423327D01*
X144554400Y-106521951D01*
X144621952Y-106623049D01*
X144695845Y-106672423D01*
X145800000Y-107776579D01*
X145800001Y-109671785D01*
X145547500Y-109621560D01*
X144972500Y-109621560D01*
X144633848Y-109688922D01*
X144385000Y-109855197D01*
X144136152Y-109688922D01*
X143797500Y-109621560D01*
X143222500Y-109621560D01*
X142883848Y-109688922D01*
X142596753Y-109880753D01*
X142527765Y-109984000D01*
X139144235Y-109984000D01*
X139075247Y-109880753D01*
X138788152Y-109688922D01*
X138449500Y-109621560D01*
X137874500Y-109621560D01*
X137535848Y-109688922D01*
X137367460Y-109801435D01*
X137296698Y-109730673D01*
X137063309Y-109634000D01*
X136697750Y-109634000D01*
X136539000Y-109792750D01*
X136539000Y-110617000D01*
X136559000Y-110617000D01*
X136559000Y-110871000D01*
X136539000Y-110871000D01*
X136539000Y-111695250D01*
X136697750Y-111854000D01*
X137063309Y-111854000D01*
X137296698Y-111757327D01*
X137367460Y-111686565D01*
X137535848Y-111799078D01*
X137874500Y-111866440D01*
X138449500Y-111866440D01*
X138788152Y-111799078D01*
X139075247Y-111607247D01*
X139144235Y-111504000D01*
X142527765Y-111504000D01*
X142596753Y-111607247D01*
X142668047Y-111654884D01*
X140272932Y-114050000D01*
X126964161Y-114050000D01*
X126877000Y-114032663D01*
X126789839Y-114050000D01*
X126789835Y-114050000D01*
X126531690Y-114101348D01*
X126312845Y-114247576D01*
X126312844Y-114247577D01*
X126238951Y-114296951D01*
X126189577Y-114370844D01*
X117020439Y-123539983D01*
X116989708Y-123533870D01*
X121214156Y-119309423D01*
X121288049Y-119260049D01*
X121483652Y-118967310D01*
X121535000Y-118709165D01*
X121535000Y-118709161D01*
X121552337Y-118622001D01*
X121535000Y-118534841D01*
X121535000Y-114412578D01*
X124081139Y-111866440D01*
X124239500Y-111866440D01*
X124578152Y-111799078D01*
X124827000Y-111632803D01*
X125075848Y-111799078D01*
X125414500Y-111866440D01*
X125989500Y-111866440D01*
X126328152Y-111799078D01*
X126615247Y-111607247D01*
X126684235Y-111504000D01*
X129573765Y-111504000D01*
X129642753Y-111607247D01*
X129929848Y-111799078D01*
X130268500Y-111866440D01*
X130843500Y-111866440D01*
X131182152Y-111799078D01*
X131350540Y-111686565D01*
X131421302Y-111757327D01*
X131654691Y-111854000D01*
X132020250Y-111854000D01*
X132179000Y-111695250D01*
X132179000Y-110871000D01*
X132433000Y-110871000D01*
X132433000Y-111695250D01*
X132591750Y-111854000D01*
X132957309Y-111854000D01*
X133190698Y-111757327D01*
X133369327Y-111578699D01*
X133466000Y-111345310D01*
X133466000Y-111029750D01*
X135252000Y-111029750D01*
X135252000Y-111345310D01*
X135348673Y-111578699D01*
X135527302Y-111757327D01*
X135760691Y-111854000D01*
X136126250Y-111854000D01*
X136285000Y-111695250D01*
X136285000Y-110871000D01*
X135410750Y-110871000D01*
X135252000Y-111029750D01*
X133466000Y-111029750D01*
X133307250Y-110871000D01*
X132433000Y-110871000D01*
X132179000Y-110871000D01*
X132159000Y-110871000D01*
X132159000Y-110617000D01*
X132179000Y-110617000D01*
X132179000Y-109792750D01*
X132433000Y-109792750D01*
X132433000Y-110617000D01*
X133307250Y-110617000D01*
X133466000Y-110458250D01*
X133466000Y-110142690D01*
X135252000Y-110142690D01*
X135252000Y-110458250D01*
X135410750Y-110617000D01*
X136285000Y-110617000D01*
X136285000Y-109792750D01*
X136126250Y-109634000D01*
X135760691Y-109634000D01*
X135527302Y-109730673D01*
X135348673Y-109909301D01*
X135252000Y-110142690D01*
X133466000Y-110142690D01*
X133369327Y-109909301D01*
X133190698Y-109730673D01*
X132957309Y-109634000D01*
X132591750Y-109634000D01*
X132433000Y-109792750D01*
X132179000Y-109792750D01*
X132020250Y-109634000D01*
X131654691Y-109634000D01*
X131421302Y-109730673D01*
X131350540Y-109801435D01*
X131182152Y-109688922D01*
X130843500Y-109621560D01*
X130268500Y-109621560D01*
X129929848Y-109688922D01*
X129642753Y-109880753D01*
X129573765Y-109984000D01*
X126684235Y-109984000D01*
X126615247Y-109880753D01*
X126328152Y-109688922D01*
X125989500Y-109621560D01*
X125414500Y-109621560D01*
X125075848Y-109688922D01*
X124827000Y-109855197D01*
X124578152Y-109688922D01*
X124239500Y-109621560D01*
X123664500Y-109621560D01*
X123325848Y-109688922D01*
X123038753Y-109880753D01*
X122846922Y-110167848D01*
X122779560Y-110506500D01*
X122779560Y-110664861D01*
X120265000Y-113179422D01*
X120265000Y-112126578D01*
X124544156Y-107847423D01*
X124618049Y-107798049D01*
X124813652Y-107505310D01*
X124865000Y-107247165D01*
X124865000Y-107247161D01*
X124882337Y-107160001D01*
X124865000Y-107072841D01*
X124865000Y-106305485D01*
X125103848Y-106465078D01*
X125442500Y-106532440D01*
X126017500Y-106532440D01*
X126356152Y-106465078D01*
X126643247Y-106273247D01*
X126712235Y-106170000D01*
X129573765Y-106170000D01*
X129642753Y-106273247D01*
X129929848Y-106465078D01*
X130268500Y-106532440D01*
X130843500Y-106532440D01*
X131182152Y-106465078D01*
X131350540Y-106352565D01*
X131421302Y-106423327D01*
X131654691Y-106520000D01*
X132020250Y-106520000D01*
X132179000Y-106361250D01*
X132179000Y-105537000D01*
X132433000Y-105537000D01*
X132433000Y-106361250D01*
X132591750Y-106520000D01*
X132957309Y-106520000D01*
X133190698Y-106423327D01*
X133369327Y-106244699D01*
X133466000Y-106011310D01*
X133466000Y-105695750D01*
X135266000Y-105695750D01*
X135266000Y-106011310D01*
X135362673Y-106244699D01*
X135541302Y-106423327D01*
X135774691Y-106520000D01*
X136140250Y-106520000D01*
X136299000Y-106361250D01*
X136299000Y-105537000D01*
X135424750Y-105537000D01*
X135266000Y-105695750D01*
X133466000Y-105695750D01*
X133307250Y-105537000D01*
X132433000Y-105537000D01*
X132179000Y-105537000D01*
X132159000Y-105537000D01*
X132159000Y-105283000D01*
X132179000Y-105283000D01*
X132179000Y-104458750D01*
X132433000Y-104458750D01*
X132433000Y-105283000D01*
X133307250Y-105283000D01*
X133466000Y-105124250D01*
X133466000Y-104808690D01*
X135266000Y-104808690D01*
X135266000Y-105124250D01*
X135424750Y-105283000D01*
X136299000Y-105283000D01*
X136299000Y-104458750D01*
X136140250Y-104300000D01*
X135774691Y-104300000D01*
X135541302Y-104396673D01*
X135362673Y-104575301D01*
X135266000Y-104808690D01*
X133466000Y-104808690D01*
X133369327Y-104575301D01*
X133190698Y-104396673D01*
X132957309Y-104300000D01*
X132591750Y-104300000D01*
X132433000Y-104458750D01*
X132179000Y-104458750D01*
X132020250Y-104300000D01*
X131654691Y-104300000D01*
X131421302Y-104396673D01*
X131350540Y-104467435D01*
X131182152Y-104354922D01*
X130843500Y-104287560D01*
X130268500Y-104287560D01*
X129929848Y-104354922D01*
X129642753Y-104546753D01*
X129573765Y-104650000D01*
X126712235Y-104650000D01*
X126643247Y-104546753D01*
X126356152Y-104354922D01*
X126017500Y-104287560D01*
X125442500Y-104287560D01*
X125103848Y-104354922D01*
X124855000Y-104521197D01*
X124606152Y-104354922D01*
X124267500Y-104287560D01*
X123692500Y-104287560D01*
X123650705Y-104295873D01*
X124544156Y-103402423D01*
X124618049Y-103353049D01*
X124813652Y-103060310D01*
X124865000Y-102802165D01*
X124865000Y-102802161D01*
X124882337Y-102715001D01*
X124865000Y-102627841D01*
X124865000Y-101225485D01*
X125103848Y-101385078D01*
X125442500Y-101452440D01*
X126017500Y-101452440D01*
X126356152Y-101385078D01*
X126643247Y-101193247D01*
X126712235Y-101090000D01*
X129347765Y-101090000D01*
X129416753Y-101193247D01*
X129703848Y-101385078D01*
X130042500Y-101452440D01*
X130617500Y-101452440D01*
X130956152Y-101385078D01*
X131124540Y-101272565D01*
X131195302Y-101343327D01*
X131428691Y-101440000D01*
X131794250Y-101440000D01*
X131953000Y-101281250D01*
X131953000Y-100457000D01*
X132207000Y-100457000D01*
X132207000Y-101281250D01*
X132365750Y-101440000D01*
X132731309Y-101440000D01*
X132964698Y-101343327D01*
X133143327Y-101164699D01*
X133240000Y-100931310D01*
X133240000Y-100615750D01*
X135520000Y-100615750D01*
X135520000Y-100931310D01*
X135616673Y-101164699D01*
X135795302Y-101343327D01*
X136028691Y-101440000D01*
X136394250Y-101440000D01*
X136553000Y-101281250D01*
X136553000Y-100457000D01*
X135678750Y-100457000D01*
X135520000Y-100615750D01*
X133240000Y-100615750D01*
X133081250Y-100457000D01*
X132207000Y-100457000D01*
X131953000Y-100457000D01*
X131933000Y-100457000D01*
X131933000Y-100203000D01*
X131953000Y-100203000D01*
X131953000Y-99378750D01*
X132207000Y-99378750D01*
X132207000Y-100203000D01*
X133081250Y-100203000D01*
X133240000Y-100044250D01*
X133240000Y-99728690D01*
X135520000Y-99728690D01*
X135520000Y-100044250D01*
X135678750Y-100203000D01*
X136553000Y-100203000D01*
X136553000Y-99378750D01*
X136394250Y-99220000D01*
X136028691Y-99220000D01*
X135795302Y-99316673D01*
X135616673Y-99495301D01*
X135520000Y-99728690D01*
X133240000Y-99728690D01*
X133143327Y-99495301D01*
X132964698Y-99316673D01*
X132731309Y-99220000D01*
X132365750Y-99220000D01*
X132207000Y-99378750D01*
X131953000Y-99378750D01*
X131794250Y-99220000D01*
X131428691Y-99220000D01*
X131195302Y-99316673D01*
X131124540Y-99387435D01*
X130956152Y-99274922D01*
X130617500Y-99207560D01*
X130042500Y-99207560D01*
X129703848Y-99274922D01*
X129416753Y-99466753D01*
X129347765Y-99570000D01*
X126712235Y-99570000D01*
X126643247Y-99466753D01*
X126356152Y-99274922D01*
X126017500Y-99207560D01*
X125442500Y-99207560D01*
X125103848Y-99274922D01*
X124855000Y-99441197D01*
X124606152Y-99274922D01*
X124267500Y-99207560D01*
X123692500Y-99207560D01*
X123353848Y-99274922D01*
X123066753Y-99466753D01*
X122874922Y-99753848D01*
X122807560Y-100092500D01*
X122807560Y-100567500D01*
X122874922Y-100906152D01*
X123066753Y-101193247D01*
X123095000Y-101212121D01*
X123095001Y-102348420D01*
X116910847Y-108532575D01*
X116836951Y-108581951D01*
X116641348Y-108874691D01*
X116590000Y-109132836D01*
X116590000Y-109132839D01*
X116572663Y-109220000D01*
X116590000Y-109307161D01*
X116590001Y-116350420D01*
X109400439Y-123539983D01*
X109365333Y-123533000D01*
X109082667Y-123533000D01*
X108664091Y-123616260D01*
X108189423Y-123933423D01*
X107954000Y-124285758D01*
X107718577Y-123933423D01*
X107243909Y-123616260D01*
X106825333Y-123533000D01*
X106542667Y-123533000D01*
X106124091Y-123616260D01*
X105649423Y-123933423D01*
X105414000Y-124285758D01*
X105178577Y-123933423D01*
X104703909Y-123616260D01*
X104285333Y-123533000D01*
X104002667Y-123533000D01*
X103584091Y-123616260D01*
X103109423Y-123933423D01*
X102792260Y-124408091D01*
X102680887Y-124968000D01*
X102792260Y-125527909D01*
X103109423Y-126002577D01*
X103584091Y-126319740D01*
X104002667Y-126403000D01*
X104285333Y-126403000D01*
X104703909Y-126319740D01*
X105178577Y-126002577D01*
X105414000Y-125650242D01*
X105649423Y-126002577D01*
X106124091Y-126319740D01*
X106542667Y-126403000D01*
X106825333Y-126403000D01*
X107243909Y-126319740D01*
X107718577Y-126002577D01*
X107954000Y-125650242D01*
X108189423Y-126002577D01*
X108664091Y-126319740D01*
X109082667Y-126403000D01*
X109365333Y-126403000D01*
X109783909Y-126319740D01*
X110258577Y-126002577D01*
X110494000Y-125650242D01*
X110729423Y-126002577D01*
X111204091Y-126319740D01*
X111622667Y-126403000D01*
X111905333Y-126403000D01*
X112323909Y-126319740D01*
X112798577Y-126002577D01*
X113034000Y-125650242D01*
X113269423Y-126002577D01*
X113744091Y-126319740D01*
X114162667Y-126403000D01*
X114445333Y-126403000D01*
X114863909Y-126319740D01*
X115338577Y-126002577D01*
X115574000Y-125650242D01*
X115809423Y-126002577D01*
X116284091Y-126319740D01*
X116702667Y-126403000D01*
X116985333Y-126403000D01*
X117403909Y-126319740D01*
X117878577Y-126002577D01*
X118114000Y-125650242D01*
X118349423Y-126002577D01*
X118824091Y-126319740D01*
X119242667Y-126403000D01*
X119525333Y-126403000D01*
X119943909Y-126319740D01*
X120418577Y-126002577D01*
X120654000Y-125650242D01*
X120889423Y-126002577D01*
X121364091Y-126319740D01*
X121782667Y-126403000D01*
X122065333Y-126403000D01*
X122483909Y-126319740D01*
X122958577Y-126002577D01*
X123275740Y-125527909D01*
X123387113Y-124968000D01*
X123352017Y-124791561D01*
X124749000Y-123394578D01*
X124749000Y-123435657D01*
X124937018Y-123889571D01*
X124968274Y-123920827D01*
X124949423Y-123933423D01*
X124632260Y-124408091D01*
X124520887Y-124968000D01*
X124632260Y-125527909D01*
X124949423Y-126002577D01*
X125424091Y-126319740D01*
X125842667Y-126403000D01*
X126125333Y-126403000D01*
X126543909Y-126319740D01*
X127018577Y-126002577D01*
X127254000Y-125650242D01*
X127489423Y-126002577D01*
X127964091Y-126319740D01*
X128382667Y-126403000D01*
X128665333Y-126403000D01*
X129083909Y-126319740D01*
X129558577Y-126002577D01*
X129794000Y-125650242D01*
X130029423Y-126002577D01*
X130504091Y-126319740D01*
X130922667Y-126403000D01*
X131205333Y-126403000D01*
X131623909Y-126319740D01*
X132098577Y-126002577D01*
X132334000Y-125650242D01*
X132569423Y-126002577D01*
X133044091Y-126319740D01*
X133462667Y-126403000D01*
X133745333Y-126403000D01*
X134163909Y-126319740D01*
X134638577Y-126002577D01*
X134874000Y-125650242D01*
X135109423Y-126002577D01*
X135584091Y-126319740D01*
X136002667Y-126403000D01*
X136285333Y-126403000D01*
X136703909Y-126319740D01*
X137178577Y-126002577D01*
X137414000Y-125650242D01*
X137649423Y-126002577D01*
X138124091Y-126319740D01*
X138542667Y-126403000D01*
X138825333Y-126403000D01*
X139243909Y-126319740D01*
X139718577Y-126002577D01*
X139954000Y-125650242D01*
X140189423Y-126002577D01*
X140664091Y-126319740D01*
X141082667Y-126403000D01*
X141365333Y-126403000D01*
X141783909Y-126319740D01*
X142258577Y-126002577D01*
X142494000Y-125650242D01*
X142729423Y-126002577D01*
X143204091Y-126319740D01*
X143622667Y-126403000D01*
X143905333Y-126403000D01*
X144323909Y-126319740D01*
X144798577Y-126002577D01*
X145115740Y-125527909D01*
X145227113Y-124968000D01*
X145115740Y-124408091D01*
X144798577Y-123933423D01*
X144323909Y-123616260D01*
X143905333Y-123533000D01*
X143622667Y-123533000D01*
X143204091Y-123616260D01*
X142729423Y-123933423D01*
X142494000Y-124285758D01*
X142258577Y-123933423D01*
X141783909Y-123616260D01*
X141365333Y-123533000D01*
X141082667Y-123533000D01*
X140664091Y-123616260D01*
X140189423Y-123933423D01*
X140077000Y-124101676D01*
X140077000Y-119225553D01*
X140238982Y-119063571D01*
X140427000Y-118609657D01*
X140427000Y-118487000D01*
X141898839Y-118487000D01*
X141986000Y-118504337D01*
X142073161Y-118487000D01*
X142073165Y-118487000D01*
X142331310Y-118435652D01*
X142624049Y-118240049D01*
X142673425Y-118166153D01*
X145739001Y-115100578D01*
X145739000Y-125700121D01*
X144496123Y-126943000D01*
X80829097Y-126943000D01*
X80830733Y-115305970D01*
X91782035Y-115305970D01*
X91941818Y-115624739D01*
X92732587Y-115934723D01*
X93581787Y-115918497D01*
X94290982Y-115624739D01*
X94450765Y-115305970D01*
X93116400Y-113971605D01*
X91782035Y-115305970D01*
X80830733Y-115305970D01*
X80831000Y-113408187D01*
X90973677Y-113408187D01*
X90989903Y-114257387D01*
X91283661Y-114966582D01*
X91602430Y-115126365D01*
X92936795Y-113792000D01*
X93296005Y-113792000D01*
X94630370Y-115126365D01*
X94949139Y-114966582D01*
X95259123Y-114175813D01*
X95242897Y-113326613D01*
X94949139Y-112617418D01*
X94630370Y-112457635D01*
X93296005Y-113792000D01*
X92936795Y-113792000D01*
X91602430Y-112457635D01*
X91283661Y-112617418D01*
X90973677Y-113408187D01*
X80831000Y-113408187D01*
X80831158Y-112278030D01*
X91782035Y-112278030D01*
X93116400Y-113612395D01*
X94450765Y-112278030D01*
X94290982Y-111959261D01*
X93500213Y-111649277D01*
X92651013Y-111665503D01*
X91941818Y-111959261D01*
X91782035Y-112278030D01*
X80831158Y-112278030D01*
X80831538Y-109577213D01*
X96923400Y-109577213D01*
X96923400Y-110386787D01*
X97233210Y-111134735D01*
X97805665Y-111707190D01*
X98239765Y-111887000D01*
X97805665Y-112066810D01*
X97233210Y-112639265D01*
X96923400Y-113387213D01*
X96923400Y-114196787D01*
X97233210Y-114944735D01*
X97805665Y-115517190D01*
X98239765Y-115697000D01*
X97805665Y-115876810D01*
X97233210Y-116449265D01*
X96923400Y-117197213D01*
X96923400Y-118006787D01*
X97233210Y-118754735D01*
X97805665Y-119327190D01*
X98553613Y-119637000D01*
X99363187Y-119637000D01*
X100111135Y-119327190D01*
X100683590Y-118754735D01*
X100993400Y-118006787D01*
X100993400Y-117197213D01*
X100683590Y-116449265D01*
X100111135Y-115876810D01*
X99677035Y-115697000D01*
X100111135Y-115517190D01*
X100683590Y-114944735D01*
X100993400Y-114196787D01*
X100993400Y-113387213D01*
X100683590Y-112639265D01*
X100111135Y-112066810D01*
X99677035Y-111887000D01*
X100111135Y-111707190D01*
X100683590Y-111134735D01*
X100993400Y-110386787D01*
X100993400Y-109577213D01*
X100683590Y-108829265D01*
X100111135Y-108256810D01*
X99363187Y-107947000D01*
X98553613Y-107947000D01*
X97805665Y-108256810D01*
X97233210Y-108829265D01*
X96923400Y-109577213D01*
X80831538Y-109577213D01*
X80831990Y-106367498D01*
X80832000Y-106367447D01*
X80832000Y-106294673D01*
X80832009Y-106230651D01*
X80832000Y-106230606D01*
X80832000Y-97932370D01*
X87565635Y-97932370D01*
X87725418Y-98251139D01*
X88516187Y-98561123D01*
X89365387Y-98544897D01*
X90074582Y-98251139D01*
X90234365Y-97932370D01*
X88900000Y-96598005D01*
X87565635Y-97932370D01*
X80832000Y-97932370D01*
X80832000Y-96034587D01*
X86757277Y-96034587D01*
X86773503Y-96883787D01*
X87067261Y-97592982D01*
X87386030Y-97752765D01*
X88720395Y-96418400D01*
X89079605Y-96418400D01*
X90413970Y-97752765D01*
X90732739Y-97592982D01*
X91042723Y-96802213D01*
X91026497Y-95953013D01*
X90732739Y-95243818D01*
X90413970Y-95084035D01*
X89079605Y-96418400D01*
X88720395Y-96418400D01*
X87386030Y-95084035D01*
X87067261Y-95243818D01*
X86757277Y-96034587D01*
X80832000Y-96034587D01*
X80832000Y-94904430D01*
X87565635Y-94904430D01*
X88900000Y-96238795D01*
X90234365Y-94904430D01*
X90074582Y-94585661D01*
X89283813Y-94275677D01*
X88434613Y-94291903D01*
X87725418Y-94585661D01*
X87565635Y-94904430D01*
X80832000Y-94904430D01*
X80832000Y-91548722D01*
X93115000Y-91548722D01*
X93115000Y-92398078D01*
X93440034Y-93182780D01*
X94040620Y-93783366D01*
X94825322Y-94108400D01*
X95674678Y-94108400D01*
X96459380Y-93783366D01*
X97059966Y-93182780D01*
X97385000Y-92398078D01*
X97385000Y-91744691D01*
X143973524Y-91744691D01*
X144143355Y-92154725D01*
X144533642Y-92582984D01*
X145058108Y-92829287D01*
X145288000Y-92708620D01*
X145288000Y-91514801D01*
X145542000Y-91514801D01*
X145542000Y-92708620D01*
X145771892Y-92829287D01*
X146296358Y-92582984D01*
X146686645Y-92154725D01*
X146856476Y-91744691D01*
X146735155Y-91514801D01*
X145542000Y-91514801D01*
X145288000Y-91514801D01*
X144094845Y-91514801D01*
X143973524Y-91744691D01*
X97385000Y-91744691D01*
X97385000Y-91548722D01*
X97059966Y-90764020D01*
X96459380Y-90163434D01*
X95674678Y-89838400D01*
X94825322Y-89838400D01*
X94040620Y-90163434D01*
X93440034Y-90764020D01*
X93115000Y-91548722D01*
X80832000Y-91548722D01*
X80832000Y-87738722D01*
X96925000Y-87738722D01*
X96925000Y-88588078D01*
X97250034Y-89372780D01*
X97850620Y-89973366D01*
X98635322Y-90298400D01*
X99484678Y-90298400D01*
X100269380Y-89973366D01*
X100869966Y-89372780D01*
X101195000Y-88588078D01*
X101195000Y-87997801D01*
X143917560Y-87997801D01*
X143917560Y-89697801D01*
X143966843Y-89945566D01*
X144107191Y-90155610D01*
X144317235Y-90295958D01*
X144420708Y-90316540D01*
X144143355Y-90620877D01*
X143973524Y-91030911D01*
X144094845Y-91260801D01*
X145288000Y-91260801D01*
X145288000Y-91240801D01*
X145542000Y-91240801D01*
X145542000Y-91260801D01*
X146735155Y-91260801D01*
X146856476Y-91030911D01*
X146686645Y-90620877D01*
X146409292Y-90316540D01*
X146512765Y-90295958D01*
X146722809Y-90155610D01*
X146863157Y-89945566D01*
X146912440Y-89697801D01*
X146912440Y-87997801D01*
X146863157Y-87750036D01*
X146722809Y-87539992D01*
X146512765Y-87399644D01*
X146265000Y-87350361D01*
X144565000Y-87350361D01*
X144317235Y-87399644D01*
X144107191Y-87539992D01*
X143966843Y-87750036D01*
X143917560Y-87997801D01*
X101195000Y-87997801D01*
X101195000Y-87738722D01*
X100869966Y-86954020D01*
X100269380Y-86353434D01*
X99484678Y-86028400D01*
X98635322Y-86028400D01*
X97850620Y-86353434D01*
X97250034Y-86954020D01*
X96925000Y-87738722D01*
X80832000Y-87738722D01*
X80832000Y-83928722D01*
X93115000Y-83928722D01*
X93115000Y-84778078D01*
X93440034Y-85562780D01*
X94040620Y-86163366D01*
X94825322Y-86488400D01*
X95674678Y-86488400D01*
X96459380Y-86163366D01*
X97059966Y-85562780D01*
X97385000Y-84778078D01*
X97385000Y-83928722D01*
X97059966Y-83144020D01*
X96459380Y-82543434D01*
X95674678Y-82218400D01*
X94825322Y-82218400D01*
X94040620Y-82543434D01*
X93440034Y-83144020D01*
X93115000Y-83928722D01*
X80832000Y-83928722D01*
X80832000Y-77284113D01*
X80832064Y-77283790D01*
X80832000Y-77215988D01*
X80832000Y-77147553D01*
X80831935Y-77147227D01*
X80830766Y-75908000D01*
X106756560Y-75908000D01*
X106756560Y-77508000D01*
X106805843Y-77755765D01*
X106946191Y-77965809D01*
X107156235Y-78106157D01*
X107404000Y-78155440D01*
X109004000Y-78155440D01*
X109251765Y-78106157D01*
X109461809Y-77965809D01*
X109602157Y-77755765D01*
X109628785Y-77621894D01*
X109709423Y-77742577D01*
X110184091Y-78059740D01*
X110602667Y-78143000D01*
X110885333Y-78143000D01*
X111303909Y-78059740D01*
X111778577Y-77742577D01*
X112014000Y-77390242D01*
X112249423Y-77742577D01*
X112724091Y-78059740D01*
X113142667Y-78143000D01*
X113425333Y-78143000D01*
X113843909Y-78059740D01*
X114318577Y-77742577D01*
X114554000Y-77390242D01*
X114789423Y-77742577D01*
X115264091Y-78059740D01*
X115682667Y-78143000D01*
X115965333Y-78143000D01*
X116383909Y-78059740D01*
X116858577Y-77742577D01*
X117094000Y-77390242D01*
X117329423Y-77742577D01*
X117804091Y-78059740D01*
X118222667Y-78143000D01*
X118505333Y-78143000D01*
X118923909Y-78059740D01*
X119398577Y-77742577D01*
X119654947Y-77358892D01*
X119751611Y-77563134D01*
X120166577Y-77939041D01*
X120554961Y-78099904D01*
X120777000Y-77977915D01*
X120777000Y-76835000D01*
X121031000Y-76835000D01*
X121031000Y-77977915D01*
X121253039Y-78099904D01*
X121641423Y-77939041D01*
X122056389Y-77563134D01*
X122174000Y-77314633D01*
X122291611Y-77563134D01*
X122706577Y-77939041D01*
X123094961Y-78099904D01*
X123317000Y-77977915D01*
X123317000Y-76835000D01*
X121031000Y-76835000D01*
X120777000Y-76835000D01*
X120757000Y-76835000D01*
X120757000Y-76581000D01*
X120777000Y-76581000D01*
X120777000Y-75438085D01*
X121031000Y-75438085D01*
X121031000Y-76581000D01*
X123317000Y-76581000D01*
X123317000Y-75438085D01*
X123571000Y-75438085D01*
X123571000Y-76581000D01*
X123591000Y-76581000D01*
X123591000Y-76835000D01*
X123571000Y-76835000D01*
X123571000Y-77977915D01*
X123793039Y-78099904D01*
X124181423Y-77939041D01*
X124596389Y-77563134D01*
X124693053Y-77358892D01*
X124949423Y-77742577D01*
X125424091Y-78059740D01*
X125842667Y-78143000D01*
X126125333Y-78143000D01*
X126160439Y-78136017D01*
X133043577Y-85019156D01*
X133092951Y-85093049D01*
X133166844Y-85142423D01*
X133166845Y-85142424D01*
X133204859Y-85167824D01*
X133385690Y-85288652D01*
X133643835Y-85340000D01*
X133643839Y-85340000D01*
X133730999Y-85357337D01*
X133818159Y-85340000D01*
X135799309Y-85340000D01*
X136053848Y-85510078D01*
X136392500Y-85577440D01*
X136967500Y-85577440D01*
X137306152Y-85510078D01*
X137555000Y-85343803D01*
X137803848Y-85510078D01*
X138142500Y-85577440D01*
X138717500Y-85577440D01*
X139056152Y-85510078D01*
X139272678Y-85365400D01*
X144042544Y-85365400D01*
X144166575Y-85551025D01*
X144657782Y-85879239D01*
X145090944Y-85965400D01*
X145383456Y-85965400D01*
X145816618Y-85879239D01*
X146307825Y-85551025D01*
X146636039Y-85059818D01*
X146751292Y-84480400D01*
X146636039Y-83900982D01*
X146307825Y-83409775D01*
X146289581Y-83397584D01*
X146334965Y-83388557D01*
X146545009Y-83248209D01*
X146685357Y-83038165D01*
X146734640Y-82790400D01*
X146734640Y-81090400D01*
X146685357Y-80842635D01*
X146545009Y-80632591D01*
X146334965Y-80492243D01*
X146087200Y-80442960D01*
X144387200Y-80442960D01*
X144139435Y-80492243D01*
X143929391Y-80632591D01*
X143789043Y-80842635D01*
X143739760Y-81090400D01*
X143739760Y-82790400D01*
X143789043Y-83038165D01*
X143929391Y-83248209D01*
X144139435Y-83388557D01*
X144184819Y-83397584D01*
X144166575Y-83409775D01*
X144042544Y-83595400D01*
X139345684Y-83595400D01*
X139343247Y-83591753D01*
X139056152Y-83399922D01*
X138717500Y-83332560D01*
X138142500Y-83332560D01*
X137803848Y-83399922D01*
X137555000Y-83566197D01*
X137306152Y-83399922D01*
X136967500Y-83332560D01*
X136392500Y-83332560D01*
X136053848Y-83399922D01*
X135799309Y-83570000D01*
X134097579Y-83570000D01*
X127412017Y-76884439D01*
X127447113Y-76708000D01*
X129600887Y-76708000D01*
X129712260Y-77267909D01*
X130029423Y-77742577D01*
X130504091Y-78059740D01*
X130922667Y-78143000D01*
X131205333Y-78143000D01*
X131623909Y-78059740D01*
X132098577Y-77742577D01*
X132334000Y-77390242D01*
X132569423Y-77742577D01*
X133044091Y-78059740D01*
X133462667Y-78143000D01*
X133745333Y-78143000D01*
X134163909Y-78059740D01*
X134638577Y-77742577D01*
X134874000Y-77390242D01*
X135109423Y-77742577D01*
X135584091Y-78059740D01*
X136002667Y-78143000D01*
X136285333Y-78143000D01*
X136703909Y-78059740D01*
X137178577Y-77742577D01*
X137414000Y-77390242D01*
X137649423Y-77742577D01*
X138124091Y-78059740D01*
X138542667Y-78143000D01*
X138825333Y-78143000D01*
X139243909Y-78059740D01*
X139718577Y-77742577D01*
X139954000Y-77390242D01*
X140189423Y-77742577D01*
X140664091Y-78059740D01*
X141082667Y-78143000D01*
X141365333Y-78143000D01*
X141783909Y-78059740D01*
X142258577Y-77742577D01*
X142494000Y-77390242D01*
X142729423Y-77742577D01*
X143204091Y-78059740D01*
X143622667Y-78143000D01*
X143905333Y-78143000D01*
X144323909Y-78059740D01*
X144798577Y-77742577D01*
X145115740Y-77267909D01*
X145227113Y-76708000D01*
X145115740Y-76148091D01*
X144798577Y-75673423D01*
X144323909Y-75356260D01*
X143905333Y-75273000D01*
X143622667Y-75273000D01*
X143204091Y-75356260D01*
X142729423Y-75673423D01*
X142494000Y-76025758D01*
X142258577Y-75673423D01*
X141783909Y-75356260D01*
X141365333Y-75273000D01*
X141082667Y-75273000D01*
X140664091Y-75356260D01*
X140189423Y-75673423D01*
X139954000Y-76025758D01*
X139718577Y-75673423D01*
X139243909Y-75356260D01*
X138825333Y-75273000D01*
X138542667Y-75273000D01*
X138124091Y-75356260D01*
X137649423Y-75673423D01*
X137414000Y-76025758D01*
X137178577Y-75673423D01*
X136703909Y-75356260D01*
X136285333Y-75273000D01*
X136002667Y-75273000D01*
X135584091Y-75356260D01*
X135109423Y-75673423D01*
X134874000Y-76025758D01*
X134638577Y-75673423D01*
X134163909Y-75356260D01*
X133745333Y-75273000D01*
X133462667Y-75273000D01*
X133044091Y-75356260D01*
X132569423Y-75673423D01*
X132334000Y-76025758D01*
X132098577Y-75673423D01*
X131623909Y-75356260D01*
X131205333Y-75273000D01*
X130922667Y-75273000D01*
X130504091Y-75356260D01*
X130029423Y-75673423D01*
X129712260Y-76148091D01*
X129600887Y-76708000D01*
X127447113Y-76708000D01*
X127335740Y-76148091D01*
X127018577Y-75673423D01*
X126543909Y-75356260D01*
X126125333Y-75273000D01*
X125842667Y-75273000D01*
X125424091Y-75356260D01*
X124949423Y-75673423D01*
X124693053Y-76057108D01*
X124596389Y-75852866D01*
X124181423Y-75476959D01*
X123793039Y-75316096D01*
X123571000Y-75438085D01*
X123317000Y-75438085D01*
X123094961Y-75316096D01*
X122706577Y-75476959D01*
X122291611Y-75852866D01*
X122174000Y-76101367D01*
X122056389Y-75852866D01*
X121641423Y-75476959D01*
X121253039Y-75316096D01*
X121031000Y-75438085D01*
X120777000Y-75438085D01*
X120554961Y-75316096D01*
X120166577Y-75476959D01*
X119751611Y-75852866D01*
X119654947Y-76057108D01*
X119398577Y-75673423D01*
X118923909Y-75356260D01*
X118505333Y-75273000D01*
X118222667Y-75273000D01*
X117804091Y-75356260D01*
X117329423Y-75673423D01*
X117094000Y-76025758D01*
X116858577Y-75673423D01*
X116383909Y-75356260D01*
X115965333Y-75273000D01*
X115682667Y-75273000D01*
X115264091Y-75356260D01*
X114789423Y-75673423D01*
X114554000Y-76025758D01*
X114318577Y-75673423D01*
X113843909Y-75356260D01*
X113425333Y-75273000D01*
X113142667Y-75273000D01*
X112724091Y-75356260D01*
X112249423Y-75673423D01*
X112014000Y-76025758D01*
X111778577Y-75673423D01*
X111303909Y-75356260D01*
X110885333Y-75273000D01*
X110602667Y-75273000D01*
X110184091Y-75356260D01*
X109709423Y-75673423D01*
X109628785Y-75794106D01*
X109602157Y-75660235D01*
X109461809Y-75450191D01*
X109251765Y-75309843D01*
X109004000Y-75260560D01*
X107404000Y-75260560D01*
X107156235Y-75309843D01*
X106946191Y-75450191D01*
X106805843Y-75660235D01*
X106756560Y-75908000D01*
X80830766Y-75908000D01*
X80829656Y-74733000D01*
X145739001Y-74733000D01*
X145739000Y-76639557D01*
X145739000Y-76639557D01*
G37*
X145739000Y-76639557D02*
X145725386Y-76708000D01*
X145739000Y-76776442D01*
X145739000Y-76776446D01*
X145779325Y-76979174D01*
X145932934Y-77209065D01*
X145990960Y-77247837D01*
X148279001Y-79535880D01*
X148279000Y-103856150D01*
X148212049Y-103755951D01*
X148138156Y-103706577D01*
X146145000Y-101713422D01*
X146145000Y-101212121D01*
X146173247Y-101193247D01*
X146365078Y-100906152D01*
X146432440Y-100567500D01*
X146432440Y-100092500D01*
X146365078Y-99753848D01*
X146173247Y-99466753D01*
X145886152Y-99274922D01*
X145547500Y-99207560D01*
X144972500Y-99207560D01*
X144633848Y-99274922D01*
X144385000Y-99441197D01*
X144136152Y-99274922D01*
X143797500Y-99207560D01*
X143222500Y-99207560D01*
X142883848Y-99274922D01*
X142596753Y-99466753D01*
X142527765Y-99570000D01*
X139412235Y-99570000D01*
X139343247Y-99466753D01*
X139056152Y-99274922D01*
X138717500Y-99207560D01*
X138142500Y-99207560D01*
X137803848Y-99274922D01*
X137635460Y-99387435D01*
X137564698Y-99316673D01*
X137331309Y-99220000D01*
X136965750Y-99220000D01*
X136807000Y-99378750D01*
X136807000Y-100203000D01*
X136827000Y-100203000D01*
X136827000Y-100457000D01*
X136807000Y-100457000D01*
X136807000Y-101281250D01*
X136965750Y-101440000D01*
X137331309Y-101440000D01*
X137564698Y-101343327D01*
X137635460Y-101272565D01*
X137803848Y-101385078D01*
X138142500Y-101452440D01*
X138717500Y-101452440D01*
X139056152Y-101385078D01*
X139343247Y-101193247D01*
X139412235Y-101090000D01*
X142527765Y-101090000D01*
X142596753Y-101193247D01*
X142883848Y-101385078D01*
X143222500Y-101452440D01*
X143797500Y-101452440D01*
X144136152Y-101385078D01*
X144375001Y-101225484D01*
X144375001Y-101992835D01*
X144357663Y-102080000D01*
X144426348Y-102425309D01*
X144572576Y-102644154D01*
X144572578Y-102644156D01*
X144621952Y-102718049D01*
X144695845Y-102767423D01*
X146689000Y-104760579D01*
X146689000Y-106162422D01*
X146389575Y-105862997D01*
X146432440Y-105647500D01*
X146432440Y-105172500D01*
X146365078Y-104833848D01*
X146173247Y-104546753D01*
X145886152Y-104354922D01*
X145547500Y-104287560D01*
X144972500Y-104287560D01*
X144633848Y-104354922D01*
X144385000Y-104521197D01*
X144136152Y-104354922D01*
X143797500Y-104287560D01*
X143222500Y-104287560D01*
X142883848Y-104354922D01*
X142596753Y-104546753D01*
X142527765Y-104650000D01*
X139158235Y-104650000D01*
X139089247Y-104546753D01*
X138802152Y-104354922D01*
X138463500Y-104287560D01*
X137888500Y-104287560D01*
X137549848Y-104354922D01*
X137381460Y-104467435D01*
X137310698Y-104396673D01*
X137077309Y-104300000D01*
X136711750Y-104300000D01*
X136553000Y-104458750D01*
X136553000Y-105283000D01*
X136573000Y-105283000D01*
X136573000Y-105537000D01*
X136553000Y-105537000D01*
X136553000Y-106361250D01*
X136711750Y-106520000D01*
X137077309Y-106520000D01*
X137310698Y-106423327D01*
X137381460Y-106352565D01*
X137549848Y-106465078D01*
X137888500Y-106532440D01*
X138463500Y-106532440D01*
X138802152Y-106465078D01*
X139089247Y-106273247D01*
X139158235Y-106170000D01*
X142527765Y-106170000D01*
X142596753Y-106273247D01*
X142883848Y-106465078D01*
X143222500Y-106532440D01*
X143797500Y-106532440D01*
X144136152Y-106465078D01*
X144385000Y-106298803D01*
X144425458Y-106325836D01*
X144426348Y-106330310D01*
X144488501Y-106423327D01*
X144554400Y-106521951D01*
X144621952Y-106623049D01*
X144695845Y-106672423D01*
X145800000Y-107776579D01*
X145800001Y-109671785D01*
X145547500Y-109621560D01*
X144972500Y-109621560D01*
X144633848Y-109688922D01*
X144385000Y-109855197D01*
X144136152Y-109688922D01*
X143797500Y-109621560D01*
X143222500Y-109621560D01*
X142883848Y-109688922D01*
X142596753Y-109880753D01*
X142527765Y-109984000D01*
X139144235Y-109984000D01*
X139075247Y-109880753D01*
X138788152Y-109688922D01*
X138449500Y-109621560D01*
X137874500Y-109621560D01*
X137535848Y-109688922D01*
X137367460Y-109801435D01*
X137296698Y-109730673D01*
X137063309Y-109634000D01*
X136697750Y-109634000D01*
X136539000Y-109792750D01*
X136539000Y-110617000D01*
X136559000Y-110617000D01*
X136559000Y-110871000D01*
X136539000Y-110871000D01*
X136539000Y-111695250D01*
X136697750Y-111854000D01*
X137063309Y-111854000D01*
X137296698Y-111757327D01*
X137367460Y-111686565D01*
X137535848Y-111799078D01*
X137874500Y-111866440D01*
X138449500Y-111866440D01*
X138788152Y-111799078D01*
X139075247Y-111607247D01*
X139144235Y-111504000D01*
X142527765Y-111504000D01*
X142596753Y-111607247D01*
X142668047Y-111654884D01*
X140272932Y-114050000D01*
X126964161Y-114050000D01*
X126877000Y-114032663D01*
X126789839Y-114050000D01*
X126789835Y-114050000D01*
X126531690Y-114101348D01*
X126312845Y-114247576D01*
X126312844Y-114247577D01*
X126238951Y-114296951D01*
X126189577Y-114370844D01*
X117020439Y-123539983D01*
X116989708Y-123533870D01*
X121214156Y-119309423D01*
X121288049Y-119260049D01*
X121483652Y-118967310D01*
X121535000Y-118709165D01*
X121535000Y-118709161D01*
X121552337Y-118622001D01*
X121535000Y-118534841D01*
X121535000Y-114412578D01*
X124081139Y-111866440D01*
X124239500Y-111866440D01*
X124578152Y-111799078D01*
X124827000Y-111632803D01*
X125075848Y-111799078D01*
X125414500Y-111866440D01*
X125989500Y-111866440D01*
X126328152Y-111799078D01*
X126615247Y-111607247D01*
X126684235Y-111504000D01*
X129573765Y-111504000D01*
X129642753Y-111607247D01*
X129929848Y-111799078D01*
X130268500Y-111866440D01*
X130843500Y-111866440D01*
X131182152Y-111799078D01*
X131350540Y-111686565D01*
X131421302Y-111757327D01*
X131654691Y-111854000D01*
X132020250Y-111854000D01*
X132179000Y-111695250D01*
X132179000Y-110871000D01*
X132433000Y-110871000D01*
X132433000Y-111695250D01*
X132591750Y-111854000D01*
X132957309Y-111854000D01*
X133190698Y-111757327D01*
X133369327Y-111578699D01*
X133466000Y-111345310D01*
X133466000Y-111029750D01*
X135252000Y-111029750D01*
X135252000Y-111345310D01*
X135348673Y-111578699D01*
X135527302Y-111757327D01*
X135760691Y-111854000D01*
X136126250Y-111854000D01*
X136285000Y-111695250D01*
X136285000Y-110871000D01*
X135410750Y-110871000D01*
X135252000Y-111029750D01*
X133466000Y-111029750D01*
X133307250Y-110871000D01*
X132433000Y-110871000D01*
X132179000Y-110871000D01*
X132159000Y-110871000D01*
X132159000Y-110617000D01*
X132179000Y-110617000D01*
X132179000Y-109792750D01*
X132433000Y-109792750D01*
X132433000Y-110617000D01*
X133307250Y-110617000D01*
X133466000Y-110458250D01*
X133466000Y-110142690D01*
X135252000Y-110142690D01*
X135252000Y-110458250D01*
X135410750Y-110617000D01*
X136285000Y-110617000D01*
X136285000Y-109792750D01*
X136126250Y-109634000D01*
X135760691Y-109634000D01*
X135527302Y-109730673D01*
X135348673Y-109909301D01*
X135252000Y-110142690D01*
X133466000Y-110142690D01*
X133369327Y-109909301D01*
X133190698Y-109730673D01*
X132957309Y-109634000D01*
X132591750Y-109634000D01*
X132433000Y-109792750D01*
X132179000Y-109792750D01*
X132020250Y-109634000D01*
X131654691Y-109634000D01*
X131421302Y-109730673D01*
X131350540Y-109801435D01*
X131182152Y-109688922D01*
X130843500Y-109621560D01*
X130268500Y-109621560D01*
X129929848Y-109688922D01*
X129642753Y-109880753D01*
X129573765Y-109984000D01*
X126684235Y-109984000D01*
X126615247Y-109880753D01*
X126328152Y-109688922D01*
X125989500Y-109621560D01*
X125414500Y-109621560D01*
X125075848Y-109688922D01*
X124827000Y-109855197D01*
X124578152Y-109688922D01*
X124239500Y-109621560D01*
X123664500Y-109621560D01*
X123325848Y-109688922D01*
X123038753Y-109880753D01*
X122846922Y-110167848D01*
X122779560Y-110506500D01*
X122779560Y-110664861D01*
X120265000Y-113179422D01*
X120265000Y-112126578D01*
X124544156Y-107847423D01*
X124618049Y-107798049D01*
X124813652Y-107505310D01*
X124865000Y-107247165D01*
X124865000Y-107247161D01*
X124882337Y-107160001D01*
X124865000Y-107072841D01*
X124865000Y-106305485D01*
X125103848Y-106465078D01*
X125442500Y-106532440D01*
X126017500Y-106532440D01*
X126356152Y-106465078D01*
X126643247Y-106273247D01*
X126712235Y-106170000D01*
X129573765Y-106170000D01*
X129642753Y-106273247D01*
X129929848Y-106465078D01*
X130268500Y-106532440D01*
X130843500Y-106532440D01*
X131182152Y-106465078D01*
X131350540Y-106352565D01*
X131421302Y-106423327D01*
X131654691Y-106520000D01*
X132020250Y-106520000D01*
X132179000Y-106361250D01*
X132179000Y-105537000D01*
X132433000Y-105537000D01*
X132433000Y-106361250D01*
X132591750Y-106520000D01*
X132957309Y-106520000D01*
X133190698Y-106423327D01*
X133369327Y-106244699D01*
X133466000Y-106011310D01*
X133466000Y-105695750D01*
X135266000Y-105695750D01*
X135266000Y-106011310D01*
X135362673Y-106244699D01*
X135541302Y-106423327D01*
X135774691Y-106520000D01*
X136140250Y-106520000D01*
X136299000Y-106361250D01*
X136299000Y-105537000D01*
X135424750Y-105537000D01*
X135266000Y-105695750D01*
X133466000Y-105695750D01*
X133307250Y-105537000D01*
X132433000Y-105537000D01*
X132179000Y-105537000D01*
X132159000Y-105537000D01*
X132159000Y-105283000D01*
X132179000Y-105283000D01*
X132179000Y-104458750D01*
X132433000Y-104458750D01*
X132433000Y-105283000D01*
X133307250Y-105283000D01*
X133466000Y-105124250D01*
X133466000Y-104808690D01*
X135266000Y-104808690D01*
X135266000Y-105124250D01*
X135424750Y-105283000D01*
X136299000Y-105283000D01*
X136299000Y-104458750D01*
X136140250Y-104300000D01*
X135774691Y-104300000D01*
X135541302Y-104396673D01*
X135362673Y-104575301D01*
X135266000Y-104808690D01*
X133466000Y-104808690D01*
X133369327Y-104575301D01*
X133190698Y-104396673D01*
X132957309Y-104300000D01*
X132591750Y-104300000D01*
X132433000Y-104458750D01*
X132179000Y-104458750D01*
X132020250Y-104300000D01*
X131654691Y-104300000D01*
X131421302Y-104396673D01*
X131350540Y-104467435D01*
X131182152Y-104354922D01*
X130843500Y-104287560D01*
X130268500Y-104287560D01*
X129929848Y-104354922D01*
X129642753Y-104546753D01*
X129573765Y-104650000D01*
X126712235Y-104650000D01*
X126643247Y-104546753D01*
X126356152Y-104354922D01*
X126017500Y-104287560D01*
X125442500Y-104287560D01*
X125103848Y-104354922D01*
X124855000Y-104521197D01*
X124606152Y-104354922D01*
X124267500Y-104287560D01*
X123692500Y-104287560D01*
X123650705Y-104295873D01*
X124544156Y-103402423D01*
X124618049Y-103353049D01*
X124813652Y-103060310D01*
X124865000Y-102802165D01*
X124865000Y-102802161D01*
X124882337Y-102715001D01*
X124865000Y-102627841D01*
X124865000Y-101225485D01*
X125103848Y-101385078D01*
X125442500Y-101452440D01*
X126017500Y-101452440D01*
X126356152Y-101385078D01*
X126643247Y-101193247D01*
X126712235Y-101090000D01*
X129347765Y-101090000D01*
X129416753Y-101193247D01*
X129703848Y-101385078D01*
X130042500Y-101452440D01*
X130617500Y-101452440D01*
X130956152Y-101385078D01*
X131124540Y-101272565D01*
X131195302Y-101343327D01*
X131428691Y-101440000D01*
X131794250Y-101440000D01*
X131953000Y-101281250D01*
X131953000Y-100457000D01*
X132207000Y-100457000D01*
X132207000Y-101281250D01*
X132365750Y-101440000D01*
X132731309Y-101440000D01*
X132964698Y-101343327D01*
X133143327Y-101164699D01*
X133240000Y-100931310D01*
X133240000Y-100615750D01*
X135520000Y-100615750D01*
X135520000Y-100931310D01*
X135616673Y-101164699D01*
X135795302Y-101343327D01*
X136028691Y-101440000D01*
X136394250Y-101440000D01*
X136553000Y-101281250D01*
X136553000Y-100457000D01*
X135678750Y-100457000D01*
X135520000Y-100615750D01*
X133240000Y-100615750D01*
X133081250Y-100457000D01*
X132207000Y-100457000D01*
X131953000Y-100457000D01*
X131933000Y-100457000D01*
X131933000Y-100203000D01*
X131953000Y-100203000D01*
X131953000Y-99378750D01*
X132207000Y-99378750D01*
X132207000Y-100203000D01*
X133081250Y-100203000D01*
X133240000Y-100044250D01*
X133240000Y-99728690D01*
X135520000Y-99728690D01*
X135520000Y-100044250D01*
X135678750Y-100203000D01*
X136553000Y-100203000D01*
X136553000Y-99378750D01*
X136394250Y-99220000D01*
X136028691Y-99220000D01*
X135795302Y-99316673D01*
X135616673Y-99495301D01*
X135520000Y-99728690D01*
X133240000Y-99728690D01*
X133143327Y-99495301D01*
X132964698Y-99316673D01*
X132731309Y-99220000D01*
X132365750Y-99220000D01*
X132207000Y-99378750D01*
X131953000Y-99378750D01*
X131794250Y-99220000D01*
X131428691Y-99220000D01*
X131195302Y-99316673D01*
X131124540Y-99387435D01*
X130956152Y-99274922D01*
X130617500Y-99207560D01*
X130042500Y-99207560D01*
X129703848Y-99274922D01*
X129416753Y-99466753D01*
X129347765Y-99570000D01*
X126712235Y-99570000D01*
X126643247Y-99466753D01*
X126356152Y-99274922D01*
X126017500Y-99207560D01*
X125442500Y-99207560D01*
X125103848Y-99274922D01*
X124855000Y-99441197D01*
X124606152Y-99274922D01*
X124267500Y-99207560D01*
X123692500Y-99207560D01*
X123353848Y-99274922D01*
X123066753Y-99466753D01*
X122874922Y-99753848D01*
X122807560Y-100092500D01*
X122807560Y-100567500D01*
X122874922Y-100906152D01*
X123066753Y-101193247D01*
X123095000Y-101212121D01*
X123095001Y-102348420D01*
X116910847Y-108532575D01*
X116836951Y-108581951D01*
X116641348Y-108874691D01*
X116590000Y-109132836D01*
X116590000Y-109132839D01*
X116572663Y-109220000D01*
X116590000Y-109307161D01*
X116590001Y-116350420D01*
X109400439Y-123539983D01*
X109365333Y-123533000D01*
X109082667Y-123533000D01*
X108664091Y-123616260D01*
X108189423Y-123933423D01*
X107954000Y-124285758D01*
X107718577Y-123933423D01*
X107243909Y-123616260D01*
X106825333Y-123533000D01*
X106542667Y-123533000D01*
X106124091Y-123616260D01*
X105649423Y-123933423D01*
X105414000Y-124285758D01*
X105178577Y-123933423D01*
X104703909Y-123616260D01*
X104285333Y-123533000D01*
X104002667Y-123533000D01*
X103584091Y-123616260D01*
X103109423Y-123933423D01*
X102792260Y-124408091D01*
X102680887Y-124968000D01*
X102792260Y-125527909D01*
X103109423Y-126002577D01*
X103584091Y-126319740D01*
X104002667Y-126403000D01*
X104285333Y-126403000D01*
X104703909Y-126319740D01*
X105178577Y-126002577D01*
X105414000Y-125650242D01*
X105649423Y-126002577D01*
X106124091Y-126319740D01*
X106542667Y-126403000D01*
X106825333Y-126403000D01*
X107243909Y-126319740D01*
X107718577Y-126002577D01*
X107954000Y-125650242D01*
X108189423Y-126002577D01*
X108664091Y-126319740D01*
X109082667Y-126403000D01*
X109365333Y-126403000D01*
X109783909Y-126319740D01*
X110258577Y-126002577D01*
X110494000Y-125650242D01*
X110729423Y-126002577D01*
X111204091Y-126319740D01*
X111622667Y-126403000D01*
X111905333Y-126403000D01*
X112323909Y-126319740D01*
X112798577Y-126002577D01*
X113034000Y-125650242D01*
X113269423Y-126002577D01*
X113744091Y-126319740D01*
X114162667Y-126403000D01*
X114445333Y-126403000D01*
X114863909Y-126319740D01*
X115338577Y-126002577D01*
X115574000Y-125650242D01*
X115809423Y-126002577D01*
X116284091Y-126319740D01*
X116702667Y-126403000D01*
X116985333Y-126403000D01*
X117403909Y-126319740D01*
X117878577Y-126002577D01*
X118114000Y-125650242D01*
X118349423Y-126002577D01*
X118824091Y-126319740D01*
X119242667Y-126403000D01*
X119525333Y-126403000D01*
X119943909Y-126319740D01*
X120418577Y-126002577D01*
X120654000Y-125650242D01*
X120889423Y-126002577D01*
X121364091Y-126319740D01*
X121782667Y-126403000D01*
X122065333Y-126403000D01*
X122483909Y-126319740D01*
X122958577Y-126002577D01*
X123275740Y-125527909D01*
X123387113Y-124968000D01*
X123352017Y-124791561D01*
X124749000Y-123394578D01*
X124749000Y-123435657D01*
X124937018Y-123889571D01*
X124968274Y-123920827D01*
X124949423Y-123933423D01*
X124632260Y-124408091D01*
X124520887Y-124968000D01*
X124632260Y-125527909D01*
X124949423Y-126002577D01*
X125424091Y-126319740D01*
X125842667Y-126403000D01*
X126125333Y-126403000D01*
X126543909Y-126319740D01*
X127018577Y-126002577D01*
X127254000Y-125650242D01*
X127489423Y-126002577D01*
X127964091Y-126319740D01*
X128382667Y-126403000D01*
X128665333Y-126403000D01*
X129083909Y-126319740D01*
X129558577Y-126002577D01*
X129794000Y-125650242D01*
X130029423Y-126002577D01*
X130504091Y-126319740D01*
X130922667Y-126403000D01*
X131205333Y-126403000D01*
X131623909Y-126319740D01*
X132098577Y-126002577D01*
X132334000Y-125650242D01*
X132569423Y-126002577D01*
X133044091Y-126319740D01*
X133462667Y-126403000D01*
X133745333Y-126403000D01*
X134163909Y-126319740D01*
X134638577Y-126002577D01*
X134874000Y-125650242D01*
X135109423Y-126002577D01*
X135584091Y-126319740D01*
X136002667Y-126403000D01*
X136285333Y-126403000D01*
X136703909Y-126319740D01*
X137178577Y-126002577D01*
X137414000Y-125650242D01*
X137649423Y-126002577D01*
X138124091Y-126319740D01*
X138542667Y-126403000D01*
X138825333Y-126403000D01*
X139243909Y-126319740D01*
X139718577Y-126002577D01*
X139954000Y-125650242D01*
X140189423Y-126002577D01*
X140664091Y-126319740D01*
X141082667Y-126403000D01*
X141365333Y-126403000D01*
X141783909Y-126319740D01*
X142258577Y-126002577D01*
X142494000Y-125650242D01*
X142729423Y-126002577D01*
X143204091Y-126319740D01*
X143622667Y-126403000D01*
X143905333Y-126403000D01*
X144323909Y-126319740D01*
X144798577Y-126002577D01*
X145115740Y-125527909D01*
X145227113Y-124968000D01*
X145115740Y-124408091D01*
X144798577Y-123933423D01*
X144323909Y-123616260D01*
X143905333Y-123533000D01*
X143622667Y-123533000D01*
X143204091Y-123616260D01*
X142729423Y-123933423D01*
X142494000Y-124285758D01*
X142258577Y-123933423D01*
X141783909Y-123616260D01*
X141365333Y-123533000D01*
X141082667Y-123533000D01*
X140664091Y-123616260D01*
X140189423Y-123933423D01*
X140077000Y-124101676D01*
X140077000Y-119225553D01*
X140238982Y-119063571D01*
X140427000Y-118609657D01*
X140427000Y-118487000D01*
X141898839Y-118487000D01*
X141986000Y-118504337D01*
X142073161Y-118487000D01*
X142073165Y-118487000D01*
X142331310Y-118435652D01*
X142624049Y-118240049D01*
X142673425Y-118166153D01*
X145739001Y-115100578D01*
X145739000Y-125700121D01*
X144496123Y-126943000D01*
X80829097Y-126943000D01*
X80830733Y-115305970D01*
X91782035Y-115305970D01*
X91941818Y-115624739D01*
X92732587Y-115934723D01*
X93581787Y-115918497D01*
X94290982Y-115624739D01*
X94450765Y-115305970D01*
X93116400Y-113971605D01*
X91782035Y-115305970D01*
X80830733Y-115305970D01*
X80831000Y-113408187D01*
X90973677Y-113408187D01*
X90989903Y-114257387D01*
X91283661Y-114966582D01*
X91602430Y-115126365D01*
X92936795Y-113792000D01*
X93296005Y-113792000D01*
X94630370Y-115126365D01*
X94949139Y-114966582D01*
X95259123Y-114175813D01*
X95242897Y-113326613D01*
X94949139Y-112617418D01*
X94630370Y-112457635D01*
X93296005Y-113792000D01*
X92936795Y-113792000D01*
X91602430Y-112457635D01*
X91283661Y-112617418D01*
X90973677Y-113408187D01*
X80831000Y-113408187D01*
X80831158Y-112278030D01*
X91782035Y-112278030D01*
X93116400Y-113612395D01*
X94450765Y-112278030D01*
X94290982Y-111959261D01*
X93500213Y-111649277D01*
X92651013Y-111665503D01*
X91941818Y-111959261D01*
X91782035Y-112278030D01*
X80831158Y-112278030D01*
X80831538Y-109577213D01*
X96923400Y-109577213D01*
X96923400Y-110386787D01*
X97233210Y-111134735D01*
X97805665Y-111707190D01*
X98239765Y-111887000D01*
X97805665Y-112066810D01*
X97233210Y-112639265D01*
X96923400Y-113387213D01*
X96923400Y-114196787D01*
X97233210Y-114944735D01*
X97805665Y-115517190D01*
X98239765Y-115697000D01*
X97805665Y-115876810D01*
X97233210Y-116449265D01*
X96923400Y-117197213D01*
X96923400Y-118006787D01*
X97233210Y-118754735D01*
X97805665Y-119327190D01*
X98553613Y-119637000D01*
X99363187Y-119637000D01*
X100111135Y-119327190D01*
X100683590Y-118754735D01*
X100993400Y-118006787D01*
X100993400Y-117197213D01*
X100683590Y-116449265D01*
X100111135Y-115876810D01*
X99677035Y-115697000D01*
X100111135Y-115517190D01*
X100683590Y-114944735D01*
X100993400Y-114196787D01*
X100993400Y-113387213D01*
X100683590Y-112639265D01*
X100111135Y-112066810D01*
X99677035Y-111887000D01*
X100111135Y-111707190D01*
X100683590Y-111134735D01*
X100993400Y-110386787D01*
X100993400Y-109577213D01*
X100683590Y-108829265D01*
X100111135Y-108256810D01*
X99363187Y-107947000D01*
X98553613Y-107947000D01*
X97805665Y-108256810D01*
X97233210Y-108829265D01*
X96923400Y-109577213D01*
X80831538Y-109577213D01*
X80831990Y-106367498D01*
X80832000Y-106367447D01*
X80832000Y-106294673D01*
X80832009Y-106230651D01*
X80832000Y-106230606D01*
X80832000Y-97932370D01*
X87565635Y-97932370D01*
X87725418Y-98251139D01*
X88516187Y-98561123D01*
X89365387Y-98544897D01*
X90074582Y-98251139D01*
X90234365Y-97932370D01*
X88900000Y-96598005D01*
X87565635Y-97932370D01*
X80832000Y-97932370D01*
X80832000Y-96034587D01*
X86757277Y-96034587D01*
X86773503Y-96883787D01*
X87067261Y-97592982D01*
X87386030Y-97752765D01*
X88720395Y-96418400D01*
X89079605Y-96418400D01*
X90413970Y-97752765D01*
X90732739Y-97592982D01*
X91042723Y-96802213D01*
X91026497Y-95953013D01*
X90732739Y-95243818D01*
X90413970Y-95084035D01*
X89079605Y-96418400D01*
X88720395Y-96418400D01*
X87386030Y-95084035D01*
X87067261Y-95243818D01*
X86757277Y-96034587D01*
X80832000Y-96034587D01*
X80832000Y-94904430D01*
X87565635Y-94904430D01*
X88900000Y-96238795D01*
X90234365Y-94904430D01*
X90074582Y-94585661D01*
X89283813Y-94275677D01*
X88434613Y-94291903D01*
X87725418Y-94585661D01*
X87565635Y-94904430D01*
X80832000Y-94904430D01*
X80832000Y-91548722D01*
X93115000Y-91548722D01*
X93115000Y-92398078D01*
X93440034Y-93182780D01*
X94040620Y-93783366D01*
X94825322Y-94108400D01*
X95674678Y-94108400D01*
X96459380Y-93783366D01*
X97059966Y-93182780D01*
X97385000Y-92398078D01*
X97385000Y-91744691D01*
X143973524Y-91744691D01*
X144143355Y-92154725D01*
X144533642Y-92582984D01*
X145058108Y-92829287D01*
X145288000Y-92708620D01*
X145288000Y-91514801D01*
X145542000Y-91514801D01*
X145542000Y-92708620D01*
X145771892Y-92829287D01*
X146296358Y-92582984D01*
X146686645Y-92154725D01*
X146856476Y-91744691D01*
X146735155Y-91514801D01*
X145542000Y-91514801D01*
X145288000Y-91514801D01*
X144094845Y-91514801D01*
X143973524Y-91744691D01*
X97385000Y-91744691D01*
X97385000Y-91548722D01*
X97059966Y-90764020D01*
X96459380Y-90163434D01*
X95674678Y-89838400D01*
X94825322Y-89838400D01*
X94040620Y-90163434D01*
X93440034Y-90764020D01*
X93115000Y-91548722D01*
X80832000Y-91548722D01*
X80832000Y-87738722D01*
X96925000Y-87738722D01*
X96925000Y-88588078D01*
X97250034Y-89372780D01*
X97850620Y-89973366D01*
X98635322Y-90298400D01*
X99484678Y-90298400D01*
X100269380Y-89973366D01*
X100869966Y-89372780D01*
X101195000Y-88588078D01*
X101195000Y-87997801D01*
X143917560Y-87997801D01*
X143917560Y-89697801D01*
X143966843Y-89945566D01*
X144107191Y-90155610D01*
X144317235Y-90295958D01*
X144420708Y-90316540D01*
X144143355Y-90620877D01*
X143973524Y-91030911D01*
X144094845Y-91260801D01*
X145288000Y-91260801D01*
X145288000Y-91240801D01*
X145542000Y-91240801D01*
X145542000Y-91260801D01*
X146735155Y-91260801D01*
X146856476Y-91030911D01*
X146686645Y-90620877D01*
X146409292Y-90316540D01*
X146512765Y-90295958D01*
X146722809Y-90155610D01*
X146863157Y-89945566D01*
X146912440Y-89697801D01*
X146912440Y-87997801D01*
X146863157Y-87750036D01*
X146722809Y-87539992D01*
X146512765Y-87399644D01*
X146265000Y-87350361D01*
X144565000Y-87350361D01*
X144317235Y-87399644D01*
X144107191Y-87539992D01*
X143966843Y-87750036D01*
X143917560Y-87997801D01*
X101195000Y-87997801D01*
X101195000Y-87738722D01*
X100869966Y-86954020D01*
X100269380Y-86353434D01*
X99484678Y-86028400D01*
X98635322Y-86028400D01*
X97850620Y-86353434D01*
X97250034Y-86954020D01*
X96925000Y-87738722D01*
X80832000Y-87738722D01*
X80832000Y-83928722D01*
X93115000Y-83928722D01*
X93115000Y-84778078D01*
X93440034Y-85562780D01*
X94040620Y-86163366D01*
X94825322Y-86488400D01*
X95674678Y-86488400D01*
X96459380Y-86163366D01*
X97059966Y-85562780D01*
X97385000Y-84778078D01*
X97385000Y-83928722D01*
X97059966Y-83144020D01*
X96459380Y-82543434D01*
X95674678Y-82218400D01*
X94825322Y-82218400D01*
X94040620Y-82543434D01*
X93440034Y-83144020D01*
X93115000Y-83928722D01*
X80832000Y-83928722D01*
X80832000Y-77284113D01*
X80832064Y-77283790D01*
X80832000Y-77215988D01*
X80832000Y-77147553D01*
X80831935Y-77147227D01*
X80830766Y-75908000D01*
X106756560Y-75908000D01*
X106756560Y-77508000D01*
X106805843Y-77755765D01*
X106946191Y-77965809D01*
X107156235Y-78106157D01*
X107404000Y-78155440D01*
X109004000Y-78155440D01*
X109251765Y-78106157D01*
X109461809Y-77965809D01*
X109602157Y-77755765D01*
X109628785Y-77621894D01*
X109709423Y-77742577D01*
X110184091Y-78059740D01*
X110602667Y-78143000D01*
X110885333Y-78143000D01*
X111303909Y-78059740D01*
X111778577Y-77742577D01*
X112014000Y-77390242D01*
X112249423Y-77742577D01*
X112724091Y-78059740D01*
X113142667Y-78143000D01*
X113425333Y-78143000D01*
X113843909Y-78059740D01*
X114318577Y-77742577D01*
X114554000Y-77390242D01*
X114789423Y-77742577D01*
X115264091Y-78059740D01*
X115682667Y-78143000D01*
X115965333Y-78143000D01*
X116383909Y-78059740D01*
X116858577Y-77742577D01*
X117094000Y-77390242D01*
X117329423Y-77742577D01*
X117804091Y-78059740D01*
X118222667Y-78143000D01*
X118505333Y-78143000D01*
X118923909Y-78059740D01*
X119398577Y-77742577D01*
X119654947Y-77358892D01*
X119751611Y-77563134D01*
X120166577Y-77939041D01*
X120554961Y-78099904D01*
X120777000Y-77977915D01*
X120777000Y-76835000D01*
X121031000Y-76835000D01*
X121031000Y-77977915D01*
X121253039Y-78099904D01*
X121641423Y-77939041D01*
X122056389Y-77563134D01*
X122174000Y-77314633D01*
X122291611Y-77563134D01*
X122706577Y-77939041D01*
X123094961Y-78099904D01*
X123317000Y-77977915D01*
X123317000Y-76835000D01*
X121031000Y-76835000D01*
X120777000Y-76835000D01*
X120757000Y-76835000D01*
X120757000Y-76581000D01*
X120777000Y-76581000D01*
X120777000Y-75438085D01*
X121031000Y-75438085D01*
X121031000Y-76581000D01*
X123317000Y-76581000D01*
X123317000Y-75438085D01*
X123571000Y-75438085D01*
X123571000Y-76581000D01*
X123591000Y-76581000D01*
X123591000Y-76835000D01*
X123571000Y-76835000D01*
X123571000Y-77977915D01*
X123793039Y-78099904D01*
X124181423Y-77939041D01*
X124596389Y-77563134D01*
X124693053Y-77358892D01*
X124949423Y-77742577D01*
X125424091Y-78059740D01*
X125842667Y-78143000D01*
X126125333Y-78143000D01*
X126160439Y-78136017D01*
X133043577Y-85019156D01*
X133092951Y-85093049D01*
X133166844Y-85142423D01*
X133166845Y-85142424D01*
X133204859Y-85167824D01*
X133385690Y-85288652D01*
X133643835Y-85340000D01*
X133643839Y-85340000D01*
X133730999Y-85357337D01*
X133818159Y-85340000D01*
X135799309Y-85340000D01*
X136053848Y-85510078D01*
X136392500Y-85577440D01*
X136967500Y-85577440D01*
X137306152Y-85510078D01*
X137555000Y-85343803D01*
X137803848Y-85510078D01*
X138142500Y-85577440D01*
X138717500Y-85577440D01*
X139056152Y-85510078D01*
X139272678Y-85365400D01*
X144042544Y-85365400D01*
X144166575Y-85551025D01*
X144657782Y-85879239D01*
X145090944Y-85965400D01*
X145383456Y-85965400D01*
X145816618Y-85879239D01*
X146307825Y-85551025D01*
X146636039Y-85059818D01*
X146751292Y-84480400D01*
X146636039Y-83900982D01*
X146307825Y-83409775D01*
X146289581Y-83397584D01*
X146334965Y-83388557D01*
X146545009Y-83248209D01*
X146685357Y-83038165D01*
X146734640Y-82790400D01*
X146734640Y-81090400D01*
X146685357Y-80842635D01*
X146545009Y-80632591D01*
X146334965Y-80492243D01*
X146087200Y-80442960D01*
X144387200Y-80442960D01*
X144139435Y-80492243D01*
X143929391Y-80632591D01*
X143789043Y-80842635D01*
X143739760Y-81090400D01*
X143739760Y-82790400D01*
X143789043Y-83038165D01*
X143929391Y-83248209D01*
X144139435Y-83388557D01*
X144184819Y-83397584D01*
X144166575Y-83409775D01*
X144042544Y-83595400D01*
X139345684Y-83595400D01*
X139343247Y-83591753D01*
X139056152Y-83399922D01*
X138717500Y-83332560D01*
X138142500Y-83332560D01*
X137803848Y-83399922D01*
X137555000Y-83566197D01*
X137306152Y-83399922D01*
X136967500Y-83332560D01*
X136392500Y-83332560D01*
X136053848Y-83399922D01*
X135799309Y-83570000D01*
X134097579Y-83570000D01*
X127412017Y-76884439D01*
X127447113Y-76708000D01*
X129600887Y-76708000D01*
X129712260Y-77267909D01*
X130029423Y-77742577D01*
X130504091Y-78059740D01*
X130922667Y-78143000D01*
X131205333Y-78143000D01*
X131623909Y-78059740D01*
X132098577Y-77742577D01*
X132334000Y-77390242D01*
X132569423Y-77742577D01*
X133044091Y-78059740D01*
X133462667Y-78143000D01*
X133745333Y-78143000D01*
X134163909Y-78059740D01*
X134638577Y-77742577D01*
X134874000Y-77390242D01*
X135109423Y-77742577D01*
X135584091Y-78059740D01*
X136002667Y-78143000D01*
X136285333Y-78143000D01*
X136703909Y-78059740D01*
X137178577Y-77742577D01*
X137414000Y-77390242D01*
X137649423Y-77742577D01*
X138124091Y-78059740D01*
X138542667Y-78143000D01*
X138825333Y-78143000D01*
X139243909Y-78059740D01*
X139718577Y-77742577D01*
X139954000Y-77390242D01*
X140189423Y-77742577D01*
X140664091Y-78059740D01*
X141082667Y-78143000D01*
X141365333Y-78143000D01*
X141783909Y-78059740D01*
X142258577Y-77742577D01*
X142494000Y-77390242D01*
X142729423Y-77742577D01*
X143204091Y-78059740D01*
X143622667Y-78143000D01*
X143905333Y-78143000D01*
X144323909Y-78059740D01*
X144798577Y-77742577D01*
X145115740Y-77267909D01*
X145227113Y-76708000D01*
X145115740Y-76148091D01*
X144798577Y-75673423D01*
X144323909Y-75356260D01*
X143905333Y-75273000D01*
X143622667Y-75273000D01*
X143204091Y-75356260D01*
X142729423Y-75673423D01*
X142494000Y-76025758D01*
X142258577Y-75673423D01*
X141783909Y-75356260D01*
X141365333Y-75273000D01*
X141082667Y-75273000D01*
X140664091Y-75356260D01*
X140189423Y-75673423D01*
X139954000Y-76025758D01*
X139718577Y-75673423D01*
X139243909Y-75356260D01*
X138825333Y-75273000D01*
X138542667Y-75273000D01*
X138124091Y-75356260D01*
X137649423Y-75673423D01*
X137414000Y-76025758D01*
X137178577Y-75673423D01*
X136703909Y-75356260D01*
X136285333Y-75273000D01*
X136002667Y-75273000D01*
X135584091Y-75356260D01*
X135109423Y-75673423D01*
X134874000Y-76025758D01*
X134638577Y-75673423D01*
X134163909Y-75356260D01*
X133745333Y-75273000D01*
X133462667Y-75273000D01*
X133044091Y-75356260D01*
X132569423Y-75673423D01*
X132334000Y-76025758D01*
X132098577Y-75673423D01*
X131623909Y-75356260D01*
X131205333Y-75273000D01*
X130922667Y-75273000D01*
X130504091Y-75356260D01*
X130029423Y-75673423D01*
X129712260Y-76148091D01*
X129600887Y-76708000D01*
X127447113Y-76708000D01*
X127335740Y-76148091D01*
X127018577Y-75673423D01*
X126543909Y-75356260D01*
X126125333Y-75273000D01*
X125842667Y-75273000D01*
X125424091Y-75356260D01*
X124949423Y-75673423D01*
X124693053Y-76057108D01*
X124596389Y-75852866D01*
X124181423Y-75476959D01*
X123793039Y-75316096D01*
X123571000Y-75438085D01*
X123317000Y-75438085D01*
X123094961Y-75316096D01*
X122706577Y-75476959D01*
X122291611Y-75852866D01*
X122174000Y-76101367D01*
X122056389Y-75852866D01*
X121641423Y-75476959D01*
X121253039Y-75316096D01*
X121031000Y-75438085D01*
X120777000Y-75438085D01*
X120554961Y-75316096D01*
X120166577Y-75476959D01*
X119751611Y-75852866D01*
X119654947Y-76057108D01*
X119398577Y-75673423D01*
X118923909Y-75356260D01*
X118505333Y-75273000D01*
X118222667Y-75273000D01*
X117804091Y-75356260D01*
X117329423Y-75673423D01*
X117094000Y-76025758D01*
X116858577Y-75673423D01*
X116383909Y-75356260D01*
X115965333Y-75273000D01*
X115682667Y-75273000D01*
X115264091Y-75356260D01*
X114789423Y-75673423D01*
X114554000Y-76025758D01*
X114318577Y-75673423D01*
X113843909Y-75356260D01*
X113425333Y-75273000D01*
X113142667Y-75273000D01*
X112724091Y-75356260D01*
X112249423Y-75673423D01*
X112014000Y-76025758D01*
X111778577Y-75673423D01*
X111303909Y-75356260D01*
X110885333Y-75273000D01*
X110602667Y-75273000D01*
X110184091Y-75356260D01*
X109709423Y-75673423D01*
X109628785Y-75794106D01*
X109602157Y-75660235D01*
X109461809Y-75450191D01*
X109251765Y-75309843D01*
X109004000Y-75260560D01*
X107404000Y-75260560D01*
X107156235Y-75309843D01*
X106946191Y-75450191D01*
X106805843Y-75660235D01*
X106756560Y-75908000D01*
X80830766Y-75908000D01*
X80829656Y-74733000D01*
X145739001Y-74733000D01*
X145739000Y-76639557D01*
G04 #@! TD*
M02*
